<?xml version="1.0" encoding="utf-8"?>
<!-- Generator: Adobe Illustrator 26.5.0, SVG Export Plug-In . SVG Version: 6.00 Build 0)  -->
<svg version="1.1" id="Layer_1" xmlns="http://www.w3.org/2000/svg" xmlns:xlink="http://www.w3.org/1999/xlink" x="0px" y="0px"
	 viewBox="0 0 448 512" style="enable-background:new 0 0 448 512;" xml:space="preserve">
<style type="text/css">
	.st0{fill:#FFFFFF;}
</style>
<path class="st0" d="M197.8,128h95.1l11.5-69.3c2.9-17.4,19.4-29.2,36.8-26.3s29.2,19.4,26.3,36.8l-9.7,58.8H416
	c17.7,0,32,14.3,32,32s-14.3,32-32,32h-68.9l-21.3,128l-10.7,64l-11.5,69.3c-2.9,17.4-19.4,29.2-36.8,26.3s-29.2-19.4-26.3-36.8
	l9.8-58.7h-95.2l-11.5,69.3c-2.9,17.4-19.4,29.2-36.8,26.3s-29.2-19.4-26.3-36.8l9.7-58.9H32c-17.7,0-32-14.3-32-32s14.3-32,32-32
	h68.9l21.3-128H64c-17.7,0-32-14.3-32-32s14.3-32,32-32h68.9L197.8,128L197.8,128z M187.1,192l-21.3,128h95.1l21.3-128H187.1z"/>
</svg>
