<?xml version="1.0" encoding="UTF-8"?>
<svg id="Layer_2" data-name="Layer 2" xmlns="http://www.w3.org/2000/svg" viewBox="0 0 1446.33 996.38">
  <defs>
    <style>
      .cls-1 {
        fill: #ccc;
        opacity: .1;
      }

      .cls-2 {
        opacity: .2;
      }
    </style>
  </defs>
  <g id="Layer_1-2" data-name="Layer 1">
    <g class="cls-2">
      <path class="cls-1" d="M393,320.3c-32.73,33.34-65.63,66.53-99.12,99.1-19.48,18.94-20.54,51.63-.16,71.03,50.27,47.85,99.42,96.85,149.12,145.3,31.4,30.61,63.05,60.97,94.45,91.59,26.72,26.06,57.99,30.96,91.44,14.84,54.16-26.1,108.53-51.78,162.81-77.63,6.75-3.22,13.47-6.51,20.28-9.58,22.22-10.02,30.77-35.83,17.7-56.39-11.48-18.05-24.05-35.41-36.3-52.96-19.19-27.5-38.52-54.89-57.79-82.34-16.89-24.05-32.98-48.72-50.88-71.99-17.64-22.94-40.85-39.51-68.42-48.76-45.25-15.19-90.73-29.71-136.22-44.14-8-2.54-16.58-3.26-24.9-4.82-24.22,1.41-44.85,9.29-62,26.75Z"/>
      <path class="cls-1" d="M678.1,34.15c-32.21,31.28-63.65,63.36-95.3,95.22-18.54,18.66-22.73,50.13-7.86,72.19,24.79,36.78,49.92,73.41,76.7,108.75,16.41,21.65,39.07,37.05,65.06,45.66,64.41,21.34,129.07,41.93,193.72,62.56,28.78,9.18,55.36-3.92,67.59-32.01,28.02-64.34,56.33-128.56,84.5-192.84,4.48-10.23,8.34-20.71,6.47-32.13-2.76-16.89-13.95-26.99-28.45-34.32-51.59-26.07-103.13-52.22-154.73-78.27-21.18-10.69-42.17-21.83-63.76-31.63-22.23-10.08-45.86-15.55-71.74-17.35-27.41,2.25-51.87,14.4-72.2,34.15Z"/>
      <path class="cls-1" d="M52.21,.32C19.9,.34-.02,20.18,.11,52.5c.05,11.84-.62,23.95,1.58,35.45,5.17,27.05,21.65,45.08,47.97,53.62,59.87,19.44,119.77,38.8,179.69,58.09,50.35,16.21,100.51,33.05,151.19,48.15,29.59,8.81,56.75,1.07,79.64-19.7,10.69-9.7,20.58-20.29,30.7-30.61,20.62-21.01,23.63-51.57,6.93-75.86-19.87-28.91-39.24-58.26-60.72-85.96C419.34,12.8,393.98,1.01,365,.55c-52.38-.83-104.78-.24-157.17-.24-51.87,0-103.75-.03-155.62,0Z"/>
      <path class="cls-1" d="M140.39,643.06c47.62,68.39,95.18,136.82,143.08,205.01,20.68,29.45,48.3,35.88,80.61,20.37,49.31-23.67,98.83-46.9,148.12-70.62,6.86-3.3,14.03-7.27,19.1-12.75,11.17-12.05,9.97-28.83-2.31-41.04-22.86-22.74-46.07-45.14-69.15-67.67-49.48-48.31-98.94-96.62-148.45-144.89-10.16-9.9-20.79-19.34-30.64-29.54-18.12-18.76-51.5-18.53-69.73,.34-21.16,21.9-43.02,43.11-64.5,64.7-11.51,11.57-16.93,25.66-16.68,43.33-.72,11.32,3.45,22.58,10.54,32.76Z"/>
      <path class="cls-1" d="M1410.97,315.69c-16.16-9.15-32.88-17.32-49.44-25.73-72.96-37.04-145.93-74.05-218.94-110.98-20.98-10.61-42.8-6.86-56.93,9.95-3.58,4.26-6.23,9.5-8.49,14.65-27.86,63.31-55.68,126.65-83.27,190.08-10.84,24.93-1.85,50.01,22.86,58.76,33.54,11.87,67.72,22.02,101.87,32.09,23.7,6.99,46.54,2.05,68.37-8.29,52.48-24.87,104.9-49.85,157.35-74.79,20.05-9.53,40.36-18.55,60.01-28.85,7.51-3.93,14.01-10.29,19.93-16.52,2.87-3.02,3.34-8.32,4.9-12.58-.77-13.24-7.96-21.99-18.22-27.8Z"/>
      <path class="cls-1" d="M57.22,995.98c33.47-3.1,65.31-11.73,95.56-26.64,34.47-16.99,69.39-33.06,103.83-50.11,22.63-11.2,29.36-36.93,15.05-57.73-31.73-46.11-63.97-91.87-95.97-137.79-16.22-23.28-32.35-46.61-48.55-69.9-15.59-22.41-43.52-24.45-62.52-4.68-12.49,13-26.16,25.06-37.35,39.1C9.07,711.08,.28,737.92,.09,767.26c-.19,29.41-.04,58.82-.04,88.23,0,29.41-.02,58.82,0,88.24,.02,34.32,23.14,55.4,57.16,52.25"/>
      <path class="cls-1" d="M1057.72,996.11c4.84-.02,9.86-.49,14.48-1.85,14.38-4.24,19.58-15.59,12.51-29-5.27-10-11.94-19.3-18.41-28.61-45.54-65.46-91.19-130.85-136.82-196.25-9.3-13.33-18.14-27.05-28.34-39.66-4.39-5.42-11.19-10.33-17.82-12.18-10.91-3.06-20.08,3.65-25.67,16.26-10.98,24.77-21.8,49.62-32.69,74.43-16.59,37.81-33.44,75.51-49.71,113.46-10.81,25.21-10.68,50.23,7.19,72.25,6.05,7.46,15.49,12.77,24.3,17.27,19.34,9.87,40.1,14.39,62.02,14.08"/>
      <path class="cls-1" d="M279.17,409.14c32.98-32.71,65.83-65.56,98.48-98.6,7.92-8.01,14.72-17.18,10.75-29.61-3.6-11.27-13.03-16.2-23.34-19.56-29.92-9.75-59.91-19.29-89.87-28.94-45.18-14.54-90.36-29.1-135.54-43.66-31.18-10.05-62.35-20.14-93.55-30.13-10.23-3.28-20.61-4.83-31.17-1.35-11.06,3.64-15.39,10.22-13.56,21.72,3.57,22.56,15.33,41.23,30.95,56.85,41.22,41.21,83.25,81.6,125.07,122.19,18.51,17.96,37.22,35.7,56.02,53.35,8.83,8.29,19.27,12.87,30.97,11.61,14.33,.91,25.51-4.66,34.79-13.88Z"/>
      <path class="cls-1" d="M1.74,407.27c2.42,29.19,12.87,56.09,30.28,80.11,15.14,20.88,29.43,42.39,44.55,63.28,10.93,15.1,29.53,19.83,46.13,12.02,5.04-2.37,9.89-5.78,13.84-9.71,21.95-21.79,43.88-43.62,65.27-65.96,17.65-18.43,14.85-47.38-5.62-67.3-34.22-33.28-68.33-66.67-102.61-99.89-20.93-20.29-42.04-40.38-63.14-60.48-2.03-1.93-4.42-3.62-6.9-4.94-9.94-5.28-18.76-1.66-21.54,9.15-1.27,4.94-1.82,10.18-1.88,15.29-.21,19.1-.08,38.2-.08,57.29,.43,0,.87,0,1.3,0,0,23.72-1.56,47.56,.4,71.11Z"/>
      <path class="cls-1" d="M1446.33,426.3c0-2.06,.03-4.13-.03-6.19-.75-27.68-18.95-39.1-44.03-27.32-32.69,15.36-65.24,31.02-97.86,46.54-28.65,13.63-57.36,27.17-85.94,40.95-5.31,2.56-10.62,5.5-15.14,9.22-8.2,6.75-8.09,15.26,.69,21.27,5.62,3.85,12.34,6.43,18.9,8.55,58.91,19.06,117.89,37.9,176.86,56.77,2.44,.78,4.98,1.44,7.52,1.74,23.43,2.79,38.26-10.11,38.99-33.84,.02-.52,.02-1.03,.02-1.55,0-20.39,0-40.77,0-61.16,.02-18.32,.02-36.65,.02-54.97Z"/>
      <path class="cls-1" d="M623.04,810.54c28.02,27.44,56.05,54.88,84.23,82.17,19.36,18.75,42.11,14.8,53.15-9.88,23.5-52.52,46.36-105.32,69.47-158.02,5.18-11.81,10.59-23.54,15.32-35.54,2.61-6.62,5.93-14.24-.43-20.31-6.42-6.13-14.15-3.46-21.06-.25-24.57,11.41-49.04,23.04-73.52,34.65-38.7,18.36-77.44,36.64-116.02,55.23-12,5.78-20.69,14.51-20.96,27.85,.23,10.16,3.48,17.87,9.84,24.1Z"/>
      <path class="cls-1" d="M906.04,435.42c-37.98-12.56-76.13-24.62-114.21-36.89-19.9-6.41-39.76-12.94-59.73-19.11-4.6-1.42-9.65-2.37-14.41-2.09-7.97,.46-11.47,6.12-8.61,13.58,1.92,5.01,4.54,9.89,7.61,14.3,31.1,44.71,62.36,89.3,93.55,133.94,11.83,16.92,23.3,34.1,35.48,50.77,16.75,22.94,32.71,21.66,44.61-4.05,14.31-30.91,27.69-62.25,41.22-93.52,2.21-5.12,3.07-10.82,4.56-16.25-.75-18.84-11.62-34.57-30.07-40.67Z"/>
      <path class="cls-1" d="M874.19,.37c-4.61,.01-9.32,.4-13.77,1.5-2.4,.6-5.94,2.92-6.11,4.72-.23,2.45,1.71,5.81,3.75,7.61,3.24,2.86,7.18,5.04,11.08,7.02,54.32,27.54,108.68,55.03,163.06,82.45,7.12,3.59,14.2,7.56,21.74,9.99,22.54,7.27,44.15-2.31,54.09-23.79,7.15-15.46,14-31.07,20.46-46.83,9.79-23.87-2.3-42.33-28.13-42.63-32.01-.37-64.03-.11-96.04-.11-6.45,0-12.91,0-19.36,0-36.92,0-73.84-.05-110.76,.06Z"/>
      <path class="cls-1" d="M486.34,.31c-2.07,0-4.14-.09-6.19,.06-9.5,.73-18.7,2.32-23.84,11.71-5.32,9.72-.77,18.08,4.57,25.9,16.29,23.88,32.62,47.74,49.32,71.33,16.58,23.43,42.63,25.46,61.14,7.15,19.27-19.06,38.45-38.2,57.6-57.38,9.47-9.48,18.84-19.05,28.11-28.72,5.4-5.64,9.5-12.32,6.25-20.23-3.32-8.09-11.49-9.4-18.97-9.57-19.87-.47-39.75-.22-59.63-.26-7.74-.01-15.49,0-23.23,0-25.04,0-50.08,0-75.12,0Z"/>
      <path class="cls-1" d="M947.12,500.42c-10.44,24.15-21.12,48.19-31.49,72.37-3.16,7.37-6.91,15.88-.24,22.47,6.66,6.57,15.34,2.87,22.51-.44,26.24-12.08,52.25-24.65,78.34-37.06,22.13-10.53,44.35-20.87,66.28-31.79,5.37-2.67,10.49-6.67,14.43-11.19,4.55-5.23,3.35-11.33-2.19-15.58-3.63-2.79-7.74-5.38-12.05-6.81-24.73-8.18-49.56-16.04-74.41-23.86-3.4-1.07-7.06-1.33-8.86-1.65-25.03,1.61-42.75,11.35-52.34,33.53Z"/>
      <path class="cls-1" d="M506.7,207.15c-10.72,8.78-20.31,19.03-29.76,29.24-17.2,18.59-11.82,38.63,12.27,46.73,15.65,5.26,31.39,10.29,47.11,15.34,21.37,6.87,42.75,13.72,64.17,20.41,4.16,1.3,8.52,2.14,12.86,2.61,9.14,1,13.8-4.03,11.89-13.03-.73-3.44-2.29-6.93-4.29-9.83-19.43-28.28-38.87-56.56-58.67-84.58-7.58-10.73-18.3-16.49-31.86-16.18-.29-.73-.58-1.45-.86-2.18-7.7,3.72-16.44,6.18-22.88,11.45Z"/>
      <path class="cls-1" d="M.18,640.77c.08,5.33,.93,10.84,2.53,15.92,2.77,8.83,10.73,12.95,18.23,7.97,20.55-13.63,39.77-29.44,47.95-53.7,6.1-18.09,3.43-36.1-8.12-52.24-10.65-14.88-20.83-30.11-31.39-45.05-3.11-4.4-6.47-8.74-10.36-12.44-7.97-7.58-14.88-5.52-17.29,5.08-1.08,4.73-1.57,9.69-1.61,14.55-.17,19.85-.07,39.71-.07,59.57,0,20.11-.16,40.23,.12,60.34Z"/>
      <path class="cls-1" d="M316.85,996.17c10.32-.03,20.96-.88,26.46-10.99,5.47-10.06,.57-19.52-4.91-28.28-16.05-25.66-48.82-34.45-76.15-21.06-27.81,13.62-55.93,26.6-83.85,40.01-4.62,2.22-9.1,4.9-13.19,7.97-1.77,1.34-3.58,4.46-3.19,6.32,.37,1.8,3.36,3.83,5.53,4.32,4.74,1.06,9.68,1.63,14.54,1.67"/>
      <path class="cls-1" d="M767.93,994.94c6.93-2.04,8.62-7.11,4.79-13.14-4.95-7.81-11.84-12.67-21.24-13.42-6.99-.35-11.25,3.12-13.27,9.5-2.02,6.38,.61,10.96,5.98,14.34,7.48,4.71,15.57,5.13,23.74,2.72"/>
      <path class="cls-1" d="M455,293.55c-24.22,1.41-44.85,9.29-62,26.75-32.73,33.34-65.63,66.53-99.12,99.1-19.48,18.94-20.54,51.63-.16,71.03,50.27,47.85,99.42,96.85,149.12,145.3,31.4,30.61,63.05,60.97,94.45,91.59,26.72,26.06,57.99,30.96,91.44,14.84,54.16-26.1,108.53-51.78,162.81-77.63,6.75-3.22,13.47-6.51,20.28-9.58,22.22-10.02,30.77-35.83,17.7-56.39-11.48-18.05-24.05-35.41-36.3-52.96-19.19-27.5-38.52-54.89-57.79-82.34-16.89-24.05-32.98-48.72-50.88-71.99-17.64-22.94-40.85-39.51-68.42-48.76-45.25-15.19-90.73-29.71-136.22-44.14-8-2.54-16.58-3.26-24.9-4.82Z"/>
      <path class="cls-1" d="M750.3,0c-27.41,2.25-51.87,14.4-72.2,34.15-32.21,31.28-63.65,63.36-95.3,95.22-18.54,18.66-22.73,50.13-7.86,72.19,24.79,36.78,49.92,73.41,76.7,108.75,16.41,21.65,39.07,37.05,65.06,45.66,64.41,21.34,129.07,41.93,193.72,62.56,28.78,9.18,55.36-3.92,67.59-32.01,28.02-64.34,56.33-128.56,84.5-192.84,4.48-10.23,8.34-20.71,6.47-32.13-2.76-16.89-13.95-26.99-28.45-34.32-51.59-26.07-103.13-52.22-154.73-78.27-21.18-10.69-42.17-21.83-63.76-31.63-22.23-10.08-45.86-15.55-71.74-17.35Z"/>
      <path class="cls-1" d="M207.83,.31c-51.87,0-103.75-.03-155.62,0C19.9,.34-.02,20.18,.11,52.5c.05,11.84-.62,23.95,1.58,35.45,5.17,27.05,21.65,45.08,47.97,53.62,59.87,19.44,119.77,38.8,179.69,58.09,50.35,16.21,100.51,33.05,151.19,48.15,29.59,8.81,56.75,1.07,79.64-19.7,10.69-9.7,20.58-20.29,30.7-30.61,20.62-21.01,23.63-51.57,6.93-75.86-19.87-28.91-39.24-58.26-60.72-85.96C419.34,12.8,393.98,1.01,365,.55c-52.38-.83-104.78-.24-157.17-.24Z"/>
      <path class="cls-1" d="M129.85,610.29c-.72,11.32,3.45,22.58,10.54,32.76,47.62,68.39,95.18,136.82,143.08,205.01,20.68,29.45,48.3,35.88,80.61,20.37,49.31-23.67,98.83-46.9,148.12-70.62,6.86-3.3,14.03-7.27,19.1-12.75,11.17-12.05,9.97-28.83-2.31-41.04-22.86-22.74-46.07-45.14-69.15-67.67-49.48-48.31-98.94-96.62-148.45-144.89-10.16-9.9-20.79-19.34-30.64-29.54-18.12-18.76-51.5-18.53-69.73,.34-21.16,21.9-43.02,43.11-64.5,64.7-11.51,11.57-16.93,25.66-16.68,43.33Z"/>
      <path class="cls-1" d="M1429.19,343.49c-.77-13.24-7.96-21.99-18.22-27.8-16.16-9.15-32.88-17.32-49.44-25.73-72.96-37.04-145.93-74.05-218.94-110.98-20.98-10.61-42.8-6.86-56.93,9.95-3.58,4.26-6.23,9.5-8.49,14.65-27.86,63.31-55.68,126.65-83.27,190.08-10.84,24.93-1.85,50.01,22.86,58.76,33.54,11.87,67.72,22.02,101.87,32.09,23.7,6.99,46.54,2.05,68.37-8.29,52.48-24.87,104.9-49.85,157.35-74.79,20.05-9.53,40.36-18.55,60.01-28.85,7.51-3.93,14.01-10.29,19.93-16.52,2.87-3.02,3.34-8.32,4.9-12.58Z"/>
      <path class="cls-1" d="M57.22,995.98c33.47-3.1,65.31-11.73,95.56-26.64,34.47-16.99,69.39-33.06,103.83-50.11,22.63-11.2,29.36-36.93,15.05-57.73-31.73-46.11-63.97-91.87-95.97-137.79-16.22-23.28-32.35-46.61-48.55-69.9-15.59-22.41-43.52-24.45-62.52-4.68-12.49,13-26.16,25.06-37.35,39.1C9.07,711.08,.28,737.92,.09,767.26c-.19,29.41-.04,58.82-.04,88.23,0,29.41-.02,58.82,0,88.24,.02,34.32,23.14,55.4,57.16,52.25"/>
      <path class="cls-1" d="M1057.72,996.11c4.84-.02,9.86-.49,14.48-1.85,14.38-4.24,19.58-15.59,12.51-29-5.27-10-11.94-19.3-18.41-28.61-45.54-65.46-91.19-130.85-136.82-196.25-9.3-13.33-18.14-27.05-28.34-39.66-4.39-5.42-11.19-10.33-17.82-12.18-10.91-3.06-20.08,3.65-25.67,16.26-10.98,24.77-21.8,49.62-32.69,74.43-16.59,37.81-33.44,75.51-49.71,113.46-10.81,25.21-10.68,50.23,7.19,72.25,6.05,7.46,15.49,12.77,24.3,17.27,19.34,9.87,40.1,14.39,62.02,14.08"/>
      <path class="cls-1" d="M244.38,423.01c14.33,.91,25.51-4.66,34.79-13.88,32.98-32.71,65.83-65.56,98.48-98.6,7.92-8.01,14.72-17.18,10.75-29.61-3.6-11.27-13.03-16.2-23.34-19.56-29.92-9.75-59.91-19.29-89.87-28.94-45.18-14.54-90.36-29.1-135.54-43.66-31.18-10.05-62.35-20.14-93.55-30.13-10.23-3.28-20.61-4.83-31.17-1.35-11.06,3.64-15.39,10.22-13.56,21.72,3.57,22.56,15.33,41.23,30.95,56.85,41.22,41.21,83.25,81.6,125.07,122.19,18.51,17.96,37.22,35.7,56.02,53.35,8.83,8.29,19.27,12.87,30.97,11.61Z"/>
      <path class="cls-1" d="M1.34,336.15c0,23.72-1.56,47.56,.4,71.11,2.42,29.19,12.87,56.09,30.28,80.11,15.14,20.88,29.43,42.39,44.55,63.28,10.93,15.1,29.53,19.83,46.13,12.02,5.04-2.37,9.89-5.78,13.84-9.71,21.95-21.79,43.88-43.62,65.27-65.96,17.65-18.43,14.85-47.38-5.62-67.3-34.22-33.28-68.33-66.67-102.61-99.89-20.93-20.29-42.04-40.38-63.14-60.48-2.03-1.93-4.42-3.62-6.9-4.94-9.94-5.28-18.76-1.66-21.54,9.15-1.27,4.94-1.82,10.18-1.88,15.29-.21,19.1-.08,38.2-.08,57.29,.43,0,.87,0,1.3,0Z"/>
      <path class="cls-1" d="M1446.32,481.26c.01-18.32,.01-36.65,0-54.97,0-2.06,.03-4.13-.03-6.19-.75-27.68-18.95-39.1-44.03-27.32-32.69,15.36-65.24,31.02-97.86,46.54-28.65,13.63-57.36,27.17-85.94,40.95-5.31,2.56-10.62,5.5-15.14,9.22-8.2,6.75-8.09,15.26,.69,21.27,5.62,3.85,12.34,6.43,18.9,8.55,58.91,19.06,117.89,37.9,176.86,56.77,2.44,.78,4.98,1.44,7.52,1.74,23.43,2.79,38.26-10.11,38.99-33.84,.02-.52,.02-1.03,.02-1.55,0-20.39,0-40.77,.01-61.16Z"/>
      <path class="cls-1" d="M613.2,786.44c.23,10.16,3.48,17.87,9.84,24.1,28.02,27.44,56.05,54.88,84.23,82.17,19.36,18.75,42.11,14.8,53.15-9.88,23.5-52.52,46.36-105.32,69.47-158.02,5.18-11.81,10.59-23.54,15.32-35.54,2.61-6.62,5.93-14.24-.43-20.31-6.42-6.13-14.15-3.46-21.06-.25-24.57,11.41-49.04,23.04-73.52,34.65-38.7,18.36-77.44,36.64-116.02,55.23-12,5.78-20.69,14.51-20.96,27.85Z"/>
      <path class="cls-1" d="M936.11,476.09c-.75-18.84-11.62-34.57-30.07-40.67-37.98-12.56-76.13-24.62-114.21-36.89-19.9-6.41-39.76-12.94-59.73-19.11-4.6-1.42-9.65-2.37-14.41-2.09-7.97,.46-11.47,6.12-8.61,13.58,1.92,5.01,4.54,9.89,7.61,14.3,31.1,44.71,62.36,89.3,93.55,133.94,11.83,16.92,23.3,34.1,35.48,50.77,16.75,22.94,32.71,21.66,44.61-4.05,14.31-30.91,27.69-62.25,41.22-93.52,2.21-5.12,3.07-10.82,4.56-16.25Z"/>
      <path class="cls-1" d="M984.95,.31c-36.92,0-73.84-.05-110.76,.06-4.61,.01-9.32,.4-13.77,1.5-2.4,.6-5.94,2.92-6.11,4.72-.23,2.45,1.71,5.81,3.75,7.61,3.24,2.86,7.18,5.04,11.08,7.02,54.32,27.54,108.68,55.03,163.06,82.45,7.12,3.59,14.2,7.56,21.74,9.99,22.54,7.27,44.15-2.31,54.09-23.79,7.15-15.46,14-31.07,20.46-46.83,9.79-23.87-2.3-42.33-28.13-42.63-32.01-.37-64.03-.11-96.04-.11-6.45,0-12.91,0-19.36,0Z"/>
      <path class="cls-1" d="M561.47,.3c-25.04,0-50.08,0-75.12,0-2.07,0-4.14-.09-6.19,.06-9.5,.73-18.7,2.32-23.84,11.71-5.32,9.72-.77,18.08,4.57,25.9,16.29,23.88,32.62,47.74,49.32,71.33,16.58,23.43,42.63,25.46,61.14,7.15,19.27-19.06,38.45-38.2,57.6-57.38,9.47-9.48,18.84-19.05,28.11-28.72,5.4-5.64,9.5-12.32,6.25-20.23-3.32-8.09-11.49-9.4-18.97-9.57-19.87-.47-39.75-.22-59.63-.26-7.74-.01-15.49,0-23.23,0Z"/>
      <path class="cls-1" d="M999.46,466.89c-25.03,1.61-42.75,11.35-52.34,33.53-10.44,24.15-21.12,48.19-31.49,72.37-3.16,7.37-6.91,15.88-.24,22.47,6.66,6.57,15.34,2.87,22.51-.44,26.24-12.08,52.25-24.65,78.34-37.06,22.13-10.53,44.35-20.87,66.28-31.79,5.37-2.67,10.49-6.67,14.43-11.19,4.55-5.23,3.35-11.33-2.19-15.58-3.63-2.79-7.74-5.38-12.05-6.81-24.73-8.18-49.56-16.04-74.41-23.86-3.4-1.07-7.06-1.33-8.86-1.65Z"/>
      <path class="cls-1" d="M529.57,195.7c-7.7,3.72-16.44,6.18-22.88,11.45-10.72,8.78-20.31,19.03-29.76,29.24-17.2,18.59-11.82,38.63,12.27,46.73,15.65,5.26,31.39,10.29,47.11,15.34,21.37,6.87,42.75,13.72,64.17,20.41,4.16,1.3,8.52,2.14,12.86,2.61,9.14,1,13.8-4.03,11.89-13.03-.73-3.44-2.29-6.93-4.29-9.83-19.43-28.28-38.87-56.56-58.67-84.58-7.58-10.73-18.3-16.49-31.86-16.18-.29-.73-.58-1.45-.86-2.18Z"/>
      <path class="cls-1" d="M.06,580.43c0,20.11-.17,40.23,.12,60.34,.08,5.33,.93,10.84,2.53,15.92,2.77,8.83,10.73,12.95,18.23,7.97,20.55-13.63,39.77-29.44,47.95-53.7,6.1-18.09,3.43-36.1-8.12-52.24-10.65-14.88-20.83-30.11-31.39-45.05-3.11-4.4-6.47-8.74-10.36-12.44-7.97-7.58-14.88-5.52-17.29,5.08-1.08,4.73-1.57,9.69-1.61,14.55-.17,19.85-.07,39.71-.07,59.57Z"/>
      <path class="cls-1" d="M316.85,996.17c10.32-.03,20.96-.88,26.46-10.99,5.47-10.06,.57-19.52-4.91-28.28-16.05-25.66-48.82-34.45-76.15-21.06-27.81,13.62-55.93,26.6-83.85,40.01-4.62,2.22-9.1,4.9-13.19,7.97-1.77,1.34-3.58,4.46-3.19,6.32,.37,1.8,3.36,3.83,5.53,4.32,4.74,1.06,9.68,1.63,14.54,1.67"/>
      <path class="cls-1" d="M767.93,994.94c6.93-2.04,8.62-7.11,4.79-13.14-4.95-7.81-11.84-12.67-21.24-13.42-6.99-.35-11.25,3.12-13.27,9.5-2.02,6.38,.61,10.96,5.98,14.34,7.48,4.71,15.57,5.13,23.74,2.72"/>
    </g>
  </g>
</svg>