<?xml version="1.0" encoding="UTF-8"?>
<svg id="Layer_2" data-name="Layer 2" xmlns="http://www.w3.org/2000/svg" viewBox="0 0 568.85 622.56">
  <defs>
    <style>
      .cls-1 {
        fill: #fff;
      }
    </style>
  </defs>
  <g id="Layer_2-2" data-name="Layer 2">
    <g>
      <path d="M338.94,406.81c3.49-39.87,6.99-79.95,10.5-120.03-.71-.21-1.04-.4-1.36-.38-7.11,.35-7.19,.35-7.68,7.38-1.37,19.75-2.65,39.5-3.99,59.25-1.15,16.83-2.33,33.65-3.53,50.48-.07,1.02-.52,2.02-.79,3.03-.51-.07-1.02-.14-1.52-.21,2.73-39.47,5.47-78.94,8.19-118.25-.74-.26-.96-.43-1.17-.41-8.12,.79-8.06,.8-8.51,8.97-1.95,35.44-3.94,70.89-5.93,106.33-.05,.89-.33,1.77-.51,2.65-.55-.06-1.11-.12-1.66-.18,2.12-38.49,4.24-76.98,6.39-115.98-3.31,.58-6.11,1.07-9.24,1.62-1.63,38.04-3.25,75.88-4.87,113.72l-1.97-.08c1.56-37.6,3.13-75.19,4.71-113.25-2.8,.44-5.26,.57-7.52,1.32-.87,.29-1.77,1.99-1.8,3.07-.49,14.05-.81,28.11-1.21,42.17-.62,21.31-1.26,42.63-1.92,63.94-.02,.73-.28,1.45-.43,2.17-.33,.03-.67,.05-1,.08-.18-1.16-.54-2.33-.51-3.49,.4-14.52,.89-29.04,1.29-43.56,.55-19.8,1.04-39.6,1.55-59.39,.03-1.27,0-2.54,0-4.34-2.8,.48-5.36,.65-7.7,1.45-.81,.28-1.51,2.13-1.53,3.27-.23,10.31-.26,20.63-.41,30.94-.35,24.01-.72,48.02-1.1,72.04-.02,.96-.22,1.91-1.05,2.83-1.22-11.83-.48-23.64-.32-35.44,.16-12.07,.25-24.14,.3-36.2,.05-12.06,.01-24.12,.01-36.25-4.99-.91-6.04-.07-6.04,5.2,0,32.48,0,64.95,0,97.43,0,1.5,0,3,0,4.41-5.3,1.37-5.78,1.02-5.78-4.08,0-32.84-.05-65.67,.07-98.51,.01-3.08-.96-4.21-3.94-4.69-19.17-3.08-38.31-6.33-57.47-9.52-1.02-.17-2.05-.26-3.57-.45,.36,4.85,.63,9.36,1.03,13.87,2.02,22.75,4.1,45.49,6.12,68.24,1.04,11.78,1.96,23.58,3.04,35.36,.22,2.46-.31,3.38-3.05,3.7-28.07,3.24-55.7,8.74-82.77,16.88-9.29,2.79-18.5,5.83-28.21,8.91-4.63-7.59-9.51-15.29-14.08-23.16-23.6-40.62-41.16-83.73-53.38-129.07-8.82-32.73-14.73-65.98-18.32-99.68-3.81-35.83-4.97-71.76-4.85-107.75,0-.81,.07-1.62,.14-3.13,12.43-3.94,24.93-8.12,37.57-11.87,24.92-7.39,50.33-12.77,75.92-17.19,20.64-3.57,41.37-6.74,62.15-9.42,21.01-2.71,42.16-4.37,63.19-6.93,18.65-2.27,37.17-1.16,55.71,.91,21.41,2.39,42.91,4.24,64.21,7.42,28.12,4.2,56.13,9.16,84.08,14.38,22.78,4.26,45.09,10.55,67.09,17.89,3.88,1.3,7.67,2.89,11.59,4.08,2.39,.73,3.19,1.89,3.18,4.47-.06,30.83-.88,61.63-3.51,92.37-2.9,33.99-8.12,67.6-16.21,100.75-10.33,42.35-25.05,83.12-45.43,121.68-8.14,15.4-17.54,30.14-26.31,45.22-.98,1.68-2.03,1.86-3.72,1.21-20.8-7.96-42.1-14.31-63.85-19.03-15.87-3.45-31.91-6.09-48.29-9.17ZM249.96,144.53l.09,.1c-2.22-3.29-4.17-6.81-6.72-9.81-2.41-2.83-5.42-5.16-8.25-7.62-.69-.6-1.92-1.34-2.53-1.1-.73,.3-1.15,1.54-1.53,2.45-.85,2.02-1.6,4.09-2.39,6.14-.48-.1-.96-.21-1.44-.31v-15c-.37-.05-.74-.1-1.11-.14-.51,.98-1.07,1.94-1.52,2.95-3.74,8.51-5.19,17.42-5.01,26.69,.05,2.85,1.12,3.56,3.75,3.61,11.94,.19,23.88,.55,35.82,.84,1.52,.04,3.04,0,5.3,0-4.94-4.33-9.26-8.11-13.36-11.71-.42,1.12-.76,2.02-1.1,2.92Zm135.2-25.89c.52-1.02,.9-2.13,1.57-3.04,12.12-16.67,24.27-33.32,36.41-49.98,4.26-5.85,8.48-11.72,13.08-18.08-4.84-.84-9.2-1.46-13.48-2.41-2.15-.47-3.06,.33-4.13,2.02-13.01,20.59-26.11,41.12-39.18,61.66-1.03,1.63-2.02,3.28-3.31,5.39,3.38,1.59,6.28,2.95,9.18,4.31,2.57,2.65,4.92,5.67,9.15,5.61,2.19,2.48,4.39,4.96,6.78,7.67,24.27-25.82,47.94-51,72.1-76.71-6.01-1.29-11.22-2.52-16.49-3.43-.92-.16-2.36,.79-3.07,1.63-16.02,19.26-31.94,38.59-47.94,57.86-3.71,4.47-7.67,8.74-11.51,13.09,.43-.8,.75-1.7,1.31-2.39,14.78-17.88,29.59-35.73,44.39-53.59,4.61-5.56,9.22-11.13,14.19-17.13-4.63-.98-8.77-1.62-12.76-2.77-2.98-.86-4.65,0-6.4,2.43-14.38,19.96-28.86,39.85-43.35,59.73-2.04,2.8-4.34,5.42-6.53,8.12ZM34.83,73.66c-4.84-1.79-7.86,.27-7.8,5.34,.03,3.04,.29,6.08,.16,9.11-.1,2.28,.78,3.54,2.7,4.75,31.04,19.58,62.04,39.24,93.02,58.92,3.82,2.42,7.47,5.1,11.2,7.66-1.06-.44-2.21-.75-3.17-1.35-26.43-16.72-52.84-33.48-79.25-50.23-7.88-5-15.76-9.99-24.11-15.28,0,5.9,.19,11.24-.07,16.57-.15,3.16,1.09,4.78,3.79,6.25,26.84,14.62,53.61,29.38,80.41,44.1,5.4,2.96,10.82,5.88,16.53,8.99,2.06-3.27,3.91-6.21,5.76-9.15,2.48-2.51,4.95-5.02,7.57-7.68-5.85-4.25-11.15-8.1-16.46-11.95-23.89-17.34-47.81-34.65-71.67-52.03-6.32-4.6-12.48-9.41-18.72-14.13,1.02,.51,2.13,.89,3.04,1.55,28.63,20.74,57.24,41.51,85.86,62.26,6.13,4.44,12.26,8.88,18.52,13.4,2.41-2.56,4.61-4.89,6.9-7.32-.7-.61-1.13-1-1.57-1.36-12.63-10.45-25.26-20.89-37.9-31.33-17.51-14.47-35-28.95-52.57-43.34-1.02-.84-2.8-1.66-3.9-1.35-5.74,1.59-11.39,3.49-17.02,5.44-.59,.21-.84,1.43-1.24,2.18ZM457.84,339.34c.38-.3,.65-.4,.72-.58,.39-1.1,.73-2.21,1.08-3.32,10.71-33.1,12.15-66.63,4.16-100.46-9.02-38.2-28.43-70.33-57.58-96.53-16.53-14.86-35.27-26.24-55.94-34.47-1.87-.74-3.09-.67-4.51,.94-2.63,2.99-5.41,5.86-8.36,8.53-1.52,1.38-1.51,2.37-.75,4.17,1.99,4.73,3.97,9.51,5.27,14.45,.66,2.52,1.7,3.15,3.96,3.31,10.04,.72,20.11,1.27,30.11,2.43,7.06,.82,14.04,2.39,21,3.91,2.97,.65,5.45,2.36,5.54,5.92,.09,3.67-2.54,5.25-5.45,5.95-6.7,1.6-13.43,3.31-20.24,4.13-10.45,1.25-20.99,1.85-31.5,2.59-2.45,.17-3.59,1.06-4.32,3.53-1.15,3.9-2.75,7.71-4.58,11.36-1.09,2.19-.76,3.32,.88,5.06,7.55,8,14.99,16.12,22.21,24.42,1.77,2.03,3.07,4.77,3.75,7.39,1,3.86-1.61,6.78-5.61,6.52-2.16-.14-4.54-.63-6.35-1.73-10.1-6.12-20.12-12.39-30.02-18.82-2.03-1.32-3.17-1.24-5.13,.11-21.86,15.01-51.02,14.52-72.41-1.22-1.78-1.31-2.76-1.24-4.5-.01-7.16,5.07-14.35,10.13-21.78,14.81-4.23,2.66-8.87,4.71-13.45,6.75-2.51,1.12-5.25,1.38-7.42-1.05-2.25-2.52-1.74-5.3-.37-7.87,1.37-2.57,2.93-5.13,4.87-7.27,7.46-8.24,15.15-16.28,22.64-24.51,.7-.77,1.04-2.45,.72-3.44-1.22-3.77-3-7.37-4.12-11.17-.67-2.27-1.77-2.8-3.93-2.96-12.73-.94-25.47-1.83-38.16-3.17-5.54-.59-11.01-2.05-16.45-3.41-2.83-.7-5.14-2.35-5.25-5.77-.11-3.49,2.28-4.97,5.02-5.94,2.53-.89,5.14-1.81,7.77-2.09,15.35-1.64,30.72-3.18,46.1-4.53,2.54-.22,3.61-.93,4.28-3.41,1.13-4.16,2.89-8.15,4.12-12.29,.32-1.06,.08-2.79-.62-3.56-3.07-3.38-6.32-6.61-9.71-9.67-.78-.71-2.59-1.06-3.55-.66-20.99,8.72-39.88,20.83-56.23,36.59-37.07,35.75-56.57,79.55-58.39,130.99-.8,22.67,3.12,44.75,10.42,66.26,1.32,3.88,3.13,5.34,7.39,3.98v-7.15h12.75c.37,14.06,.74,27.95,1.11,42.04h6.35v-19.57c.74-.12,1.2-.3,1.62-.24,3.15,.44,4.18-.93,3.8-3.99-.26-2.05-.05-4.15-.05-6.24h12.18v9.91c1.8,.22,3.26,.4,5.04,.62,0,1.59,0,2.98,0,4.37,0,7.39,0,14.78,0,22.16q0,4.53,4.69,4.52c1.37,0,2.75,0,4.52,0v-33.06c3.07,0,5.77,.15,8.43-.04,2.83-.21,4.07,.65,3.8,3.7-.25,2.97-.06,5.98-.06,9.34h10.76c.14,2.42,.26,4.48,.39,6.67h12.27v-18.11h16.42c.07-1.02,.19-1.6,.14-2.17-1.98-22.75-4.01-45.51-5.91-68.27-.19-2.29-1.21-2.97-3.21-3.21-4.49-.54-8.96-1.2-13.29-1.79v-57.95c7.85-.76,15.42-1.5,23-2.24,13.52-1.33,27.02-2.92,40.56-3.94,11.29-.85,22.51-3.24,33.95-1.67,6.61,.91,13.27,1.42,19.92,2.06,19.11,1.86,38.22,3.76,57.35,5.49,2.54,.23,3.35,.93,3.33,3.54-.11,17.36-.06,34.71-.07,52.07,0,.8-.11,1.59-.18,2.57-5.21,.74-10.28,1.65-15.38,2.12-2.52,.23-3.29,1.09-3.5,3.59-1.71,20.31-3.59,40.6-5.4,60.89-.52,5.8-.96,11.61-1.45,17.56h5.58c0-6.85,.15-13.39-.07-19.91-.09-2.78,.9-3.46,3.43-3.32,3.01,.17,6.03,.04,9.32,.04,.12-2.68,.22-5.07,.33-7.51h11.67c.48,6.12,1.05,12.06,1.36,18.01,.2,3.86,.04,7.74,.04,11.61,0,4.07,0,8.14,0,12.1,6.59,1.4,6.9,1.15,6.91-4.9,0-4.77,0-9.53,0-14.69,5.28,1.1,5.68-1.71,5.27-5.32-.18-1.58-.03-3.2-.03-4.79h11.16c2.72,3.44-3.58,11.02,6.17,10.26,0,5.25-.07,10.27,.06,15.29,.02,.95,.8,1.88,1.23,2.81,.55-.94,1.54-1.86,1.57-2.82,.16-5,.07-10.01,.07-14.72,7.72-2.18,14.99-4.15,22.59,.21v7.63h9.15c0-7.01-.03-13.68,.04-20.34,0-.91,.49-2.59,.81-2.61,2.31-.1,1.82-1.66,1.86-3.02,.05-1.58,.15-3.16,.23-4.82h11.37c.21,1.02,.4,1.96,.62,3.03Zm-177.32-116.75c-26.8,2.6-53.19,5.15-79.65,7.72-.11,.94-.24,1.51-.24,2.08-.01,14.3,.05,28.61-.07,42.91-.02,2.71,1.38,2.9,3.45,3.16,19.39,2.45,38.77,4.99,58.15,7.5,6.01,.78,12.03,1.53,18.36,2.34v-65.7Zm6.32,65.71c6.65-.85,12.99-1.66,19.34-2.47,19.14-2.47,38.27-5.01,57.43-7.33,2.7-.33,3.53-1.16,3.5-3.85-.12-13.71-.05-27.41-.07-41.12,0-1.01-.15-2.01-.24-3.21-26.78-2.59-53.26-5.16-79.96-7.75v65.73Zm-18.24-149.65c-1.97,2.28-1.5,4.98,1.09,6.72,.98,.66,1.94,1.39,2.75,2.23,1.72,1.8,3.14,3.92,5.04,5.49,1.71,1.42,6.63-.74,7.46-3.36,.22-.69-1.39-1.96-2.35-3.21,.48-.13,1.23-.62,1.8-.46,4.26,1.17,6.97-1.25,9.61-3.93,.24-.25,.56-.42,.82-.65,6.59-5.89,13.19-11.79,19.86-17.76-1.57-1.72-2.8-3.06-4.31-4.71,6.94-2.03,13.49-3.95,19.96-5.84-1.54-7.22-6.99-11.08-12.01-15.14-5.17-4.18-10.76-7.74-17.21-9.11,.08,1.75,.14,3.06,.2,4.38-.34,.04-.68,.08-1.02,.13-.95-1.79-1.9-3.57-3-5.66-2.95,3.12-7.97-1.95-10.96,2.96,.66,.22,1.13,.57,1.45,.46,3.61-1.22,4.28,1.12,4.96,3.81,.27,1.06,1.22,1.95,1.81,2.84-.43,.63-1.47,1.45-1.44,2.24,.11,3.98-4.5,7.38-8.17,5.85-.46-.19-1-.19-1.5-.27,8.63-3.07,10.58-6.85,6.35-12.91-.05,6.72-7.28,3.76-9.34,7.86,.37,1.61,3.04,3.8-.96,4.53-3.22-6.35-5.27-7.09-8.55-2.92,1.09,.18,2.07,.34,3.17,.53-.89,.69-1.67,1.29-2.55,1.97,1.57,2.14,3.57,4.2,1.27,6.63-2.32,2.45-3.94,5.67-8.14,6.11-1.61,.17-4.66,.83-4.62,4.05,0,.37-1.19,.76-2.57,1.57,.55-1.26,.81-1.72,.95-2.2,.17-.57,.25-1.17,.39-1.9-4.51,1.11-4.97,2.07-2.95,5.59,2.08,3.63,1.75,5.59-1.66,8.65,2.55,2.24,5.06,4.45,7.86,6.91,1.54-1.47,2.93-2.8,4.31-4.12,.74,.9,1.47,1.79,2.19,2.66Zm163.22,23.58c5.92-3.76,11.45-7.27,16.98-10.78,29.76-18.87,59.54-37.72,89.25-56.66,1.05-.67,2.01-2.27,2.1-3.5,.31-4.42,.35-8.86,.23-13.29-.03-1.31-.59-3.23-1.52-3.72-.9-.47-2.82,.2-3.87,.95-32.66,23.58-65.27,47.24-97.88,70.89-3.84,2.79-7.63,5.64-11.57,8.57,2.23,2.68,4.16,5,6.27,7.54Zm-6.94-8.43c37-26.86,73.81-53.58,111.32-80.8-7.03-2.3-13.2-4.4-19.44-6.27-.84-.25-2.22,.37-3.02,1.01-5.04,4.01-9.99,8.13-14.95,12.23-22.29,18.42-44.58,36.84-66.87,55.27-4.55,3.76-9.07,7.57-13.72,11.44,2.35,2.51,4.34,4.63,6.67,7.12Zm13.17,17.13c.5-.1,.63-.1,.73-.16,33.06-18.13,66.12-36.27,99.15-54.44,.76-.42,1.82-1.25,1.83-1.91,.14-6.35,.08-12.7,.08-19.48-36.02,22.84-71.67,45.43-107.47,68.13,2.08,2.88,3.84,5.33,5.67,7.86Zm-20.48-25.14c32.28-26.67,64.23-53.07,96.79-79.97-6.15-1.7-11.46-3.04-16.69-4.67-2.31-.72-3.85-.31-5.62,1.35-21.3,20.07-42.68,40.06-64.03,60.08-5.78,5.42-11.54,10.88-17.49,16.49,2.45,2.34,4.61,4.4,7.04,6.72ZM55.83,65.01c31.91,26.36,62.98,52.02,94.11,77.74,2.61-2.49,4.86-4.65,7.36-7.03-1.08-.95-1.97-1.7-2.83-2.5-9.65-9.04-19.3-18.08-28.95-27.13-15.88-14.89-31.76-29.79-47.67-44.64-.78-.73-2.08-1.66-2.89-1.46-6.1,1.45-12.14,3.15-19.13,5.03Zm71.53,104.18c-33.3-18.28-66.22-36.35-99.02-54.35,0,6.15-.12,11.76,.11,17.36,.04,1.02,1.31,2.4,2.36,2.89,24.93,11.85,49.91,23.61,74.89,35.37,5.25,2.47,10.55,4.86,15.9,7.32,1.95-2.91,3.7-5.52,5.76-8.59Zm316.76,11.12c1.15-.48,1.8-.73,2.43-1.03,28.69-13.47,57.29-27.11,86.12-40.26,5.32-2.43,7.45-5.31,6.82-10.95-.41-3.6-.08-7.28-.08-11.37-33.77,18.55-67.11,36.87-100.6,55.28,1.96,3.07,3.57,5.61,5.31,8.34Zm-135.47-2.13c1.43-1.91,2.75-3.67,4.19-5.6,3.43,6.24,6.63,12.05,10.02,18.22,10.57-11.32,17.86-23.82,19.01-39.56,.65-8.84-.38-17.32-3.33-25.55-1.4-3.91-2.64-8.1-6.4-11.55-1.85,7.29-3.52,13.89-5.29,20.86-2.24-2.01-4.12-3.7-6.09-5.47-7.3,6.54-14.4,12.89-21.56,19.31,6.4,4.6,11.09,5.52,18.78,3.74v-7.2c6.88,3.76,13.34,7.29,20.28,11.09-6.84,4.16-13.09,7.95-19.65,11.94-.16-2.59-.29-4.73-.4-6.5h-19.56c3.49,5.68,6.6,10.74,10,16.28Zm101.12-39.84c27.74-26.02,55.39-51.96,83.63-78.45-5.75-1.34-10.59-2.22-15.26-3.64-2.81-.85-4.48-.12-6.38,1.91-19.77,21.13-39.62,42.17-59.44,63.25-3.26,3.47-6.48,6.99-9.87,10.64,2.52,2.16,4.8,4.12,7.32,6.29Zm-244.28-9.43c-.29-.47-.43-.81-.66-1.06-22.38-23.83-44.76-47.66-67.18-71.46-.59-.63-1.62-1.48-2.26-1.34-5.88,1.23-11.71,2.65-18.3,4.18,27.42,25.72,54.13,50.77,80.97,75.95,2.66-2.24,5.05-4.25,7.44-6.27Zm-44.48,49.8c-30.93-14.53-61.38-28.84-92.5-43.47,.33,5.67,.7,10.64,.87,15.61,.08,2.36,1.2,3.38,3.32,4.21,20.17,7.87,40.29,15.85,60.43,23.8,7.48,2.95,14.96,5.9,22.6,8.92,1.78-3.06,3.41-5.85,5.28-9.07Zm323.77,2.55c1.35,2.49,2.61,4.59,3.66,6.79,.86,1.82,1.9,1.88,3.64,1.16,8.99-3.67,18.02-7.22,27.05-10.8,18.6-7.36,37.21-14.7,55.8-22.1,1.1-.44,2.78-1.28,2.86-2.08,.58-5.5,.81-11.03,1.2-17.25-31.87,14.98-62.95,29.59-94.21,44.28ZM97.24,54.42c23.39,24.88,46.3,49.24,69.36,73.78,2.75-2.05,5.24-3.89,7.63-5.67-.21-.6-.23-.86-.37-1.03-19.1-23.11-38.2-46.22-57.35-69.28-.57-.68-1.81-1.35-2.59-1.21-5.37,.97-10.7,2.16-16.69,3.42Zm222.47,138.61c-.11-.35-.23-.71-.34-1.06-2.76,.74-5.53,1.47-8.24,2.2,.2-.38,.52-.98,.9-1.71-3.83-.3-7.4-.58-11.39-.89,1.31-2.26,2.41-4.16,3.47-5.99-2.71,1.35-5.09,3.28-7.71,3.68-4.16,.64-5.72-1.02-6.02-4.52-1.02,0-2.4,.42-2.94-.07-3.32-3.05-6.7-1.56-10.17-.54-2.53,.74-5.11,1.39-7.72,1.77-.52,.08-1.44-1.1-1.84-1.87-1.05-2.03-1.91-4.15-2.97-6.5-7.41,5.74-14.41,11.16-21.45,16.62,21.26,18.74,57.74,17.12,76.43-1.1Zm134.78,7.13c3.6-1.19,6.8-2.25,10.02-3.29,22.93-7.42,45.87-14.82,68.78-22.32,1.18-.39,2.89-1.43,3.01-2.36,.69-5.03,.97-10.12,1.44-15.85-29.52,11.67-58.4,23.08-87.59,34.62,1.52,3.23,2.85,6.04,4.34,9.2Zm-339.15-11.45c-28.65-11.32-56.86-22.47-85.73-33.88,.51,5.28,1.16,9.79,1.31,14.31,.09,2.58,1.1,3.63,3.44,4.38,16.16,5.13,32.27,10.39,48.4,15.62,9.2,2.99,18.4,6,27.72,9.04,1.64-3.2,3.11-6.07,4.85-9.46Zm68.39-72.37c-5.24-7.2-10.2-14.01-15.15-20.82-11.01-15.15-21.99-30.32-33.07-45.42-.86-1.17-2.52-2.69-3.63-2.55-4.96,.6-9.84,1.74-15.51,2.83,19.93,24.07,39.44,47.62,59.03,71.27,2.84-1.81,5.38-3.43,8.33-5.31Zm271.41,84.66c.39,1.09,.64,1.85,.92,2.6,2.72,7.04,2.71,7,9.86,5.15,21.85-5.63,43.71-11.21,65.55-16.89,1.08-.28,2.71-1.13,2.84-1.92,.79-4.81,1.22-9.67,1.85-15.23-27.45,8.9-54.17,17.57-81.04,26.29ZM31.4,173.52c.48,5.03,.99,9.32,1.25,13.62,.14,2.39,1.17,3.39,3.48,3.96,14.63,3.63,29.22,7.42,43.83,11.15,8.58,2.19,17.17,4.38,25.97,6.62,1.4-3.27,2.71-6.33,4.18-9.77-26.26-8.53-52.22-16.97-78.7-25.57Zm161.4-62.36c-.2-.68-.23-1.05-.4-1.33-13.56-21.36-27.11-42.72-40.74-64.04-.44-.69-1.69-1.38-2.46-1.27-4.69,.65-9.35,1.53-14.67,2.44,16.97,23.33,33.52,46.09,50.09,68.87,2.93-1.67,5.46-3.12,8.18-4.67Zm182.5,2.17c14.55-22.87,28.97-45.56,43.75-68.79-4.43-.75-8.33-1.32-12.19-2.1-2.45-.5-3.72,.32-4.92,2.55-7.79,14.43-15.76,28.76-23.66,43.13-3.76,6.84-7.48,13.69-11.29,20.67,2.9,1.59,5.43,2.97,8.31,4.54Zm83.99,98.12c.98,3.03,1.64,5.65,2.74,8.07,.33,.73,1.98,1.42,2.86,1.26,21.6-4,43.19-8.09,64.76-12.26,.96-.19,2.41-1.08,2.54-1.84,.8-4.57,1.29-9.2,1.96-14.38-25.2,6.45-49.82,12.75-74.87,19.15ZM202.77,106.15c-2.92-5.32-5.55-10.14-8.19-14.94-8.64-15.68-17.26-31.36-25.97-46.99-.58-1.04-1.96-2.44-2.85-2.36-4.51,.42-8.98,1.28-14,2.07,14.27,22.46,28.24,44.43,42.31,66.58,2.97-1.49,5.64-2.83,8.7-4.37ZM33.24,191.31c.64,4.77,1.35,8.89,1.7,13.03,.21,2.5,1.52,3.25,3.71,3.66,14.47,2.7,28.91,5.5,43.37,8.25,6.62,1.26,13.25,2.46,20.03,3.72,1.21-3.47,2.31-6.62,3.53-10.12-24.12-6.18-47.92-12.28-72.34-18.53Zm194.07-12.33c-5.99,5.65-12.14,10.9-17.61,16.78-4.35,4.68-8,10.03-11.63,15.31-.76,1.11-.69,3.76,.14,4.72,.82,.94,3.38,1.33,4.65,.77,5.11-2.26,10.28-4.58,14.97-7.59,23.41-14.99,45.06-32.35,66.27-50.26,12.42-10.49,24.56-21.31,36.91-32.05,1.33,1.2,2.77,2.49,4.66,4.19,1.35-5.27,2.54-9.92,3.89-15.2-5.39,1.57-10,2.91-15,4.37,1.29,1.46,2.2,2.48,3.47,3.92-.89,.67-1.68,1.17-2.37,1.79-8.15,7.22-16.18,14.58-24.43,21.67-23.46,20.15-47.38,39.71-73.24,56.75-5.01,3.3-10.37,6.07-15.57,9.08l-.75-1.02c7.49-11.75,17.92-20.98,27.62-31.08-.91-.99-1.66-1.81-1.96-2.14ZM402.58,41.91c-4.43-.67-8.34-1.12-12.18-1.91-2.04-.42-2.84,.22-3.67,2.02-6.35,13.67-12.83,27.28-19.26,40.92-3.32,7.04-6.64,14.1-10.07,21.38,3.01,1.4,5.7,2.66,8.61,4.02,12.2-22.16,24.24-44.02,36.58-66.43Zm63.1,190.37c13.25-1.66,26.11-3.28,38.97-4.89,6.84-.85,13.69-1.61,20.52-2.59,1.55-.22,4.05-.94,4.3-1.9,1.14-4.33,1.62-8.83,2.44-13.83-23.32,4.45-45.97,8.77-68.97,13.16,.94,3.42,1.79,6.53,2.76,10.05ZM35.63,208.36c.68,4.49,1.42,8.27,1.78,12.08,.25,2.56,1.19,3.59,3.86,3.84,6.52,.59,13,1.56,19.5,2.38,11.73,1.49,23.46,3.04,35.2,4.41,1.05,.12,2.92-.62,3.24-1.43,1.06-2.67,1.58-5.55,2.4-8.67-21.91-4.19-43.6-8.33-65.97-12.61Zm432.39,35.13c10.55-.62,20.59-1.19,30.63-1.8,8.41-.51,16.81-1.04,25.21-1.67,.99-.07,2.61-.7,2.77-1.36,1.04-4.25,1.75-8.57,2.67-13.42-21.49,2.72-42.3,5.35-63.37,8.01,.74,3.62,1.38,6.79,2.09,10.25ZM38.22,224.79c.88,4.79,1.49,8.83,2.45,12.79,.21,.87,1.6,2.01,2.51,2.07,16.93,1.2,33.88,2.27,50.82,3.27,.8,.05,2.21-.62,2.38-1.23,.85-2.97,1.37-6.03,2.06-9.34-20.16-2.53-39.85-5.01-60.23-7.57Zm197.76-35.51c12.02-9.42,22.98-18.01,33.94-26.6-.14-.25-.28-.51-.42-.76-15.92-.4-31.84-.8-48.21-1.22,2,6.72,3.44,13,8.49,17.59,.85,.78,1.72,1.65,2.25,2.65,1.31,2.5,2.43,5.1,3.94,8.33Zm7.19-96.66c-.71-2.79-1.39-5.47-2.08-8.16-4.07-15.95-8.11-31.91-12.27-47.84-.27-1.02-1.38-2.64-2.04-2.61-4.01,.17-8,.74-12.28,1.21,.58,1.83,.96,3.04,1.35,4.25,5.15,15.88,10.32,31.75,15.44,47.64,2.71,8.41,2.67,8.43,11.86,5.52Zm74.17-.59c1.34,.29,2.24,.5,3.14,.69,5.36,1.11,6.31,.56,7.66-4.64,2.8-10.76,5.59-21.52,8.34-32.29,1.82-7.11,3.56-14.23,5.45-21.8-3.75-.45-7.1-.74-10.41-1.28-2.31-.38-3.11,.56-3.45,2.7-.73,4.5-1.67,8.96-2.52,13.44-2.71,14.24-5.42,28.49-8.21,43.18Zm-74.96-59.87c-4.73,.5-8.85,.93-13.29,1.4,5.1,19.95,10.08,39.4,15.09,58.99,1.25-.22,2.16-.37,3.05-.53,6.06-1.08,6.35-1.54,5.21-7.5-1.97-10.35-3.89-20.71-5.87-31.06-1.34-6.99-2.75-13.97-4.2-21.31Zm283.97,208.67c-19.64,1.25-38.73,2.46-58.06,3.69,.45,3.16,.66,5.96,1.34,8.64,.21,.82,1.69,1.86,2.6,1.87,16.29,.11,32.58,.11,48.86,0,.91,0,2.37-1.12,2.61-1.98,1.02-3.7,1.67-7.5,2.65-12.21Zm-255.15-81.36c-3.03-5.47-8.17-3.77-12.43-4.01-25.36-1.46-50.75-2.55-76.11-4.09-6.43-.39-12.79-1.98-19.18-3.02,.03-.32,.05-.64,.08-.97,17.51-4.39,35.57-4.68,53.63-6.32-.09-1.38-.16-2.37-.23-3.52-1.14-.06-2.07-.2-2.97-.14-8.53,.56-17.11,.79-25.59,1.85-8.56,1.07-17.06,2.8-25.5,4.64-1.62,.35-2.83,2.56-4.23,3.91,1.45,1.34,2.69,3.31,4.4,3.89,3.85,1.32,7.88,2.27,11.92,2.83,24.65,3.4,49.47,4.35,74.3,4.92,7.21,.17,14.43,.03,21.92,.03Zm45.13-67.58c3.79-19.83,7.56-39.5,11.38-59.45-3.83-.4-7.21-.67-10.56-1.13-2.11-.29-2.86,.44-3.11,2.57-2.05,16.96-4.23,33.91-6.33,50.86-.63,5.11-.18,5.62,5.08,6.56,1.02,.18,2.04,.34,3.55,.59ZM168.3,41.33c11.96,21.73,23.65,42.97,35.45,64.42,2.23-1.02,4.14-1.89,6.38-2.92-1.2-1.39-2.06-2.33-2.86-3.32-3.36-4.19-7.02-8.19-9.96-12.66-3.84-5.83-3.15-8.2,2.53-12.19-5.27-11.16-10.53-22.36-15.92-33.51-.37-.77-1.74-1.61-2.57-1.53-4.15,.38-8.28,1.05-13.06,1.71ZM41.26,240.63c.95,4.67,1.72,8.89,2.75,13.04,.16,.64,1.54,1.38,2.36,1.39,15.24,.08,30.49,.08,45.74,0,.83,0,2.25-.72,2.39-1.33,.68-3.05,1.02-6.17,1.55-9.66-18.3-1.15-36.24-2.27-54.77-3.43ZM356.41,103.98c10.15-21.54,20.14-42.74,30.32-64.34-2.7-.44-4.98-.83-7.26-1.19q-6.88-1.11-9.39,5.28c-.51,1.31-1.07,2.59-1.59,3.9-3.55,9-7.08,18-10.61,26.95,5.94,3.31,6.63,5.89,3.32,11.71-.63,1.11-1.36,2.18-2.15,3.19-3.01,3.82-6.07,7.61-9.39,11.75,2.3,.94,4.3,1.75,6.73,2.74ZM243.44,32.1c3.68,19.28,7.27,38.07,10.89,57.07,2.48-.93,4.51-1.9,6.64-2.42,2.45-.6,2.65-1.96,2.36-4.15-1.68-12.65-3.22-25.33-4.83-37.99-.57-4.48-1.21-8.96-1.86-13.73-4.52,.42-8.66,.8-13.2,1.21Zm-43.74,4.97c.53,1.47,.88,2.55,1.3,3.61,4.82,12.19,10.15,24.21,14.32,36.62,2.75,8.19,10.36,9.44,15.89,14.66,.06-1.24,.14-1.49,.07-1.69-5.72-17.69-11.44-35.39-17.25-53.05-.24-.74-1.46-1.72-2.14-1.66-3.93,.33-7.84,.94-12.18,1.52Zm100.55-7.05c-1.15,18.67-2.28,36.99-3.41,55.38,3.2,1.08,6.11,2.07,9.37,3.18,2.45-19.39,4.84-38.25,7.28-57.5-4.57-.37-8.72-.7-13.24-1.07Zm-13.6-1.07c-.28,.68-.53,1-.53,1.31-.04,17.12-.08,34.24-.04,51.36,0,.72,.72,1.94,1.29,2.07,2.67,.58,5.41,.87,8.46,1.3,1.19-18.64,2.34-36.78,3.5-55.06-4.65-.36-8.71-.68-12.68-.99Zm236.46,227.18h-53.17c.36,3.63,.7,7.03,1.06,10.58,15.87,.98,31.3,1.96,46.73,2.83,.79,.04,2.17-.68,2.36-1.31,1.13-3.89,2-7.85,3.03-12.09ZM275.21,83.25h9.71V28.79c-4.46,.26-8.6,.5-13.05,.76,1.14,18.25,2.24,36.03,3.34,53.7Zm53.3,7.3c4.67-3.06,8.5-5.48,12.21-8.08,.76-.53,1.19-1.71,1.51-2.67,4.49-13.65,8.94-27.31,13.38-40.98,.31-.95,.47-1.94,.76-3.19-4.59-.56-8.83-1.07-13.29-1.61-4.81,18.66-9.54,37.04-14.57,56.54Zm-63.92-5.15c2.46-.46,4.29-1.04,6.12-1.07,3.01-.05,3.63-1.43,3.43-4.2-.87-12.5-1.55-25-2.34-37.51-.27-4.19-.67-8.36-1.04-12.97-4.49,.44-8.68,.84-13.08,1.27,2.34,18.43,4.6,36.26,6.91,54.48Zm-26.71,13.35c-8.06-5.26-15.8-10.48-23.72-15.4-3.35-2.08-7-3.8-10.71-5.12-1.57-.56-4.66-.3-5.27,.69-.83,1.36-.54,4.08,.32,5.64,1.79,3.25,4.07,6.29,6.5,9.11,14.42,16.7,30.79,31.42,47.25,46.03,7.24,6.42,14.65,12.65,22.12,19.08,1.13-.99,1.98-1.73,3.03-2.65-1.08-.95-1.92-1.73-2.8-2.47-22.22-18.88-44.24-37.99-63.91-59.61-3.44-3.78-6.44-7.95-9.64-11.94,.39-.44,.78-.87,1.17-1.31,11.05,6.94,22.1,13.89,33.36,20.97,.59-.78,1.26-1.66,2.3-3.03ZM44.53,256.19c.94,3.95,1.95,7.52,2.59,11.15,.41,2.34,1.56,2.67,3.64,2.51,7.11-.55,14.24-.91,21.36-1.37,6.98-.45,13.95-.94,21.23-1.43,.29-3.73,.55-7.16,.84-10.86H44.53Zm426.51,11.42c0,2.87,.14,5.3-.04,7.71-.18,2.45,.96,3.23,3.19,3.5,13.11,1.62,26.21,3.35,39.33,4.95,.85,.1,2.43-.34,2.6-.88,1.26-3.92,2.26-7.93,3.41-12.19-16.54-1.06-32.36-2.07-48.5-3.1ZM215.9,81.07c-5.86-14.8-11.57-29.22-17.39-43.92-4.71,.62-9.28,1.22-13.92,1.83,.14,.77,.13,1.14,.27,1.44,5.22,11.12,10.44,22.23,15.71,33.32,.33,.69,.91,1.47,1.57,1.75,4.38,1.86,8.81,3.59,13.77,5.58Zm-122.72,186.98c-15.22,.98-29.98,1.92-45.21,2.9,1.38,4.9,2.57,9.11,3.79,13.45,3.53-.4,6.66-.74,9.79-1.12,9.64-1.19,19.28-2.35,28.89-3.7,1-.14,2.5-1.41,2.61-2.3,.33-2.86,.12-5.79,.12-9.23ZM371.46,37.4c-4.05-.49-7.43-.73-10.75-1.34-2.52-.47-3.46,.48-4.19,2.78-3.89,12.25-7.95,24.45-11.92,36.68-.52,1.59-.85,3.25-1.29,4.99,4.51-1.88,9.62-2.68,12.59-5.63,2.98-2.97,3.82-8.08,5.61-12.25,.09-.22,.21-.42,.3-.64,3.15-8.02,6.3-16.04,9.66-24.59Zm144.26,247.6c-15.11-1.88-29.65-3.7-44.54-5.55v10.67c.41,.14,.83,.35,1.27,.44,12.49,2.44,24.97,4.9,37.49,7.2,.73,.13,2.2-.79,2.46-1.52,1.22-3.5,2.14-7.1,3.33-11.24Zm-459.79,13.78c12.87-2.47,25.12-4.83,37.18-7.14v-11.35c-13.86,1.75-27.25,3.43-41.12,5.18,1.37,4.63,2.62,8.82,3.95,13.32Zm451.59,13.11c1.4-4.55,2.65-8.59,3.97-12.87-13.78-2.62-27.04-5.13-40.41-7.67-.26,.93-.45,1.46-.56,2.01q-1.62,8.65,6.8,10.79c9.93,2.54,19.86,5.09,30.2,7.73Zm-414.24-19.23c-12.22,2.32-24.47,4.64-37.06,7.03,1.47,4.59,2.77,8.66,4.18,13.04,8.57-2.2,16.91-4.28,25.22-6.48,9.44-2.5,9.43-2.54,8.24-12.16-.04-.32-.25-.63-.58-1.43Zm374.47,21.39c11.26,3.67,22.23,7.28,33.24,10.75,.61,.19,2.05-.56,2.29-1.18,1.34-3.43,2.43-6.97,3.72-10.8-12.66-3.26-24.93-6.41-37.54-9.66-.61,3.87-1.14,7.29-1.71,10.89Zm-72.2-166.36c-17.15,4.72-34.79,5.36-52.66,6.82,.09,1.38,.16,2.55,.24,3.96,5.82-.38,11.22-.46,16.55-1.14,11.47-1.46,22.92-3.11,34.34-4.96,2.62-.42,6.27-1.06,6.33-4.51,.06-3.66-3.62-4.15-6.39-4.87-15.41-3.99-31.26-4.34-47.01-5.52-3.13-.24-2.64,1.67-2.2,3.83,17.08,1.47,34.19,1.95,50.81,6.39Zm72.05,167.4c-.74,2.98-1.27,5.6-2.06,8.14-.62,2,0,2.95,1.89,3.67,6.89,2.61,13.73,5.35,20.58,8.04,3.11,1.22,6.22,2.44,9.58,3.76,1.62-4.25,3.1-8.14,4.7-12.34-11.6-3.77-22.9-7.44-34.69-11.27Zm-372.68-10.18c-11.49,2.96-22.62,5.83-34.1,8.78,1.59,4.46,3.04,8.54,4.55,12.78,10.8-3.53,21.07-6.89,31.52-10.3-.68-3.88-1.29-7.39-1.97-11.26Zm402.26,34.79c-11.05-4.36-21.56-8.51-32.39-12.77-1.03,3.3-2.06,6.15-2.72,9.08-.16,.72,.71,2.12,1.47,2.52,3.2,1.7,6.54,3.14,9.82,4.67,6.12,2.86,12.23,5.72,18.69,8.74,1.75-4.18,3.36-8.02,5.12-12.24Zm-400.14-22.5c-10.62,3.46-20.86,6.81-31.36,10.23,1.73,4.43,3.26,8.37,4.89,12.55,9.46-3.76,18.47-7.28,27.4-10.96,.72-.3,1.52-1.76,1.38-2.53-.53-2.96-1.42-5.85-2.31-9.29Zm6.6,23.21c-1.26-3.83-2.4-7.31-3.61-11.01-9.89,3.92-19.41,7.7-29.13,11.55,1.85,4.39,3.5,8.3,5.25,12.44,9.42-4.45,18.37-8.67,27.49-12.98Zm218.12-143.74c10.44,6.26,20.58,12.47,30.85,18.43,2.45,1.42,5.67,2.98,7.99,.06,2.32-2.92-.09-5.71-1.83-7.86-5.07-6.26-10.43-12.3-15.76-18.35-2.75-3.12-5.67-6.09-8.72-9.36-1.36,1.52-2.08,2.33-2.87,3.21,9.15,9.58,18.77,18.32,26.22,30.06-12.67-5.11-22.63-13.08-33.26-19.99-.58,.64-1,1.04-1.35,1.5-.27,.36-.46,.79-1.29,2.28Zm3.29-96.18c10.33-6.81,19.89-14.46,31.26-19,.33,.35,.66,.7,.98,1.05-8.35,9.38-16.71,18.75-24.86,27.91,.58,.96,1.17,1.94,1.91,3.18,3.28-3.35,6.22-6.03,8.79-9.04,5.61-6.56,11.19-13.17,16.4-20.05,1.05-1.39,1.2-4.54,.31-5.94-.65-1.02-4.02-1.22-5.66-.54-11.42,4.71-21.19,12.15-31.46,19.3,.9,1.22,1.56,2.11,2.32,3.14Zm166.44,252.34c-10.14-4.76-20.09-9.43-30.27-14.21-.7,1.95-1.23,3.43-1.86,5.17,2.25,.12,4.04,.21,6.04,.31,0,2.26,.17,4.14-.04,5.97-.3,2.56,.85,3.85,2.9,5.3,4.87,3.44,10.24,3.32,15.74,3.22,5.46-.1,5.47-.02,7.49-5.76Zm-402.46,9.94c3.71-2.01,7.04-3.68,10.19-5.63,.73-.45,1.16-1.87,1.21-2.87,.15-3.33,.06-6.67,.06-10.15,1.62-.12,2.85-.21,4.08-.3,.07-.37,.15-.73,.22-1.1-.76-.2-1.69-.79-2.24-.54-8.59,3.93-17.14,7.96-25.64,11.95,.36,3.4,1.85,4.84,5.11,4.47,2.18-.25,4.4-.05,6.64-.05,.12,1.39,.22,2.43,.37,4.2Zm85.03-215.93c0,.6,0,1.2,.01,1.8,14.6,1.24,29.19,2.48,43.81,3.72v-9.32c-14.85,1.29-29.33,2.55-43.82,3.8Zm130.24,43.09h15.29c-2.34-4.48-4.54-8.71-6.96-13.34-1.34,1.93-2.26,3.24-3.43,4.93-7.62-6.06-15.16-11.92-22.51-18-2.27-1.88-3.72-1.87-5.35,1.02,8.51,6.77,17.06,13.57,25.64,20.39-.83,1.55-1.58,2.96-2.67,5Zm16.24-25.2c4.66-2.87,8.74-5.38,13.39-8.25-4.95-2.65-9.16-4.91-13.9-7.45v6.62c-8.91,0-17.54,0-26.17,0-3.43,0-4.32,.58-6.19,3.95h32.47c.13,1.65,.24,3.04,.41,5.12Zm23.19-21.57v9.29c13.97-1.29,27.69-2.56,41.41-3.82,0-.59,0-1.17-.01-1.76-13.65-1.22-27.3-2.45-41.4-3.71Zm-113.86,40.15c-7.46,7.9-14.69,15.57-21.93,23.24,.34,.36,.67,.72,1,1.08,8.71-5.93,17.43-11.85,26.33-17.91-2.01-2.38-3.5-4.15-5.41-6.41Zm95.37,7.62c8.41,5.55,16.44,10.85,24.48,16.16,.28-.37,.57-.73,.85-1.1-6.63-6.98-13.26-13.96-20.03-21.09-1.88,2.14-3.33,3.78-5.3,6.02Zm140.16,163.96c0,3.37,0,6.02,0,8.67,0,5.78,1.76,7.94,7.83,9.39,0-3.54,0-7.04,0-10.53,0-.58,.14-1.22-.04-1.74-.29-.81-.6-1.83-1.24-2.24-1.83-1.19-3.84-2.11-6.54-3.55Zm-365.05,3.48c-7.11,1.91-11.66,5.55-11.02,8.81h11.02v-8.81ZM221.93,101.34c2.51,2.77,5.03,5.55,7.66,8.45,1.51-1.89,2.95-3.68,4.38-5.46-5.74-5.45-6.72-5.66-12.04-2.99Zm104.4,1.54c1.58,1.81,3,3.43,3.92,4.49,2.84-2.51,5.48-4.83,8.16-7.2-5.65-2.73-6.42-2.56-12.08,2.71Zm-118.15-14.81c2.88,3.18,5.84,6.29,8.61,9.57,1.82,2.16,3.57,2.16,5.59,.52-.86-3.16-8.33-8.82-14.2-10.09ZM472.85,378.42c.49-3.64-1.98-6.13-7.28-7.51v7.51h7.28ZM349.92,87.96c-.24-.24-.48-.48-.72-.72-1.96,1.2-3.93,2.38-5.88,3.6-1.39,.86-3.03,1.52-4.03,2.71-.74,.87-.63,2.45-.9,3.72,1.23-.17,2.88,.1,3.6-.6,2.81-2.74,5.32-5.78,7.94-8.71Zm-59.98,74.25l-.19,1.17c1.74,1.37,3.49,2.74,5.98,4.7,.44-2.52,.74-4.24,1.13-6.46-2.82,.24-4.87,.41-6.92,.58Z"/>
      <path d="M81.81,450.51c131.6-55.29,262.72-55.26,394.38-.02-9.88,21.37-19.54,42.25-29.3,63.35-111.88-46.92-223.67-46.94-335.74,0-9.67-20.87-19.34-41.75-29.33-63.33Zm320.6,35.68c.65-17.5,1.29-34.34,1.82-51.18,.02-.73-.9-1.96-1.58-2.13-.89-.22-2.34,.07-2.91,.71-1.31,1.47-2.26,3.26-3.3,4.96-5.28,8.67-10.55,17.36-16.14,26.56-.27-1.95-.43-3.31-.64-4.67-1.56-10.42-3.05-20.86-4.78-31.25-.18-1.11-1.55-2.42-2.65-2.81-.57-.2-2.21,1.26-2.63,2.28-2.89,6.91-5.67,13.86-8.33,20.86-3.2,8.4-6.25,16.86-9.36,25.29,6.74,2.39,6.73,2.33,9.02-3.8,3.05-8.16,6.24-16.26,9.6-24.98,.32,1.03,.46,1.32,.51,1.63,1.57,10.18,3.11,20.36,4.75,30.53,.14,.87,.95,1.63,1.44,2.44,.66-.56,1.51-1,1.95-1.7,2.89-4.54,5.66-9.17,8.55-13.71,2.81-4.41,5.73-8.76,9.1-13.9-.57,11.67-1.08,22.27-1.59,32.88,2.36,.66,4.36,1.22,7.17,2Zm-130.01-67.99v52.01c7-.41,13.34-.29,19.51-1.26,9.16-1.44,15.14-7.17,17.68-16.03,1.11-3.89,1.67-8.05,1.73-12.1,.19-12.25-7.73-21.32-19.97-22.52-6.35-.62-12.8-.11-18.95-.11Zm54.95,28.98c6.24,.68,12.01,1.3,18.13,1.97,.23-2.14,.43-4.04,.67-6.2-6.16-.79-12.01-1.55-18.06-2.33,.42-4.7,.8-8.98,1.21-13.63,8.89,1.07,17.52,2.1,26.33,3.16,.31-2.31,.57-4.24,.85-6.32-1.2-.27-2.09-.56-3-.67-9.29-1.09-18.61-2.02-27.88-3.31-3.29-.46-4.27,.51-4.49,3.68-1.06,15.06-2.32,30.1-3.48,45.15-.06,.77,.13,1.56,.21,2.41,10.27,1.15,20.34,2.27,30.73,3.44,.31-2.14,.6-4.15,.95-6.55-8.16-1.02-15.89-1.99-23.81-2.99,.54-5.89,1.06-11.57,1.64-17.82Zm-146.04,34.08c-.5-.96-.67-1.4-.93-1.77-10.27-14.11-20.53-28.23-30.86-42.29-.52-.71-1.65-.97-2.49-1.44-.57,1.06-1.51,2.07-1.65,3.18-1.78,13.81-3.48,27.64-5.1,41.47-.47,4-.59,8.04-.88,12.18q7.64-1.3,8.24-8.03c.09-1.05,.39-2.11,.31-3.14-.15-2.04,.86-2.89,2.7-3.37,3.85-1,7.76-1.89,11.45-3.32,3.91-1.51,6.26-.51,7.94,3.21,.8,1.78,2.1,3.33,3.25,5.1,2.62-.58,5.1-1.12,8.03-1.77Zm86-11.55c-.23-.79-.34-1.47-.62-2.08-7.09-15.28-14.17-30.56-21.34-45.81-.53-1.12-1.72-1.92-2.61-2.87-.79,1.04-1.93,1.96-2.32,3.13-3.71,11.09-7.36,22.2-10.89,33.34-1.82,5.76-3.36,11.61-5.04,17.48,7.17,.9,8.15,.23,9.62-6.2,.21-.91,.52-1.8,.67-2.71,.31-1.87,1.21-2.73,3.25-2.82,3.97-.18,7.97-.42,11.89-1.09,3.88-.67,5.84,.45,7.15,4.34,2.22,6.59,2.51,6.49,9.48,5.59,.11-.01,.22-.08,.77-.31Zm-51.03-5.83c-6.64,8.72-19.01,9.01-25.17,.47-4.55-6.32-6-13.47-4.56-20.98,1.46-7.6,5.7-11.43,13.27-12.37,3.64-.45,7.37-.08,11.42-.08,.49-1.79,1.04-3.76,1.81-6.58-4.21-.18-8.01-.66-11.77-.43-8.92,.55-16.28,4.01-20.75,12.24-6.91,12.7-1.38,31.95,11.23,39.07,9.02,5.1,24.08,1.57,29.12-6.84-1.47-1.44-2.95-2.88-4.6-4.49Zm209.84,29.45c1.41-4.17,3.02-7.85,3.87-11.7,1.61-7.37,5.37-12.95,11.8-16.96,3.56-2.22,6.77-5.03,10.14-7.56,2.65-2,5.31-3.99,8.19-6.15-4.62-2.74-8.3-3.84-12.56,.2-4.81,4.57-10.37,8.35-15.88,12.7-1.86-6.74-3.62-13.26-5.47-19.75-1.74-6.12-2.91-6.96-9.72-7.21,2.03,6.77,3.76,13.56,6.12,20.11,2.76,7.66,3.56,15-.13,22.64-1.69,3.49-2.37,7.47-3.56,11.41,2.5,.79,4.59,1.45,7.2,2.27Zm-292.19,1.45c-4.21-12.15-8.28-23.88-12.45-35.91-4.5,1.67-8.56,3.18-12.8,4.75,.83,2.11,1.46,3.7,2.14,5.42,1.87-.56,3.48-1.04,5.3-1.58,1.93,5.2,3.77,10.11,5.58,15.02,1.8,4.88,3.57,9.76,5.4,14.77,2.44-.88,4.39-1.59,6.83-2.47Zm-18.22-48.38c-3.08-.04-5.68,2.23-5.77,4.62-.09,2.31,2.03,4.24,4.63,4.21,2.63-.03,5.31-2.39,5.11-4.79-.21-2.59-1.95-3.81-3.97-4.04Z"/>
      <path d="M405.17,524.92c-1.29,1.37-2.45,2.65-3.66,3.89-17.5,17.8-35.65,34.94-55.42,50.15-18.91,14.55-38.6,28.08-57.88,42.14-2.67,1.95-4.68,1.92-7.5,.08-31.52-20.61-61.38-43.38-89.08-68.91-9.98-9.2-19.56-18.84-29.59-28.54-22.39,15.7-44.94,31.51-68.23,47.85-.44-6.34-.87-11.76-1.16-17.2-.32-5.84-.56-11.68-.74-17.53-.07-2.27-1.03-3.53-3.17-4.42-10.37-4.29-20.68-8.72-31.66-13.38,12.8-9.02,25.25-17.79,38.11-26.85,4.48,9.6,8.85,18.98,13.32,28.57,7.49-3,14.69-6.01,21.98-8.78,6.55-2.49,13.24-4.64,19.79-7.14,1.95-.74,2.91-.13,4.14,1.25,23.27,26.16,48.6,50.17,76.28,71.58,16.39,12.68,33.55,24.35,50.32,36.53,1.98,1.44,3.45,1.48,5.58,.06,32.16-21.38,62.77-44.75,90.69-71.48,11.34-10.85,22.19-22.21,33.05-33.55,1.98-2.07,3.49-2.47,6-1.47,10.09,4.06,20.24,7.99,30.36,11.97,.75,.3,1.5,.62,2.75,1.13,2.3-4.89,4.57-9.69,6.82-14.52,2.37-5.1,4.73-10.19,7.03-15.32,.86-1.93,1.81-2.41,3.71-1.07,13.58,9.58,27.21,19.09,41.36,29.01-5.19,2.22-9.91,4.27-14.65,6.28-5.82,2.46-11.7,4.78-17.42,7.43-1.14,.53-2.33,2.26-2.42,3.51-.73,10.61-1.2,21.24-1.8,31.86-.05,.86-.46,1.7-.89,3.18-22.21-15.6-44-30.9-66.01-46.36Z"/>
      <path d="M464.82,440.04c8.75-15.34,17.62-30.36,25.97-45.66,11.85-21.72,21.59-44.42,30.13-67.63,12.34-33.57,21.87-67.96,27.79-103.22,3.74-22.27,6.51-44.72,8.98-67.17,3.59-32.53,3.96-65.23,4.16-97.92,.02-2.68-.85-3.87-3.34-4.77-27.6-9.89-55.86-17.42-84.59-23.06-24.91-4.89-49.94-9.23-75.01-13.17-17.8-2.79-35.75-4.76-53.67-6.65-19.33-2.04-38.7-3.88-58.09-5.14-8.12-.53-16.39,.3-24.52,1.12-25.86,2.62-51.73,5.17-77.52,8.42-35.77,4.51-71.29,10.56-106.45,18.65-23.62,5.44-46.97,11.74-69.8,19.92-2.42,.87-3.23,2.02-3.13,4.53,1.27,31.61,1.55,63.29,3.86,94.82,3.68,50.1,12.98,99.26,28.13,147.26,14.91,47.25,35.39,91.9,61.97,133.72,.55,.87,1.05,1.78,1.58,2.69-5.25,2.6-5.22,2.58-8.22-2.16-22.32-35.25-40.16-72.69-54.15-111.96-12.11-34.02-21.33-68.86-26.94-104.52-3.77-24.01-6.27-48.23-8.79-72.41-1.32-12.67-1.71-25.45-2.1-38.2C.53,89.86,.42,72.18,0,54.51c-.06-2.71,.69-4.01,3.43-5.02,27.18-10.02,55.08-17.39,83.35-23.5,30.3-6.55,60.81-11.84,91.56-15.69,20.07-2.51,40.14-5.06,60.27-7C255.6,1.66,272.67,0,289.7,0c14.92,0,29.87,2.08,44.77,3.61,17.8,1.82,35.63,3.53,53.32,6.19,27.17,4.08,54.36,8.26,81.29,13.66,22.68,4.54,45.07,10.63,67.46,16.53,10.04,2.65,19.75,6.55,29.65,9.77,2.23,.73,2.71,2.06,2.67,4.2-.35,20.63-.19,41.27-1.06,61.87-.78,18.46-2.18,36.92-4.2,55.28-3.14,28.61-7.79,56.99-14.34,85.06-8.13,34.84-19.04,68.74-33.12,101.62-11.86,27.7-25.92,54.25-42.12,79.66q-3.47,5.45-9.19,2.58Z"/>
      <path d="M313.89,571.23c3.81-1.63,5.65-3.84,5.87-7.76,.87-15.67,1.96-31.34,3.01-47,.62-9.23,1.32-18.45,2.03-27.68,.05-.7,.42-1.38,1.32-1.99-.73,26.16-2.91,52.2-4.54,78.43,3.36-.66,3.77-2.83,3.99-5.47,1.94-23.11,3.97-46.2,6-69.3,.08-.92,.32-1.82,.48-2.71,15.93,1.25,58.27,10.64,68.48,15.27-6.76,6.84-13.29,13.67-20.06,20.26-28.22,27.45-59.13,51.55-91.92,73.3-3.54,2.35-5.91,2.35-9.53-.05-38.36-25.35-73.9-54.08-105.8-87.24-1.95-2.03-3.9-4.06-5.81-6.12-.71-.76-1.33-1.61-2.3-2.8,22.35-6.52,44.82-10.99,68.15-13.71,.41,3.96,.86,7.75,1.19,11.55,1.77,20.06,3.48,40.13,5.35,60.18,.14,1.53,1.02,3.47,2.21,4.35,12.48,9.29,25.1,18.41,37.67,27.58,.33-.17,.67-.33,1-.5v-105.64h5.94v105.5c.46,.11,.93,.22,1.39,.33,.42-1.31,1.18-2.62,1.2-3.94,.22-12.54,.31-25.08,.46-37.62,.24-20.28,.48-40.55,.73-60.83,0-.59-.07-1.21,.11-1.74,.2-.55,.67-1.01,1.02-1.51,.42,.56,1.19,1.11,1.2,1.68,.05,2.57-.17,5.14-.2,7.7-.41,30.71-.81,61.42-1.2,92.12,0,.31,.15,.63,.28,1.14,3.51-1.46,5.04-3.53,5.13-7.61,.68-30.45,1.67-60.9,2.58-91.35,.03-1.15,.23-2.3,.34-3.45,.55,.04,1.09,.08,1.64,.11-.89,32.29-1.77,64.58-2.67,97.28,3.62-1.41,5.56-3.06,5.7-6.95,1.05-28.92,2.31-57.83,3.52-86.74,.04-1.02,.24-2.04,1.14-3.01-.08,30.37-1.64,60.67-2.85,91.49,3.23-1.57,5.39-2.81,5.54-6.47,.45-11.23,1.26-22.45,1.9-33.68,.94-16.37,1.85-32.75,2.78-49.12,.03-.45,.16-.9,.25-1.35,.36-.08,.71-.16,1.07-.24,.21,1.02,.64,2.05,.59,3.06-.42,8.66-.94,17.31-1.41,25.96-1,18.13-1.98,36.26-2.97,54.39-.02,.45,0,.91,0,1.89Z"/>
      <path class="cls-1" d="M457.84,339.34c-.22-1.06-.41-2.01-.62-3.03h-11.37c-.08,1.66-.18,3.24-.23,4.82-.04,1.36,.44,2.91-1.86,3.02-.32,.01-.8,1.7-.81,2.61-.07,6.67-.04,13.33-.04,20.34h-9.15v-7.63c-7.6-4.36-14.87-2.39-22.59-.21,0,4.7,.08,9.71-.07,14.72-.03,.95-1.02,1.88-1.57,2.82-.43-.94-1.21-1.87-1.23-2.81-.12-5.01-.06-10.03-.06-15.29-9.75,.76-3.45-6.82-6.17-10.26h-11.16c0,1.59-.15,3.21,.03,4.79,.41,3.62,.02,6.43-5.27,5.32,0,5.16,0,9.92,0,14.69,0,6.05-.32,6.29-6.91,4.9,0-3.96,0-8.03,0-12.1s.17-7.75-.04-11.61c-.32-5.95-.89-11.89-1.36-18.01h-11.67c-.11,2.44-.21,4.83-.33,7.51-3.29,0-6.32,.13-9.32-.04-2.53-.15-3.52,.54-3.43,3.32,.22,6.53,.07,13.06,.07,19.91h-5.58c.49-5.96,.93-11.76,1.45-17.56,1.81-20.3,3.69-40.59,5.4-60.89,.21-2.5,.98-3.36,3.5-3.59,5.1-.47,10.16-1.37,15.38-2.12,.07-.98,.18-1.78,.18-2.57,.01-17.36-.05-34.71,.07-52.07,.02-2.61-.79-3.31-3.33-3.54-19.13-1.73-38.24-3.63-57.35-5.49-6.64-.65-13.31-1.15-19.92-2.06-11.44-1.57-22.66,.82-33.95,1.67-13.54,1.02-27.04,2.61-40.56,3.94-7.57,.75-15.15,1.48-23,2.24v57.95c4.33,.59,8.81,1.25,13.29,1.79,2,.24,3.01,.92,3.21,3.21,1.9,22.76,3.93,45.51,5.91,68.27,.05,.57-.07,1.15-.14,2.17h-16.42v18.11h-12.27c-.13-2.19-.25-4.25-.39-6.67h-10.76c0-3.36-.2-6.37,.06-9.34,.26-3.04-.97-3.9-3.8-3.7-2.67,.2-5.36,.04-8.43,.04v33.06c-1.77,0-3.14,0-4.52,0q-4.67,.01-4.69-4.52c0-7.39,0-14.78,0-22.16,0-1.39,0-2.78,0-4.37-1.78-.22-3.24-.4-5.04-.62v-9.91h-12.18c0,2.09-.21,4.2,.05,6.24,.38,3.07-.65,4.43-3.8,3.99-.42-.06-.88,.12-1.62,.24v19.57h-6.35c-.37-14.09-.74-27.98-1.11-42.04h-12.75v7.15c-4.26,1.36-6.08-.1-7.39-3.98-7.3-21.51-11.22-43.59-10.42-66.26,1.82-51.44,21.32-95.24,58.39-130.99,16.35-15.76,35.24-27.87,56.23-36.59,.96-.4,2.77-.04,3.55,.66,3.39,3.06,6.64,6.3,9.71,9.67,.7,.77,.94,2.5,.62,3.56-1.23,4.14-2.99,8.13-4.12,12.29-.67,2.48-1.74,3.19-4.28,3.41-15.38,1.35-30.75,2.89-46.1,4.53-2.64,.28-5.25,1.2-7.77,2.09-2.74,.97-5.14,2.45-5.02,5.94,.11,3.42,2.42,5.06,5.25,5.77,5.43,1.35,10.9,2.82,16.45,3.41,12.69,1.34,25.43,2.23,38.16,3.17,2.16,.16,3.27,.69,3.93,2.96,1.11,3.8,2.9,7.39,4.12,11.17,.32,.99-.02,2.68-.72,3.44-7.48,8.22-15.17,16.26-22.64,24.51-1.94,2.14-3.5,4.71-4.87,7.27-1.37,2.56-1.87,5.35,.37,7.87,2.17,2.43,4.91,2.17,7.42,1.05,4.58-2.04,9.22-4.09,13.45-6.75,7.43-4.67,14.61-9.74,21.78-14.81,1.73-1.23,2.71-1.3,4.5,.01,21.39,15.74,50.55,16.23,72.41,1.22,1.97-1.35,3.1-1.43,5.13-.11,9.91,6.43,19.92,12.7,30.02,18.82,1.81,1.1,4.19,1.59,6.35,1.73,4,.26,6.61-2.65,5.61-6.52-.68-2.63-1.98-5.36-3.75-7.39-7.23-8.3-14.66-16.42-22.21-24.42-1.65-1.74-1.98-2.87-.88-5.06,1.82-3.64,3.43-7.46,4.58-11.36,.73-2.48,1.87-3.36,4.32-3.53,10.51-.75,21.05-1.34,31.5-2.59,6.82-.82,13.55-2.52,20.24-4.13,2.91-.7,5.54-2.28,5.45-5.95-.09-3.56-2.56-5.27-5.54-5.92-6.96-1.51-13.94-3.08-21-3.91-10-1.16-20.07-1.71-30.11-2.43-2.26-.16-3.3-.78-3.96-3.31-1.3-4.94-3.29-9.73-5.27-14.45-.76-1.8-.77-2.79,.75-4.17,2.95-2.67,5.73-5.54,8.36-8.53,1.42-1.61,2.64-1.69,4.51-.94,20.67,8.22,39.41,19.61,55.94,34.47,29.15,26.2,48.56,58.33,57.58,96.53,7.99,33.84,6.54,67.36-4.16,100.46-.36,1.11-.7,2.22-1.08,3.32-.06,.18-.34,.28-.72,.58Z"/>
      <path class="cls-1" d="M280.53,222.59v65.7c-6.34-.81-12.35-1.56-18.36-2.34-19.38-2.51-38.76-5.05-58.15-7.5-2.07-.26-3.47-.44-3.45-3.16,.12-14.3,.06-28.61,.07-42.91,0-.57,.13-1.14,.24-2.08,26.46-2.56,52.86-5.12,79.65-7.72Z"/>
      <path class="cls-1" d="M286.85,288.29v-65.73c26.71,2.59,53.19,5.15,79.96,7.75,.09,1.19,.24,2.2,.24,3.21,.02,13.71-.06,27.41,.07,41.12,.02,2.7-.8,3.52-3.5,3.85-19.16,2.33-38.29,4.87-57.43,7.33-6.34,.82-12.69,1.62-19.34,2.47Z"/>
      <path class="cls-1" d="M268.61,138.65c-.72-.88-1.45-1.76-2.19-2.66-1.38,1.32-2.77,2.65-4.31,4.12-2.79-2.46-5.31-4.67-7.86-6.91,3.42-3.05,3.75-5.02,1.66-8.65-2.02-3.51-1.56-4.48,2.95-5.59-.15,.73-.22,1.33-.39,1.9-.14,.49-.4,.94-.95,2.2,1.38-.82,2.57-1.2,2.57-1.57-.04-3.22,3.01-3.88,4.62-4.05,4.2-.44,5.82-3.66,8.14-6.11,2.3-2.43,.3-4.49-1.27-6.63,.88-.68,1.66-1.28,2.55-1.97-1.11-.18-2.09-.35-3.17-.53,3.28-4.17,5.33-3.43,8.55,2.92,4-.73,1.33-2.92,.96-4.53,2.05-4.1,9.29-1.14,9.34-7.86,4.23,6.06,2.28,9.85-6.35,12.91,.5,.09,1.04,.08,1.5,.27,3.67,1.52,8.28-1.87,8.17-5.85-.02-.79,1.02-1.61,1.44-2.24-.59-.89-1.54-1.78-1.81-2.84-.67-2.68-1.35-5.02-4.96-3.81-.32,.11-.79-.24-1.45-.46,2.99-4.92,8.01,.16,10.96-2.96,1.11,2.08,2.05,3.87,3,5.66,.34-.04,.68-.08,1.02-.13-.06-1.31-.12-2.63-.2-4.38,6.45,1.37,12.04,4.93,17.21,9.11,5.02,4.06,10.46,7.92,12.01,15.14-6.47,1.89-13.02,3.81-19.96,5.84,1.51,1.65,2.74,2.99,4.31,4.71-6.68,5.97-13.27,11.87-19.86,17.76-.26,.23-.58,.41-.82,.65-2.64,2.68-5.35,5.1-9.61,3.93-.57-.16-1.32,.33-1.8,.46,.96,1.25,2.57,2.53,2.35,3.21-.84,2.62-5.75,4.78-7.46,3.36-1.9-1.57-3.32-3.69-5.04-5.49-.81-.85-1.77-1.58-2.75-2.23-2.59-1.75-3.06-4.44-1.09-6.72Zm3.68-12.49c.16-1.62,.27-2.71,.38-3.79-.61-.02-1.23-.04-1.84-.06l.3,6.71c.29-.29,.58-.58,.88-.87,1.55,.76,3.1,1.51,4.65,2.27,.08-.13,.16-.26,.24-.39-1.62-1.36-3.24-2.72-4.61-3.88Zm5.47,11.93c.23-1.91,.41-3.32,.66-5.33-2.56,1.22-4.07,1.94-5.71,2.72,1.54,.8,2.72,1.4,5.05,2.61Z"/>
      <path class="cls-1" d="M134.1,159.43c-3.73-2.56-7.39-5.24-11.2-7.66-30.98-19.68-61.98-39.33-93.02-58.92-1.92-1.21-2.8-2.46-2.7-4.75,.13-3.03-.13-6.07-.16-9.11-.06-5.07,2.97-7.13,7.8-5.34l-.12-.13c6.24,4.72,12.4,9.53,18.72,14.13,23.86,17.38,47.78,34.69,71.67,52.03,5.31,3.85,10.61,7.7,16.46,11.95-2.62,2.66-5.1,5.17-7.57,7.68l.11,.11Z"/>
      <path class="cls-1" d="M431.83,162.22c-2.11-2.54-4.04-4.86-6.27-7.54,3.95-2.92,7.73-5.78,11.57-8.57,32.61-23.65,65.22-47.31,97.88-70.89,1.05-.76,2.97-1.42,3.87-.95,.92,.49,1.48,2.41,1.52,3.72,.12,4.43,.08,8.88-.23,13.29-.09,1.23-1.05,2.83-2.1,3.5-29.71,18.95-59.49,37.8-89.25,56.66-5.53,3.51-11.06,7.02-16.98,10.78Z"/>
      <path class="cls-1" d="M424.89,153.8c-2.33-2.49-4.32-4.61-6.67-7.12,4.64-3.87,9.16-7.67,13.72-11.44,22.28-18.43,44.57-36.85,66.87-55.27,4.96-4.1,9.91-8.22,14.95-12.23,.8-.64,2.17-1.26,3.02-1.01,6.24,1.87,12.41,3.97,19.44,6.27-37.51,27.23-74.32,53.94-111.32,80.8Z"/>
      <path class="cls-1" d="M34.83,73.66c.41-.75,.65-1.97,1.24-2.18,5.63-1.95,11.28-3.86,17.02-5.44,1.11-.31,2.88,.51,3.9,1.35,17.56,14.4,35.06,28.88,52.57,43.34,12.64,10.44,25.27,20.89,37.9,31.33,.44,.37,.87,.75,1.57,1.36-2.3,2.43-4.49,4.76-6.9,7.32-6.25-4.53-12.39-8.96-18.52-13.4-28.62-20.76-57.23-41.53-85.86-62.26-.91-.66-2.02-1.04-3.03-1.55,0,0,.12,.13,.12,.13Z"/>
      <path class="cls-1" d="M133.99,159.32c-1.85,2.94-3.7,5.88-5.76,9.15-5.72-3.11-11.14-6.02-16.53-8.99-26.8-14.71-53.56-29.47-80.41-44.1-2.7-1.47-3.94-3.09-3.79-6.25,.26-5.32,.07-10.67,.07-16.57,8.35,5.29,16.23,10.29,24.11,15.28,26.41,16.75,52.82,33.5,79.25,50.23,.96,.61,2.11,.91,3.17,1.36,0,0-.11-.11-.11-.11Z"/>
      <path class="cls-1" d="M438.06,170.92c-1.82-2.53-3.59-4.98-5.67-7.86,35.8-22.69,71.44-45.29,107.47-68.13,0,6.78,.06,13.14-.08,19.48-.01,.66-1.08,1.49-1.83,1.91-33.04,18.17-66.09,36.31-99.15,54.44-.1,.05-.23,.05-.73,.16Z"/>
      <path class="cls-1" d="M417.58,145.79c-2.43-2.32-4.59-4.38-7.04-6.72,5.95-5.61,11.7-11.07,17.49-16.49,21.35-20.02,42.73-40,64.03-60.08,1.77-1.67,3.31-2.07,5.62-1.35,5.23,1.63,10.55,2.97,16.69,4.67-32.56,26.91-64.5,53.3-96.79,79.97Z"/>
      <path class="cls-1" d="M55.83,65.01c6.99-1.87,13.03-3.58,19.13-5.03,.81-.19,2.12,.74,2.89,1.46,15.92,14.85,31.79,29.75,47.67,44.64,9.65,9.05,19.3,18.09,28.95,27.13,.85,.8,1.74,1.54,2.83,2.5-2.5,2.38-4.75,4.54-7.36,7.03-31.14-25.72-62.2-51.38-94.11-77.74Z"/>
      <path class="cls-1" d="M127.36,169.19c-2.06,3.07-3.81,5.68-5.76,8.59-5.35-2.46-10.65-4.84-15.9-7.32-24.98-11.75-49.96-23.52-74.89-35.37-1.04-.5-2.32-1.88-2.36-2.89-.23-5.59-.11-11.2-.11-17.36,32.8,18,65.72,36.07,99.02,54.35Z"/>
      <path class="cls-1" d="M444.12,180.31c-1.74-2.73-3.35-5.26-5.31-8.34,33.5-18.41,66.84-36.72,100.6-55.28,0,4.09-.33,7.77,.08,11.37,.64,5.65-1.5,8.52-6.82,10.95-28.83,13.15-57.44,26.79-86.12,40.26-.63,.3-1.28,.54-2.43,1.03Z"/>
      <path class="cls-1" d="M308.65,178.17c-3.41-5.55-6.51-10.6-10-16.28h19.56c.11,1.77,.24,3.91,.4,6.5,6.56-3.98,12.81-7.78,19.65-11.94-6.94-3.79-13.4-7.33-20.28-11.09v7.2c-7.69,1.78-12.38,.87-18.78-3.74,7.16-6.41,14.26-12.77,21.56-19.31,1.98,1.77,3.86,3.46,6.09,5.47,1.77-6.97,3.44-13.57,5.29-20.86,3.76,3.45,5,7.64,6.4,11.55,2.95,8.23,3.98,16.71,3.33,25.55-1.15,15.74-8.44,28.24-19.01,39.56-3.39-6.17-6.59-11.98-10.02-18.22-1.44,1.92-2.76,3.69-4.19,5.6Z"/>
      <path class="cls-1" d="M409.77,138.33c-2.53-2.17-4.8-4.13-7.32-6.29,3.39-3.66,6.61-7.17,9.87-10.64,19.82-21.08,39.68-42.12,59.44-63.25,1.9-2.03,3.57-2.76,6.38-1.91,4.67,1.42,9.5,2.3,15.26,3.64-28.24,26.49-55.89,52.43-83.63,78.45Z"/>
      <path class="cls-1" d="M165.48,128.9c-2.39,2.02-4.78,4.03-7.44,6.27-26.84-25.17-53.55-50.23-80.97-75.95,6.59-1.54,12.43-2.96,18.3-4.18,.64-.13,1.67,.71,2.26,1.34,22.41,23.8,44.8,47.63,67.18,71.46,.23,.25,.37,.59,.66,1.06Z"/>
      <path class="cls-1" d="M121.01,178.7c-1.87,3.21-3.5,6.01-5.28,9.07-7.64-3.01-15.12-5.97-22.6-8.92-20.14-7.95-40.26-15.93-60.43-23.8-2.12-.83-3.24-1.84-3.32-4.21-.16-4.97-.54-9.94-.87-15.61,31.12,14.63,61.58,28.94,92.5,43.47Z"/>
      <path class="cls-1" d="M444.78,181.25c31.26-14.69,62.34-29.3,94.21-44.28-.39,6.22-.62,11.76-1.2,17.25-.08,.8-1.77,1.64-2.86,2.08-18.59,7.4-37.2,14.74-55.8,22.1-9.03,3.57-18.06,7.12-27.05,10.8-1.75,.71-2.78,.65-3.64-1.16-1.05-2.2-2.3-4.3-3.66-6.79Z"/>
      <path class="cls-1" d="M394.31,124.25c3.84-4.36,7.8-8.63,11.51-13.09,16-19.26,31.93-38.6,47.94-57.86,.7-.85,2.15-1.79,3.07-1.63,5.27,.91,10.48,2.14,16.49,3.43-24.17,25.71-47.84,50.89-72.1,76.71-2.39-2.7-4.58-5.19-6.78-7.67,0,0-.13,.12-.13,.12Z"/>
      <path class="cls-1" d="M97.24,54.42c5.98-1.25,11.32-2.45,16.69-3.42,.78-.14,2.02,.53,2.59,1.21,19.15,23.06,38.25,46.17,57.35,69.28,.14,.17,.16,.43,.37,1.03-2.39,1.78-4.88,3.63-7.63,5.67-23.07-24.53-45.97-48.9-69.36-73.78Z"/>
      <path class="cls-1" d="M319.7,193.03c-18.69,18.22-55.17,19.85-76.43,1.1,7.04-5.46,14.04-10.88,21.45-16.62,1.06,2.35,1.92,4.47,2.97,6.5,.4,.77,1.32,1.95,1.84,1.87,2.6-.39,5.18-1.03,7.72-1.77,3.47-1.01,6.85-2.5,10.17,.54,.54,.49,1.92,.07,2.94,.07,.3,3.5,1.87,5.16,6.02,4.52,2.62-.4,5.01-2.33,7.71-3.68-1.06,1.83-2.16,3.73-3.47,5.99,3.99,.31,7.56,.59,11.39,.89-.38,.73-.7,1.33-.9,1.71,2.71-.72,5.47-1.46,8.24-2.2,.11,.35,.23,.71,.34,1.06Z"/>
      <path class="cls-1" d="M454.49,200.16c-1.49-3.16-2.82-5.97-4.34-9.2,29.19-11.54,58.06-22.95,87.59-34.62-.47,5.74-.75,10.82-1.44,15.85-.13,.92-1.84,1.97-3.01,2.36-22.91,7.49-45.85,14.89-68.78,22.32-3.21,1.04-6.42,2.11-10.02,3.29Z"/>
      <path class="cls-1" d="M115.34,188.71c-1.74,3.39-3.21,6.27-4.85,9.46-9.32-3.04-18.52-6.06-27.72-9.04-16.13-5.23-32.24-10.49-48.4-15.62-2.35-.75-3.36-1.79-3.44-4.38-.15-4.52-.8-9.03-1.31-14.31,28.87,11.41,57.08,22.56,85.73,33.88Z"/>
      <path class="cls-1" d="M394.43,124.13c-4.23,.06-6.58-2.96-9.15-5.61l-.12,.12c2.18-2.7,4.48-5.32,6.52-8.12,14.5-19.88,28.98-39.76,43.35-59.73,1.75-2.43,3.42-3.29,6.4-2.43,3.99,1.15,8.13,1.79,12.76,2.77-4.97,6-9.57,11.57-14.19,17.13-14.8,17.86-29.61,35.71-44.39,53.59-.57,.69-.88,1.59-1.31,2.39,0,0,.13-.12,.13-.12Z"/>
      <path class="cls-1" d="M183.73,116.34c-2.95,1.88-5.49,3.5-8.33,5.31-19.59-23.65-39.1-47.21-59.03-71.27,5.66-1.09,10.55-2.23,15.51-2.83,1.11-.13,2.78,1.39,3.63,2.55,11.08,15.1,22.06,30.27,33.07,45.42,4.95,6.81,9.91,13.62,15.15,20.82Z"/>
      <path class="cls-1" d="M455.13,201c26.87-8.72,53.59-17.38,81.04-26.29-.63,5.56-1.06,10.42-1.85,15.23-.13,.79-1.76,1.64-2.84,1.92-21.84,5.67-43.7,11.25-65.55,16.89-7.15,1.84-7.14,1.89-9.86-5.15-.29-.74-.54-1.5-.92-2.6Z"/>
      <path class="cls-1" d="M385.28,118.52c-2.9-1.36-5.8-2.72-9.18-4.31,1.3-2.11,2.28-3.77,3.31-5.39,13.07-20.55,26.17-41.08,39.18-61.66,1.07-1.7,1.99-2.5,4.13-2.02,4.29,.94,8.65,1.56,13.48,2.41-4.6,6.36-8.82,12.23-13.08,18.08-12.14,16.66-24.29,33.31-36.41,49.98-.66,.91-1.05,2.03-1.57,3.05,0,0,.12-.12,.12-.12Z"/>
      <path class="cls-1" d="M31.4,173.52c26.48,8.6,52.44,17.04,78.7,25.57-1.47,3.44-2.78,6.5-4.18,9.77-8.8-2.24-17.38-4.43-25.97-6.62-14.61-3.73-29.2-7.52-43.83-11.15-2.3-.57-3.34-1.57-3.48-3.96-.26-4.3-.77-8.58-1.25-13.62Z"/>
      <path class="cls-1" d="M192.8,111.16c-2.72,1.55-5.25,2.99-8.18,4.67-16.57-22.78-33.12-45.54-50.09-68.87,5.32-.91,9.98-1.79,14.67-2.44,.76-.11,2.02,.58,2.46,1.27,13.63,21.31,27.18,42.68,40.74,64.04,.18,.28,.2,.65,.4,1.33Z"/>
      <path class="cls-1" d="M375.31,113.33c-2.88-1.57-5.41-2.95-8.31-4.54,3.81-6.98,7.54-13.84,11.29-20.67,7.9-14.37,15.87-28.7,23.66-43.13,1.2-2.23,2.47-3.05,4.92-2.55,3.85,.78,7.75,1.35,12.19,2.1-14.78,23.24-29.2,45.92-43.75,68.79Z"/>
      <path class="cls-1" d="M459.3,211.44c25.05-6.41,49.67-12.71,74.87-19.15-.67,5.19-1.16,9.81-1.96,14.38-.13,.76-1.58,1.65-2.54,1.84-21.57,4.17-43.16,8.26-64.76,12.26-.88,.16-2.53-.53-2.86-1.26-1.1-2.42-1.76-5.04-2.74-8.07Z"/>
      <path class="cls-1" d="M202.77,106.15c-3.05,1.53-5.73,2.87-8.7,4.37-14.08-22.15-28.04-44.12-42.31-66.58,5.03-.79,9.49-1.65,14-2.07,.89-.08,2.27,1.32,2.85,2.36,8.71,15.63,17.33,31.32,25.97,46.99,2.65,4.8,5.27,9.61,8.19,14.94Z"/>
      <path class="cls-1" d="M33.24,191.31c24.42,6.26,48.22,12.35,72.34,18.53-1.22,3.5-2.32,6.65-3.53,10.12-6.78-1.26-13.41-2.46-20.03-3.72-14.46-2.74-28.91-5.54-43.37-8.25-2.19-.41-3.5-1.16-3.71-3.66-.35-4.15-1.06-8.26-1.7-13.03Z"/>
      <path class="cls-1" d="M227.31,178.99c.3,.33,1.05,1.15,1.96,2.14-9.7,10.1-20.13,19.33-27.62,31.08l.75,1.02c5.2-3.01,10.56-5.78,15.57-9.08,25.86-17.04,49.79-36.6,73.24-56.75,8.26-7.09,16.29-14.45,24.43-21.67,.69-.61,1.48-1.12,2.37-1.79-1.27-1.44-2.18-2.46-3.47-3.92,5-1.46,9.62-2.8,15-4.37-1.35,5.29-2.54,9.93-3.89,15.2-1.9-1.7-3.33-2.99-4.66-4.19-12.35,10.74-24.49,21.56-36.91,32.05-21.21,17.91-42.86,35.27-66.27,50.26-4.69,3.01-9.85,5.33-14.97,7.59-1.27,.56-3.83,.18-4.65-.77-.83-.96-.9-3.61-.14-4.72,3.63-5.28,7.28-10.64,11.63-15.31,5.47-5.88,11.62-11.13,17.61-16.78Z"/>
      <path class="cls-1" d="M402.58,41.91c-12.33,22.4-24.38,44.27-36.58,66.43-2.91-1.36-5.6-2.61-8.61-4.02,3.43-7.29,6.74-14.34,10.07-21.38,6.43-13.63,12.91-27.25,19.26-40.92,.83-1.79,1.64-2.43,3.67-2.02,3.84,.79,7.75,1.24,12.18,1.91Z"/>
      <path class="cls-1" d="M465.68,232.28c-.97-3.52-1.82-6.62-2.76-10.05,23-4.39,45.65-8.71,68.97-13.16-.81,5-1.3,9.5-2.44,13.83-.25,.96-2.75,1.67-4.3,1.9-6.82,.98-13.68,1.74-20.52,2.59-12.86,1.61-25.71,3.23-38.97,4.89Z"/>
      <path class="cls-1" d="M35.63,208.36c22.38,4.28,44.06,8.42,65.97,12.61-.82,3.13-1.34,6.01-2.4,8.67-.32,.81-2.18,1.55-3.24,1.43-11.75-1.37-23.47-2.92-35.2-4.41-6.5-.83-12.98-1.79-19.5-2.38-2.67-.24-3.62-1.28-3.86-3.84-.37-3.81-1.1-7.59-1.78-12.08Z"/>
      <path class="cls-1" d="M468.03,243.49c-.71-3.46-1.35-6.62-2.09-10.25,21.07-2.66,41.88-5.29,63.37-8.01-.92,4.85-1.64,9.18-2.67,13.42-.16,.66-1.78,1.29-2.77,1.36-8.4,.63-16.8,1.15-25.21,1.67-10.04,.61-20.07,1.18-30.63,1.8Z"/>
      <path class="cls-1" d="M38.22,224.79c20.38,2.56,40.07,5.04,60.23,7.57-.69,3.3-1.22,6.37-2.06,9.34-.17,.61-1.58,1.28-2.38,1.23-16.95-1-33.89-2.07-50.82-3.27-.91-.06-2.3-1.2-2.51-2.07-.96-3.96-1.57-8-2.45-12.79Z"/>
      <path class="cls-1" d="M235.98,189.29c-1.51-3.23-2.63-5.83-3.94-8.33-.53-1-1.4-1.88-2.25-2.65-5.05-4.59-6.49-10.87-8.49-17.59,16.37,.41,32.29,.81,48.21,1.22,.14,.25,.28,.51,.42,.76-10.96,8.59-21.92,17.18-33.94,26.6Z"/>
      <path class="cls-1" d="M243.17,92.62c-9.19,2.91-9.15,2.9-11.86-5.52-5.12-15.89-10.29-31.76-15.44-47.64-.39-1.21-.77-2.42-1.35-4.25,4.28-.47,8.27-1.03,12.28-1.21,.66-.03,1.77,1.59,2.04,2.61,4.15,15.93,8.2,31.89,12.27,47.84,.68,2.68,1.37,5.37,2.08,8.16Z"/>
      <path class="cls-1" d="M249.96,144.53c.34-.9,.68-1.81,1.1-2.92,4.11,3.6,8.42,7.38,13.36,11.71-2.26,0-3.78,.03-5.3,0-11.94-.29-23.88-.65-35.82-.84-2.64-.04-3.7-.76-3.75-3.61-.18-9.27,1.27-18.19,5.01-26.69,.44-1.01,1.01-1.97,1.52-2.95,.37,.05,.74,.1,1.11,.14v15c.48,.1,.96,.21,1.44,.31,.79-2.05,1.53-4.11,2.39-6.14,.38-.91,.81-2.15,1.53-2.45,.61-.25,1.83,.5,2.53,1.1,2.83,2.46,5.84,4.79,8.25,7.62,2.56,3,4.51,6.52,6.73,9.81-2.38-1.84-4.77-3.68-7.16-5.52-.25,.23-.49,.46-.74,.69,4.62,3.07,4.41,9.82,10.03,12.57,.46-1.68,.81-2.93,1.15-4.18-.33,.11-.66,.23-.99,.34-.8-1.33-1.59-2.67-2.39-4Z"/>
      <path class="cls-1" d="M317.34,92.03c2.79-14.69,5.5-28.94,8.21-43.18,.85-4.48,1.79-8.94,2.52-13.44,.35-2.14,1.15-3.08,3.45-2.7,3.31,.54,6.66,.83,10.41,1.28-1.89,7.56-3.64,14.69-5.45,21.8-2.75,10.77-5.54,21.53-8.34,32.29-1.35,5.2-2.3,5.75-7.66,4.64-.9-.19-1.8-.39-3.14-.69Z"/>
      <path class="cls-1" d="M242.38,32.16c1.45,7.34,2.86,14.32,4.2,21.31,1.98,10.35,3.89,20.71,5.87,31.06,1.14,5.96,.85,6.42-5.21,7.5-.9,.16-1.8,.32-3.05,.53-5.01-19.6-9.99-39.05-15.09-58.99,4.44-.47,8.56-.9,13.29-1.4Z"/>
      <path class="cls-1" d="M526.35,240.84c-.98,4.71-1.64,8.51-2.65,12.21-.24,.86-1.7,1.97-2.61,1.98-16.29,.12-32.58,.12-48.86,0-.91,0-2.39-1.05-2.6-1.87-.68-2.68-.89-5.48-1.34-8.64,19.34-1.23,38.42-2.44,58.06-3.69Z"/>
      <path class="cls-1" d="M271.2,159.47c-7.5,0-14.71,.14-21.92-.03-24.84-.58-49.66-1.52-74.3-4.92-4.04-.56-8.07-1.51-11.92-2.83-1.71-.59-2.95-2.55-4.4-3.89,1.4-1.35,2.61-3.56,4.23-3.91,8.44-1.84,16.93-3.57,25.5-4.64,8.47-1.06,17.05-1.29,25.59-1.85,.91-.06,1.83,.08,2.97,.14,.08,1.15,.14,2.14,.23,3.52-18.07,1.64-36.12,1.93-53.63,6.32-.03,.32-.05,.64-.08,.97,6.39,1.04,12.75,2.63,19.18,3.02,25.36,1.54,50.75,2.62,76.11,4.09,4.27,.25,9.4-1.46,12.43,4.01Z"/>
      <path class="cls-1" d="M316.32,91.89c-1.51-.25-2.53-.4-3.55-.59-5.26-.94-5.71-1.45-5.08-6.56,2.1-16.96,4.28-33.9,6.33-50.86,.26-2.12,1.01-2.85,3.11-2.57,3.35,.45,6.73,.73,10.56,1.13-3.82,19.95-7.58,39.62-11.38,59.45Z"/>
      <path class="cls-1" d="M168.3,41.33c4.78-.66,8.91-1.33,13.06-1.71,.83-.08,2.19,.76,2.57,1.53,5.39,11.15,10.64,22.35,15.92,33.51-5.68,3.99-6.37,6.36-2.53,12.19,2.94,4.47,6.6,8.46,9.96,12.66,.8,.99,1.66,1.94,2.86,3.32-2.24,1.02-4.16,1.9-6.38,2.92-11.81-21.45-23.5-42.69-35.45-64.42Z"/>
      <path class="cls-1" d="M41.26,240.63c18.53,1.16,36.48,2.29,54.77,3.43-.52,3.5-.87,6.62-1.55,9.66-.14,.61-1.56,1.33-2.39,1.33-15.24,.08-30.49,.08-45.74,0-.82,0-2.2-.75-2.36-1.39-1.03-4.15-1.8-8.38-2.75-13.04Z"/>
      <path class="cls-1" d="M356.41,103.98c-2.43-.99-4.43-1.81-6.73-2.74,3.32-4.14,6.37-7.93,9.39-11.75,.79-1.01,1.52-2.08,2.15-3.19,3.31-5.82,2.61-8.39-3.32-11.71,3.52-8.96,7.06-17.96,10.61-26.95,.51-1.31,1.07-2.59,1.59-3.9q2.51-6.39,9.39-5.28c2.28,.37,4.55,.75,7.26,1.19-10.18,21.6-20.17,42.8-30.32,64.34Z"/>
      <path class="cls-1" d="M243.44,32.1c4.53-.42,8.68-.8,13.2-1.21,.65,4.77,1.29,9.24,1.86,13.73,1.61,12.66,3.15,25.34,4.83,37.99,.29,2.19,.1,3.54-2.36,4.15-2.14,.52-4.16,1.5-6.64,2.42-3.63-19-7.21-37.79-10.89-57.07Z"/>
      <path class="cls-1" d="M199.7,37.06c4.34-.57,8.25-1.18,12.18-1.52,.68-.06,1.9,.92,2.14,1.66,5.81,17.66,11.53,35.36,17.25,53.05,.06,.2-.01,.45-.07,1.69-5.53-5.22-13.14-6.47-15.89-14.66-4.17-12.41-9.49-24.43-14.32-36.62-.42-1.05-.77-2.13-1.3-3.61Z"/>
      <path class="cls-1" d="M300.25,30.02c4.52,.36,8.66,.7,13.24,1.07-2.44,19.25-4.82,38.11-7.28,57.5-3.26-1.11-6.18-2.09-9.37-3.18,1.13-18.4,2.26-36.71,3.41-55.38Z"/>
      <path class="cls-1" d="M286.65,28.94c3.98,.31,8.03,.62,12.68,.99-1.16,18.27-2.32,36.42-3.5,55.06-3.04-.44-5.78-.72-8.46-1.3-.57-.13-1.29-1.35-1.29-2.07-.05-17.12,0-34.24,.04-51.36,0-.32,.25-.63,.53-1.31Z"/>
      <path class="cls-1" d="M523.11,256.12c-1.03,4.24-1.89,8.2-3.03,12.09-.18,.63-1.57,1.36-2.36,1.31-15.43-.87-30.86-1.85-46.73-2.83-.35-3.55-.69-6.95-1.06-10.58h53.17Z"/>
      <path class="cls-1" d="M275.21,83.25c-1.1-17.67-2.21-35.45-3.34-53.7,4.45-.26,8.6-.5,13.05-.76v54.46h-9.71Z"/>
      <path class="cls-1" d="M328.5,90.55c5.02-19.49,9.76-37.88,14.57-56.54,4.46,.54,8.7,1.06,13.29,1.61-.3,1.25-.46,2.25-.76,3.19-4.44,13.67-8.89,27.33-13.38,40.98-.32,.97-.75,2.14-1.51,2.67-3.7,2.6-7.53,5.02-12.21,8.08Z"/>
      <path class="cls-1" d="M264.59,85.4c-2.31-18.22-4.57-36.05-6.91-54.48,4.4-.43,8.59-.84,13.08-1.27,.37,4.61,.78,8.79,1.04,12.97,.79,12.5,1.46,25.01,2.34,37.51,.19,2.77-.43,4.15-3.43,4.2-1.83,.03-3.66,.62-6.12,1.07Z"/>
      <path class="cls-1" d="M237.88,98.75c-1.04,1.37-1.7,2.25-2.3,3.03-11.26-7.08-22.31-14.02-33.36-20.97-.39,.44-.78,.87-1.17,1.31,3.2,3.99,6.21,8.16,9.64,11.94,19.67,21.61,41.69,40.72,63.91,59.61,.88,.74,1.72,1.52,2.8,2.47-1.05,.92-1.9,1.66-3.03,2.65-7.47-6.43-14.88-12.65-22.12-19.08-16.46-14.61-32.83-29.33-47.25-46.03-2.44-2.82-4.71-5.86-6.5-9.11-.86-1.56-1.15-4.28-.32-5.64,.6-.99,3.69-1.25,5.27-.69,3.71,1.32,7.36,3.04,10.71,5.12,7.92,4.92,15.66,10.14,23.72,15.4Z"/>
      <path class="cls-1" d="M44.53,256.19h49.66c-.29,3.69-.55,7.13-.84,10.86-7.28,.49-14.25,.98-21.23,1.43-7.12,.46-14.24,.82-21.36,1.37-2.08,.16-3.23-.17-3.64-2.51-.64-3.63-1.65-7.2-2.59-11.15Z"/>
      <path class="cls-1" d="M471.04,267.6c16.13,1.03,31.95,2.04,48.5,3.1-1.15,4.26-2.14,8.27-3.41,12.19-.17,.53-1.75,.98-2.6,.88-13.12-1.6-26.22-3.33-39.33-4.95-2.23-.27-3.37-1.05-3.19-3.5,.18-2.41,.04-4.84,.04-7.71Z"/>
      <path class="cls-1" d="M215.9,81.07c-4.96-1.99-9.39-3.72-13.77-5.58-.66-.28-1.24-1.06-1.57-1.75-5.27-11.09-10.49-22.21-15.71-33.32-.14-.3-.13-.67-.27-1.44,4.64-.61,9.21-1.21,13.92-1.83,5.82,14.7,11.53,29.11,17.39,43.92Z"/>
      <path class="cls-1" d="M93.17,268.05c0,3.43,.21,6.36-.12,9.23-.1,.88-1.61,2.16-2.61,2.3-9.62,1.35-19.26,2.51-28.89,3.7-3.13,.39-6.26,.72-9.79,1.12-1.22-4.34-2.41-8.55-3.79-13.45,15.23-.98,29.99-1.93,45.21-2.9Z"/>
      <path class="cls-1" d="M371.46,37.4c-3.36,8.55-6.51,16.57-9.66,24.59-.09,.22-.2,.42-.3,.64-1.78,4.17-2.63,9.29-5.61,12.25-2.97,2.95-8.08,3.75-12.59,5.63,.44-1.74,.77-3.39,1.29-4.99,3.97-12.23,8.03-24.43,11.92-36.68,.73-2.3,1.67-3.25,4.19-2.78,3.32,.61,6.7,.86,10.75,1.34Z"/>
      <path class="cls-1" d="M515.71,285c-1.19,4.14-2.11,7.74-3.33,11.24-.26,.73-1.72,1.66-2.46,1.52-12.51-2.31-25-4.77-37.49-7.2-.44-.09-.86-.3-1.27-.44v-10.67c14.89,1.86,29.43,3.67,44.54,5.55Z"/>
      <path class="cls-1" d="M55.92,298.78c-1.33-4.5-2.58-8.68-3.95-13.32,13.88-1.75,27.27-3.43,41.12-5.18v11.35c-12.06,2.32-24.3,4.67-37.18,7.14Z"/>
      <path class="cls-1" d="M507.52,311.89c-10.34-2.65-20.27-5.2-30.2-7.73q-8.42-2.15-6.8-10.79c.1-.55,.3-1.08,.56-2.01,13.38,2.54,26.63,5.05,40.41,7.67-1.32,4.28-2.56,8.32-3.97,12.87Z"/>
      <path class="cls-1" d="M93.28,292.66c.34,.81,.54,1.11,.58,1.43,1.18,9.61,1.19,9.66-8.24,12.16-8.31,2.2-16.65,4.28-25.22,6.48-1.41-4.39-2.71-8.45-4.18-13.04,12.58-2.39,24.84-4.71,37.06-7.03Z"/>
      <path class="cls-1" d="M467.75,314.05c.57-3.61,1.1-7.02,1.71-10.89,12.62,3.25,24.89,6.4,37.54,9.66-1.29,3.83-2.38,7.36-3.72,10.8-.24,.63-1.68,1.37-2.29,1.18-11.01-3.47-21.98-7.08-33.24-10.75Z"/>
      <path class="cls-1" d="M395.55,147.69c-16.62-4.44-33.74-4.92-50.81-6.39-.43-2.16-.92-4.07,2.2-3.83,15.75,1.19,31.6,1.53,47.01,5.52,2.77,.72,6.45,1.21,6.39,4.87-.05,3.46-3.71,4.09-6.33,4.51-11.41,1.85-22.87,3.5-34.34,4.96-5.33,.68-10.73,.76-16.55,1.14-.09-1.41-.16-2.58-.24-3.96,17.87-1.46,35.51-2.09,52.66-6.82Z"/>
      <path class="cls-1" d="M467.59,315.08c11.78,3.83,23.09,7.5,34.69,11.27-1.6,4.2-3.08,8.09-4.7,12.34-3.36-1.32-6.47-2.54-9.58-3.76-6.86-2.69-13.7-5.43-20.58-8.04-1.9-.72-2.51-1.67-1.89-3.67,.79-2.54,1.32-5.16,2.06-8.14Z"/>
      <path class="cls-1" d="M94.92,304.91c.68,3.87,1.29,7.39,1.97,11.26-10.45,3.42-20.72,6.77-31.52,10.3-1.51-4.24-2.96-8.32-4.55-12.78,11.48-2.96,22.6-5.82,34.1-8.78Z"/>
      <path class="cls-1" d="M497.18,339.7c-1.77,4.22-3.38,8.06-5.12,12.24-6.46-3.02-12.57-5.88-18.69-8.74-3.29-1.54-6.62-2.97-9.82-4.67-.76-.4-1.63-1.8-1.47-2.52,.65-2.93,1.69-5.78,2.72-9.08,10.83,4.27,21.34,8.42,32.39,12.77Z"/>
      <path class="cls-1" d="M97.04,317.2c.89,3.44,1.79,6.34,2.31,9.29,.14,.76-.66,2.23-1.38,2.53-8.94,3.68-17.94,7.21-27.4,10.96-1.63-4.18-3.17-8.12-4.89-12.55,10.5-3.43,20.75-6.77,31.36-10.23Z"/>
      <path class="cls-1" d="M103.64,340.41c-9.12,4.31-18.07,8.53-27.49,12.98-1.74-4.14-3.39-8.05-5.25-12.44,9.71-3.85,19.23-7.63,29.13-11.55,1.21,3.69,2.36,7.18,3.61,11.01Z"/>
      <path class="cls-1" d="M321.77,196.67c.83-1.49,1.02-1.92,1.29-2.28,.35-.46,.77-.87,1.35-1.5,10.63,6.91,20.59,14.89,33.26,19.99-7.45-11.74-17.07-20.48-26.22-30.06,.78-.88,1.51-1.69,2.87-3.21,3.05,3.26,5.97,6.23,8.72,9.36,5.33,6.05,10.69,12.09,15.76,18.35,1.74,2.15,4.15,4.93,1.83,7.86-2.32,2.92-5.54,1.36-7.99-.06-10.28-5.97-20.42-12.17-30.85-18.43Z"/>
      <path class="cls-1" d="M325.05,100.49c-.76-1.03-1.42-1.92-2.32-3.14,10.27-7.15,20.04-14.59,31.46-19.3,1.64-.68,5.01-.48,5.66,.54,.9,1.4,.74,4.56-.31,5.94-5.21,6.88-10.79,13.49-16.4,20.05-2.57,3.01-5.51,5.69-8.79,9.04-.74-1.24-1.33-2.22-1.91-3.18,8.15-9.15,16.51-18.53,24.86-27.91-.33-.35-.66-.7-.98-1.05-11.37,4.55-20.93,12.19-31.26,19Z"/>
      <path class="cls-1" d="M491.49,352.83c-2.03,5.73-2.03,5.65-7.49,5.76-5.5,.1-10.87,.22-15.74-3.22-2.05-1.45-3.2-2.74-2.9-5.3,.21-1.83,.04-3.71,.04-5.97-2-.1-3.79-.2-6.04-.31,.62-1.74,1.16-3.22,1.86-5.17,10.18,4.78,20.14,9.45,30.27,14.21Z"/>
      <path class="cls-1" d="M89.03,362.77c-.16-1.78-.25-2.81-.37-4.2-2.24,0-4.46-.2-6.64,.05-3.27,.37-4.76-1.07-5.11-4.47,8.51-3.99,17.05-8.03,25.64-11.95,.55-.25,1.48,.34,2.24,.54-.07,.37-.15,.73-.22,1.1-1.23,.09-2.45,.18-4.08,.3,0,3.48,.09,6.82-.06,10.15-.04,1-.47,2.41-1.21,2.87-3.15,1.95-6.49,3.62-10.19,5.63Z"/>
      <path class="cls-1" d="M174.06,146.83c14.49-1.26,28.97-2.51,43.82-3.8v9.32c-14.61-1.24-29.21-2.48-43.81-3.72,0-.6,0-1.2-.01-1.8Z"/>
      <path class="cls-1" d="M304.3,189.93c1.09-2.04,1.85-3.45,2.67-5-8.57-6.82-17.13-13.62-25.64-20.39,1.63-2.89,3.09-2.9,5.35-1.02,7.35,6.09,14.9,11.94,22.51,18,1.17-1.69,2.09-3,3.43-4.93,2.42,4.63,4.62,8.86,6.96,13.34h-15.29Z"/>
      <path class="cls-1" d="M320.54,164.73c-.17-2.09-.27-3.47-.41-5.12h-32.47c1.87-3.37,2.76-3.95,6.19-3.95,8.63-.01,17.26,0,26.17,0v-6.62c4.75,2.54,8.96,4.8,13.9,7.45-4.66,2.87-8.73,5.38-13.39,8.25Z"/>
      <path class="cls-1" d="M343.73,143.16c14.09,1.26,27.75,2.49,41.4,3.71,0,.59,0,1.17,.01,1.76-13.72,1.27-27.44,2.53-41.41,3.82v-9.29Z"/>
      <path class="cls-1" d="M229.87,183.31c1.91,2.26,3.4,4.03,5.41,6.41-8.9,6.06-17.62,11.98-26.33,17.91-.34-.36-.67-.72-1-1.08,7.24-7.67,14.47-15.34,21.93-23.24Z"/>
      <path class="cls-1" d="M325.24,190.93c1.97-2.24,3.42-3.88,5.3-6.02,6.77,7.13,13.4,14.11,20.03,21.09-.28,.37-.57,.73-.85,1.1-8.04-5.31-16.07-10.61-24.48-16.16Z"/>
      <path class="cls-1" d="M465.4,354.9c2.7,1.44,4.71,2.36,6.54,3.55,.64,.41,.96,1.43,1.24,2.24,.18,.52,.04,1.15,.04,1.74,0,3.49,0,6.99,0,10.53-6.07-1.45-7.83-3.61-7.83-9.39,0-2.65,0-5.3,0-8.67Z"/>
      <path class="cls-1" d="M100.35,358.37v8.81h-11.02c-.64-3.26,3.91-6.9,11.02-8.81Z"/>
      <path class="cls-1" d="M221.93,101.34c5.32-2.67,6.3-2.46,12.04,2.99-1.43,1.78-2.86,3.57-4.38,5.46-2.63-2.9-5.15-5.68-7.66-8.45Z"/>
      <path class="cls-1" d="M326.32,102.88c5.66-5.27,6.43-5.44,12.08-2.71-2.68,2.36-5.32,4.69-8.16,7.2-.93-1.06-2.34-2.68-3.92-4.49Z"/>
      <path class="cls-1" d="M208.18,88.07c5.87,1.27,13.34,6.93,14.2,10.09-2.03,1.64-3.77,1.63-5.59-.52-2.77-3.27-5.73-6.39-8.61-9.57Z"/>
      <path class="cls-1" d="M472.85,378.42h-7.28v-7.51c5.3,1.38,7.77,3.86,7.28,7.51Z"/>
      <path class="cls-1" d="M349.92,87.96c-2.62,2.93-5.13,5.97-7.94,8.71-.71,.7-2.37,.43-3.6,.6,.27-1.26,.16-2.85,.9-3.72,1.01-1.19,2.65-1.85,4.03-2.71,1.95-1.21,3.92-2.4,5.88-3.6,.24,.24,.48,.48,.72,.72Z"/>
      <path class="cls-1" d="M289.95,162.21c2.05-.17,4.1-.35,6.92-.58-.39,2.22-.69,3.93-1.13,6.46-2.49-1.96-4.23-3.33-5.98-4.7l.19-1.17Z"/>
      <path class="cls-1" d="M402.41,486.19c-2.8-.78-4.81-1.34-7.17-2,.51-10.61,1.03-21.21,1.59-32.88-3.38,5.15-6.29,9.49-9.1,13.9-2.89,4.54-5.66,9.17-8.55,13.71-.44,.7-1.29,1.14-1.95,1.7-.5-.81-1.3-1.57-1.44-2.44-1.64-10.17-3.18-20.35-4.75-30.53-.05-.31-.18-.6-.51-1.63-3.36,8.72-6.55,16.82-9.6,24.98-2.29,6.13-2.28,6.19-9.02,3.8,3.11-8.43,6.16-16.89,9.36-25.29,2.66-7,5.44-13.96,8.33-20.86,.43-1.02,2.07-2.48,2.63-2.28,1.11,.39,2.47,1.7,2.65,2.81,1.72,10.4,3.22,20.83,4.78,31.25,.2,1.36,.37,2.72,.64,4.67,5.59-9.21,10.85-17.89,16.14-26.56,1.04-1.7,1.99-3.49,3.3-4.96,.57-.64,2.03-.93,2.91-.71,.69,.17,1.61,1.4,1.58,2.13-.53,16.84-1.17,33.68-1.82,51.18Z"/>
      <path class="cls-1" d="M272.41,418.2c6.15,0,12.61-.51,18.95,.11,12.24,1.19,20.16,10.26,19.97,22.52-.06,4.05-.62,8.21-1.73,12.1-2.54,8.86-8.53,14.59-17.68,16.03-6.17,.97-12.51,.85-19.51,1.26v-52.01Zm8.06,6.06v38.13c10.15,2.11,17.38-1.28,20.6-9.77,2.11-5.57,2.48-11.38,1.11-17.23-1.1-4.7-3.9-8.18-8.53-9.35-4.19-1.06-8.62-1.2-13.19-1.78Z"/>
      <path class="cls-1" d="M327.35,447.19c-.58,6.25-1.1,11.93-1.64,17.82,7.92,.99,15.65,1.97,23.81,2.99-.35,2.4-.64,4.41-.95,6.55-10.39-1.16-20.46-2.29-30.73-3.44-.08-.85-.27-1.64-.21-2.41,1.16-15.05,2.42-30.1,3.48-45.15,.22-3.18,1.2-4.14,4.49-3.68,9.27,1.29,18.58,2.21,27.88,3.31,.91,.11,1.8,.4,3,.67-.28,2.08-.54,4.01-.85,6.32-8.81-1.06-17.44-2.09-26.33-3.16-.41,4.65-.8,8.93-1.21,13.63,6.06,.78,11.91,1.53,18.06,2.33-.23,2.16-.44,4.06-.67,6.2-6.12-.66-11.89-1.29-18.13-1.97Z"/>
      <path class="cls-1" d="M181.31,481.26c-2.93,.65-5.4,1.19-8.03,1.77-1.15-1.77-2.44-3.32-3.25-5.1-1.68-3.71-4.03-4.72-7.94-3.21-3.69,1.43-7.6,2.32-11.45,3.32-1.84,.48-2.85,1.32-2.7,3.37,.07,1.03-.22,2.09-.31,3.14q-.6,6.74-8.24,8.03c.29-4.14,.41-8.18,.88-12.18,1.62-13.83,3.32-27.66,5.1-41.47,.14-1.11,1.08-2.12,1.65-3.18,.84,.47,1.97,.73,2.49,1.44,10.33,14.07,20.59,28.18,30.86,42.29,.27,.37,.43,.81,.93,1.77Zm-32.73-8.62c5.2-1.43,9.78-2.68,14.81-4.06-4.23-6.16-8.3-12.09-12.93-18.83-.68,8.28-1.26,15.36-1.88,22.9Z"/>
      <path class="cls-1" d="M267.31,469.72c-.55,.22-.65,.29-.77,.31-6.97,.9-7.26,1-9.48-5.59-1.31-3.89-3.27-5-7.15-4.34-3.91,.67-7.91,.91-11.89,1.09-2.03,.09-2.94,.95-3.25,2.82-.15,.92-.47,1.81-.67,2.71-1.46,6.43-2.44,7.1-9.62,6.2,1.68-5.87,3.22-11.72,5.04-17.48,3.53-11.15,7.18-22.26,10.89-33.34,.39-1.17,1.53-2.09,2.32-3.13,.88,.95,2.08,1.75,2.61,2.87,7.17,15.24,14.26,30.52,21.34,45.81,.28,.6,.39,1.28,.62,2.08Zm-30.11-14.28c5.28-.43,9.98-.81,15.22-1.24-3.01-6.95-5.83-13.47-9.03-20.85-2.21,7.9-4.15,14.79-6.19,22.09Z"/>
      <path class="cls-1" d="M216.29,463.89c1.65,1.61,3.13,3.05,4.6,4.49-5.03,8.41-20.1,11.94-29.12,6.84-12.61-7.13-18.14-26.37-11.23-39.07,4.48-8.23,11.84-11.69,20.75-12.24,3.76-.23,7.56,.25,11.77,.43-.78,2.82-1.32,4.79-1.81,6.58-4.05,0-7.78-.37-11.42,.08-7.58,.93-11.81,4.76-13.27,12.37-1.44,7.51,0,14.67,4.56,20.98,6.16,8.54,18.52,8.25,25.17-.47Z"/>
      <path class="cls-1" d="M426.13,493.34c-2.61-.82-4.7-1.48-7.2-2.27,1.19-3.94,1.88-7.92,3.56-11.41,3.69-7.64,2.89-14.98,.13-22.64-2.36-6.56-4.09-13.34-6.12-20.11,6.81,.25,7.97,1.08,9.72,7.21,1.85,6.49,3.6,13.01,5.47,19.75,5.52-4.35,11.07-8.13,15.88-12.7,4.26-4.04,7.94-2.94,12.56-.2-2.88,2.16-5.54,4.15-8.19,6.15-3.37,2.54-6.57,5.34-10.14,7.56-6.43,4.01-10.19,9.59-11.8,16.96-.84,3.85-2.46,7.53-3.87,11.7Z"/>
      <path class="cls-1" d="M133.95,494.79c-2.44,.88-4.39,1.59-6.83,2.47-1.83-5.01-3.61-9.89-5.4-14.77-1.81-4.91-3.65-9.82-5.58-15.02-1.82,.54-3.44,1.02-5.3,1.58-.68-1.72-1.31-3.31-2.14-5.42,4.23-1.57,8.3-3.08,12.8-4.75,4.17,12.03,8.24,23.76,12.45,35.91Z"/>
      <path class="cls-1" d="M115.73,446.4c2.02,.23,3.77,1.45,3.97,4.04,.19,2.39-2.49,4.76-5.11,4.79-2.6,.03-4.72-1.9-4.63-4.21,.09-2.39,2.69-4.66,5.77-4.62Z"/>
      <path d="M272.29,126.15c1.37,1.15,2.99,2.51,4.61,3.88-.08,.13-.16,.26-.24,.39-1.55-.76-3.1-1.51-4.65-2.27-.29,.29-.58,.58-.88,.87l-.3-6.71c.61,.02,1.23,.04,1.84,.06-.11,1.08-.22,2.16-.38,3.79Z"/>
      <path d="M277.76,138.08c-2.33-1.2-3.51-1.81-5.05-2.61,1.64-.78,3.15-1.5,5.71-2.72-.25,2.01-.42,3.42-.66,5.33Z"/>
      <path d="M249.96,144.53c.8,1.33,1.59,2.67,2.39,4,.33-.11,.66-.23,.99-.34-.34,1.25-.69,2.5-1.15,4.18-5.63-2.75-5.41-9.49-10.03-12.57,.25-.23,.49-.46,.74-.69,2.39,1.84,4.77,3.68,7.16,5.52,0,0-.09-.1-.09-.1Z"/>
      <path d="M280.46,424.26c4.57,.58,9,.72,13.19,1.78,4.63,1.17,7.43,4.65,8.53,9.35,1.37,5.85,1,11.67-1.11,17.23-3.22,8.49-10.45,11.88-20.6,9.77v-38.13Z"/>
      <path d="M148.58,472.64c.62-7.53,1.2-14.61,1.88-22.9,4.63,6.74,8.7,12.67,12.93,18.83-5.03,1.38-9.61,2.64-14.81,4.06Z"/>
      <path d="M237.21,455.44c2.05-7.3,3.98-14.19,6.19-22.09,3.19,7.38,6.02,13.9,9.03,20.85-5.24,.43-9.94,.81-15.22,1.24Z"/>
    </g>
  </g>
</svg>