<svg id="Layer_1" data-name="Layer 1" xmlns="http://www.w3.org/2000/svg" viewBox="0 0 400 40"><defs><style>.cls-1{fill:#231f20}.cls-2{fill:#fff}</style></defs><title>7Artboard 1400</title><path class="cls-1" d="M254.07 34.75v4.19h-1v-4.19h-1.3v-.82h3.56v.82zM259.49 38.94v-2.17h-2.12v2.17h-1v-5h1v2h2.12v-2h1v5zM261.91 38.94v-5h2.73v.81h-1.76V36h1.67v.79h-1.67v1.36h1.76v.82zM270 39a2.14 2.14 0 0 1-2.31-2.41 2.4 2.4 0 0 1 2.51-2.71 4.17 4.17 0 0 1 1.06.14l-.11.87a3.74 3.74 0 0 0-1-.15c-.93 0-1.39.71-1.39 1.68s.45 1.7 1.46 1.7a2.58 2.58 0 0 0 1-.2l.11.86A4 4 0 0 1 270 39zM274.49 39c-1.53 0-2.28-1-2.28-2.53a2.45 2.45 0 0 1 2.45-2.65c1.34 0 2.28.8 2.28 2.52a2.45 2.45 0 0 1-2.45 2.66zm.08-4.31c-.69 0-1.33.55-1.33 1.68s.42 1.75 1.32 1.75c.65 0 1.35-.5 1.35-1.71s-.48-1.69-1.34-1.69zM278.11 38.94v-5h1v4.16h1.62v.84zM281.7 38.94v-5h1v4.16h1.62v.84zM285.29 38.94v-5H288v.81h-1.76V36h1.67v.79h-1.67v1.36H288v.82zM293.16 35a3.62 3.62 0 0 0-1.33-.25 1.6 1.6 0 0 0-1.7 1.74 1.5 1.5 0 0 0 1.6 1.69 2.08 2.08 0 0 0 .63-.09v-1.77h1v2.39a4.74 4.74 0 0 1-1.72.31 2.3 2.3 0 0 1-2.52-2.47 2.59 2.59 0 0 1 2.8-2.7 5 5 0 0 1 1.42.22zM294.73 38.94v-5h2.72v.81h-1.75V36h1.66v.79h-1.66v1.36h1.75v.82zM302.83 39c-1.53 0-2.28-1-2.28-2.53a2.44 2.44 0 0 1 2.45-2.62c1.33 0 2.27.8 2.27 2.52a2.45 2.45 0 0 1-2.44 2.63zm.08-4.31c-.69 0-1.33.55-1.33 1.68s.41 1.75 1.31 1.75c.66 0 1.35-.5 1.35-1.71s-.47-1.69-1.33-1.69zM307.39 34.75V36H309v.79h-1.62v2.11h-1v-5h2.68v.82zM315.4 38.94v-2.17h-2.13v2.17h-1v-5h1v2h2.13v-2h1v5zM317.81 38.94v-5h1v5zM324.05 35a3.62 3.62 0 0 0-1.33-.25 1.6 1.6 0 0 0-1.7 1.74 1.5 1.5 0 0 0 1.59 1.69 2.11 2.11 0 0 0 .64-.09v-1.77h1v2.39a4.77 4.77 0 0 1-1.71.31 2.31 2.31 0 0 1-2.54-2.47 2.6 2.6 0 0 1 2.81-2.7 5 5 0 0 1 1.42.22zM328.73 38.94v-2.17h-2.12v2.17h-1v-5h1v2h2.12v-2h1v5zM331.15 38.94v-5h2.72v.81h-1.76V36h1.67v.79h-1.67v1.36h1.76v.82zM337.61 38.94l-1.4-2.07v2.07h-1v-5h1.44c1.11 0 1.82.39 1.82 1.41a1.4 1.4 0 0 1-1.28 1.4l.41.55 1.2 1.68zm-1.05-4.25h-.38v1.45h.35c.57 0 .93-.29.93-.76s-.29-.69-.9-.69zM341.85 38.94v-5h1v4.16h1.62v.84zM345.44 38.94v-5h2.73v.81h-1.76V36h1.67v.79h-1.67v1.36h1.76v.82zM352.56 38.94l-.35-1h-1.89l-.35 1h-1l1.75-5h1.09l1.79 5zm-1.07-3.1a8 8 0 0 1-.23-.8c-.06.26-.14.55-.23.84l-.45 1.27H352zM357 38.94l-1.39-2.07v2.07h-1v-5h1.44c1.11 0 1.82.39 1.82 1.41a1.4 1.4 0 0 1-1.27 1.4c.14.18.28.38.4.55l1.21 1.68zm-1-4.25h-.38v1.45h.35c.58 0 .93-.29.93-.76s-.38-.69-.99-.69zM362.08 38.94l-1.47-2.53a12.06 12.06 0 0 1-.54-1.08V38.94h-.93v-5h1.25l1.4 2.39c.23.39.43.8.61 1.18 0-.5-.05-1.39-.05-2v-1.58h.94v5zM364.77 38.94v-5h1v5zM370.09 38.94l-1.47-2.53a8.35 8.35 0 0 1-.54-1.08V38.94h-.94v-5h1.26l1.39 2.39c.23.39.44.8.62 1.18 0-.5-.05-1.39-.05-2v-1.58h.93v5zM376.6 35a3.62 3.62 0 0 0-1.33-.25 1.61 1.61 0 0 0-1.7 1.74 1.5 1.5 0 0 0 1.6 1.69 2.15 2.15 0 0 0 .64-.09v-1.77h1v2.39a4.73 4.73 0 0 1-1.71.31 2.3 2.3 0 0 1-2.53-2.47 2.6 2.6 0 0 1 2.8-2.7 5 5 0 0 1 1.42.22zM378.3 39c-.36 0-.55-.17-.55-.51s.19-.51.55-.51.54.18.54.51-.18.51-.54.51z"/><path class="cls-2" d="M251.81 23.23v-1.8l1.72-.19c.38-.06.44-.14.44-.56V6.85c0-.42-.06-.53-.44-.56l-1.72-.2V4.27h8.07v1.82l-2.27.23c-.41 0-.44.14-.44.53v14h6.12c.31 0 .39 0 .44-.3l.44-2.67h2.3v5.36zM277.52 23.23l-.27-1.66h-.08a6.52 6.52 0 0 1-4.82 2c-3.44 0-3.91-2.41-3.91-4 0-2.8 1.7-4.15 5-4.43l3.47-.28v-1.42c0-1.76-.3-2.72-2.41-2.72-1.5 0-2.51.12-2.51 2l-3-.28c0-3.59 3.2-4 5.53-4 4 0 5.44 1.15 5.44 5v7.21c0 .44 0 .5.44.56l1.34.19v1.8zm-.52-6.31l-2.6.22c-2.05.2-2.68.79-2.68 2.13s.63 1.8 1.75 1.8a5.37 5.37 0 0 0 3.53-1.68zM292.57 23.23v-1.77l1.36-.17c.39-.05.44-.22.44-.56v-6.5c0-1.68-.19-3.09-1.94-3.09a6.9 6.9 0 0 0-3.75 1.46v8.08c0 .44 0 .5.44.56l1.45.19v1.8h-6.78V21.4l1.31-.16c.38-.06.44-.14.44-.56v-9c0-.31-.08-.51-.36-.59l-1.5-.53.27-1.8H288l.22 1.55h.11a8.8 8.8 0 0 1 5.11-1.85c3 0 4.08 1.91 4.08 5.13v7.1c0 .44 0 .5.44.56l1.5.19v1.8zM312.29 11a4.55 4.55 0 0 1 1 2.89c0 3.25-2.52 5-5.72 5a8.42 8.42 0 0 1-2.3-.25l-1.26 2.13 3.37.17c4.87.25 7.19.5 7.19 3.89 0 3-2.51 4.71-7.27 4.71s-6.54-1.31-6.54-3.45a4.12 4.12 0 0 1 1.67-3 1.85 1.85 0 0 1-1.26-1.74 2.35 2.35 0 0 1 .68-1.6c.44-.5 1-1.2 1.51-1.73a4.51 4.51 0 0 1-2.13-4.12c0-3.12 2.13-5.39 6-5.39a10.35 10.35 0 0 1 2.57.28h5v2zm-7.66 12.67a3.21 3.21 0 0 0-1 2c0 1.29 1.45 1.71 3.83 1.71 1.39 0 4.05-.22 4.05-2 0-1.23-1-1.29-2.63-1.4zm2.84-12.9a2.85 2.85 0 0 0-3.17 3.06c0 1.6.85 2.8 3.09 2.8a2.84 2.84 0 0 0 3.15-2.86 2.77 2.77 0 0 0-3.07-3.05zM325.31 23.23l-.31-1.66h-.08a6.52 6.52 0 0 1-4.81 2c-3.45 0-3.91-2.41-3.91-4 0-2.8 1.69-4.15 5-4.43l3.47-.28v-1.42c0-1.76-.3-2.72-2.4-2.72-1.51 0-2.52.12-2.52 2l-2.95-.28c0-3.59 3.2-4 5.52-4 4 0 5.44 1.15 5.44 5v7.21c0 .44 0 .5.44.56l1.34.19v1.8zm-.58-6.31l-2.6.22c-2.05.2-2.68.79-2.68 2.13s.63 1.8 1.76 1.8a5.35 5.35 0 0 0 3.52-1.68zM331.49 23.23V21.4l1.31-.16c.38-.06.44-.14.44-.56v-9a.53.53 0 0 0-.36-.59l-1.5-.53.27-1.8h4.08l.3 2h.08a5.06 5.06 0 0 1 4-2.36 10.05 10.05 0 0 1 2.14.25v4.6l-2.47-.11-.32-1.74c0-.25-.09-.31-.33-.31a4.81 4.81 0 0 0-2.77 1.46v8c0 .45.06.53.47.56l2.57.22v1.8zM352.88 23.23l-.28-1.66h-.08a6.52 6.52 0 0 1-4.81 2c-3.45 0-3.91-2.41-3.91-4 0-2.8 1.69-4.15 5-4.43l3.47-.28v-1.42c0-1.76-.3-2.72-2.4-2.72-1.51 0-2.52.12-2.52 2l-2.95-.28c0-3.59 3.2-4 5.52-4 4 0 5.44 1.15 5.44 5v7.21c0 .44 0 .5.44.56l1.34.19v1.8zm-.58-6.31l-2.6.22c-2.05.2-2.68.79-2.68 2.13s.63 1.8 1.75 1.8a5.37 5.37 0 0 0 3.53-1.68zM361.24 23.56c-1.12 0-1.69-.53-1.69-1.61a1.68 1.68 0 0 1 3.35 0 1.46 1.46 0 0 1-1.66 1.61z"/><path class="cls-1" d="M4.7 35.06v4.24h-1v-4.24H2.4v-.83H6v.83zM10.23 39.3v-2.2H8.07v2.2h-1v-5.07h1v2h2.16v-2h1v5.07zM12.69 39.3v-5.07h2.78v.82h-1.79v1.24h1.7v.8h-1.7v1.38h1.79v.83zM20.92 39.37a2.17 2.17 0 0 1-2.35-2.44 2.43 2.43 0 0 1 2.55-2.74 3.86 3.86 0 0 1 1.08.14l-.1.88a4 4 0 0 0-1-.15c-.95 0-1.42.72-1.42 1.7s.46 1.72 1.49 1.72a2.74 2.74 0 0 0 1-.21l.11.87a3.88 3.88 0 0 1-1.36.23zM25.5 39.38c-1.55 0-2.32-1-2.32-2.55a2.48 2.48 0 0 1 2.5-2.68A2.22 2.22 0 0 1 28 36.69a2.48 2.48 0 0 1-2.5 2.69zm.09-4.38c-.71 0-1.36.56-1.36 1.7s.43 1.78 1.34 1.78c.67 0 1.38-.51 1.38-1.73S26.46 35 25.59 35zM29.19 39.3v-5.07h1v4.21h1.65v.86zM32.85 39.3v-5.07h1v4.21h1.66v.86zM36.51 39.3v-5.07h2.77v.82h-1.79v1.24h1.7v.8h-1.7v1.38h1.79v.83zM44.52 35.28a3.77 3.77 0 0 0-1.35-.28 1.63 1.63 0 0 0-1.73 1.77 1.52 1.52 0 0 0 1.62 1.71 2.17 2.17 0 0 0 .65-.09v-1.75h1v2.42a4.85 4.85 0 0 1-1.74.32 2.34 2.34 0 0 1-2.58-2.5 2.64 2.64 0 0 1 2.86-2.73 5.17 5.17 0 0 1 1.44.22zM46.12 39.3v-5.07h2.78v.82h-1.79v1.24h1.69v.8h-1.69v1.38h1.79v.83zM54.37 39.38c-1.56 0-2.32-1-2.32-2.55a2.47 2.47 0 0 1 2.49-2.68 2.22 2.22 0 0 1 2.32 2.54 2.48 2.48 0 0 1-2.49 2.69zm.08-4.38c-.7 0-1.35.56-1.35 1.7s.42 1.78 1.34 1.78c.66 0 1.37-.51 1.37-1.73S55.33 35 54.45 35zM59 35.06v1.3h1.64v.81H59v2.13h-1v-5.07h2.73v.83zM67.17 39.3v-2.2H65v2.2h-1v-5.07h1v2h2.16v-2h1v5.07zM69.63 39.3v-5.07h1v5.07zM76 35.28a3.73 3.73 0 0 0-1.37-.28 1.64 1.64 0 0 0-1.73 1.77 1.52 1.52 0 0 0 1.62 1.71 2.13 2.13 0 0 0 .65-.09v-1.75h1v2.42a5 5 0 0 1-1.75.32 2.34 2.34 0 0 1-2.58-2.5 2.64 2.64 0 0 1 2.86-2.73 5.11 5.11 0 0 1 1.44.22zM80.75 39.3v-2.2h-2.16v2.2h-1v-5.07h1v2h2.16v-2h1v5.07zM83.22 39.3v-5.07H86v.82h-1.8v1.24h1.7v.8h-1.7v1.38H86v.83zM89.8 39.3l-1.42-2.1v2.1h-1v-5.07h1.46c1.13 0 1.86.39 1.86 1.43A1.42 1.42 0 0 1 89.38 37l.41.55L91 39.3zM88.73 35a2.13 2.13 0 0 0-.39 0v1.46h.35c.59 0 1-.3 1-.78s-.34-.68-.96-.68zM94.12 39.3v-5.07h1v4.21h1.66v.86zM97.78 39.3v-5.07h2.77v.82h-1.79v1.24h1.7v.8h-1.7v1.38h1.79v.83zM105 39.3l-.36-1h-1.93l-.35 1h-1l1.78-5.07h1.11l1.83 5.07zm-1.09-3.14a4.92 4.92 0 0 1-.23-.81c-.06.26-.15.55-.24.85l-.44 1.29h1.42zM109.51 39.3l-1.42-2.1v2.1h-1v-5.07h1.46c1.13 0 1.86.39 1.86 1.43a1.42 1.42 0 0 1-1.3 1.41l.41.55 1.23 1.71zm-1.08-4.3a2.09 2.09 0 0 0-.38 0v1.46h.35c.59 0 1-.3 1-.78s-.35-.68-.97-.68zM114.72 39.3l-1.49-2.56c-.23-.39-.4-.76-.56-1.09V39.3h-1v-5.07h1.28l1.42 2.42c.23.39.43.81.62 1.19V34.23H116v5.07zM117.47 39.3v-5.07h1v5.07zM122.88 39.3l-1.5-2.56a11.17 11.17 0 0 1-.55-1.09V39.3h-1v-5.07h1.28l1.42 2.42c.23.39.44.81.63 1.19V34.23h1v5.07zM129.51 35.28a3.69 3.69 0 0 0-1.35-.26 1.64 1.64 0 0 0-1.73 1.77 1.52 1.52 0 0 0 1.62 1.71 2.13 2.13 0 0 0 .65-.09v-1.77h1v2.42a5 5 0 0 1-1.75.32 2.34 2.34 0 0 1-2.58-2.5 2.64 2.64 0 0 1 2.86-2.73 5.11 5.11 0 0 1 1.44.22zM131.24 39.39c-.37 0-.56-.17-.56-.52s.19-.52.56-.52.56.18.56.52-.19.52-.56.52z"/><path class="cls-2" d="M11 13l-.31-1.64a.43.43 0 0 0-.32-.4 7.73 7.73 0 0 0-2-.28c-1.82 0-2.7.65-2.7 1.79 0 1.49 1.59 1.83 3.39 2.26 2.25.54 4.78 1.22 4.78 4.44s-2.79 4.59-6 4.59a13.57 13.57 0 0 1-5.35-1v-3.87l2.27.11.29 1.73c.06.22.08.31.34.39a8.13 8.13 0 0 0 2.56.4c1.77 0 2.85-.51 2.85-1.95 0-1.57-1.8-1.81-3.73-2.24-2.16-.48-4.44-1.16-4.44-4.16 0-3.42 2.87-4.7 6-4.7a14.58 14.58 0 0 1 4.78.82v3.82zM24.58 23.39V21.6l1.42-.17c.4-.05.45-.22.45-.56V14.3c0-1.7-.2-3.11-2-3.11a7.24 7.24 0 0 0-3.9 1.47v8.15c0 .46 0 .51.46.57l1.5.2v1.81h-7.07v-1.84l1.37-.17c.4-.06.45-.14.45-.57V11.7c0-.31-.08-.51-.37-.6l-1.56-.53.28-1.81h4.22l.23 1.55h.11a9.3 9.3 0 0 1 5.33-1.84c3.07 0 4.24 1.93 4.24 5.18v7.16c0 .46 0 .51.45.57l1.57.2v1.81zM33.21 9.89A12.35 12.35 0 0 1 39 8.47c4.9 0 6.72 3.37 6.72 7.45 0 5.4-2.93 7.81-6.83 7.81-3.42 0-5.92-1.9-5.92-6.82 0-.37 0-1.05.08-1.59h9.34c-.14-2.63-1.17-4.24-3.73-4.24a11.53 11.53 0 0 0-4.53 1zm2.91 7.72c0 2.75 1.33 3.63 2.9 3.63 1.85 0 3.13-1 3.33-3.63zM61.18 23.39l-2.71-10.53h-.08l-2.6 10.53h-4l-3.88-12c-.11-.34-.25-.4-.59-.48l-1.2-.26.37-1.86h6.41v1.86l-1.71.23 2.73 9.28h.12l2.87-11h3.53l2.76 10.92h.11L66 10.85l-1.74-.23.31-1.86h5.61v1.86l-1 .17c-.46.09-.6.2-.71.57l-3.7 12zM57.93 7.17a16.81 16.81 0 0 0 .17-2.24 3.45 3.45 0 0 0-.48-1.86c-.09-.17-.26-.43-.4-.65l2.11-1.33c.17.19.39.48.54.67a2.74 2.74 0 0 1 .59 1.76 15.48 15.48 0 0 1-.94 3.88zM82.93 22.4a12 12 0 0 1-5.47 1.33c-5.29 0-7-3.37-7-7.73 0-5.12 3-7.53 6.72-7.53s6 1.9 6 6.82c0 .37 0 1.11-.09 1.65H73.9c.15 2.63 1.17 4.18 3.93 4.18a10 10 0 0 0 4.19-1zm-3-7.81c0-2.78-1.28-3.66-2.82-3.66s-3 1.08-3.16 3.66zM86.46 29.39v-1.87l2-.23c.49-.05.57-.22.77-.62l1.46-3.31-5.24-12a.67.67 0 0 0-.6-.48l-1.17-.26.37-1.86h6.64v1.86l-1.86.23 3.56 8.75h.12l3.53-8.75-1.88-.23.31-1.86h5.87v1.86l-.94.14a.75.75 0 0 0-.71.49L92 27.27l2.85.28v1.84zM101.5 9.89a12.32 12.32 0 0 1 5.78-1.42c4.9 0 6.72 3.37 6.72 7.45 0 5.4-2.93 7.81-6.83 7.81-3.42 0-5.93-1.9-5.93-6.82 0-.37 0-1.05.09-1.59h9.34c-.14-2.63-1.17-4.24-3.73-4.24a11.53 11.53 0 0 0-4.53 1zm2.9 7.72c0 2.75 1.34 3.63 2.91 3.63 1.85 0 3.13-1 3.33-3.63zM118.84 23.39V21.6l1.62-.22c.4-.06.46-.14.46-.57V14h-.06a4.89 4.89 0 0 1-2.76 1 3.16 3.16 0 0 1-3.25-3.22 3.13 3.13 0 0 1 3.2-3.26 4 4 0 0 1 2.81 1.19h.06V5c0-.31-.08-.51-.37-.59l-1.62-.54.28-1.87h5v7.83a5.77 5.77 0 0 1 2.6-1.1 3.38 3.38 0 0 1 2 .79l-.85 1.75a2.67 2.67 0 0 0-1.14-.34 2.81 2.81 0 0 0-1.37.49l-1.2.7v8.69c0 .46 0 .51.46.57l1.6.2v1.81zm-1.74-11.72a1.33 1.33 0 0 0 1.43 1.33 4.48 4.48 0 0 0 2.47-1.1v-.12a4.23 4.23 0 0 0-2.54-1.38 1.28 1.28 0 0 0-1.36 1.27zM135 23.39V21.6l1.62-.22c.4-.06.45-.14.45-.57V5c0-.31-.08-.51-.37-.59l-1.62-.54.31-1.87h5v18.81c0 .46 0 .51.46.57l1.59.2v1.81zM155.84 22.4a12 12 0 0 1-5.46 1.33c-5.3 0-7-3.37-7-7.73 0-5.12 3-7.53 6.72-7.53s6 1.9 6 6.82c0 .37 0 1.11-.08 1.65h-9.2c.14 2.63 1.17 4.18 3.93 4.18a10.06 10.06 0 0 0 4.19-1zm-3-7.81c0-2.78-1.28-3.66-2.82-3.66s-3 1.08-3.16 3.66zM157.55 23.39V21.6l1.63-.22c.4-.06.45-.14.45-.57V5c0-.31-.08-.51-.37-.59l-1.62-.54.28-1.87h5v18.81c0 .46 0 .51.46.57l1.59.2v1.81zM166.47 9.89a12.32 12.32 0 0 1 5.78-1.42c4.9 0 6.72 3.37 6.72 7.45 0 5.4-2.94 7.81-6.84 7.81-3.41 0-5.92-1.9-5.92-6.82 0-.37 0-1.05.09-1.59h9.34c-.15-2.63-1.17-4.24-3.74-4.24a11.52 11.52 0 0 0-4.52 1zm2.9 7.72c0 2.75 1.34 3.63 2.91 3.63 1.85 0 3.13-1 3.33-3.63zM197.59 23.39V21.6l1.48-.19c.4-.06.46-.23.46-.57v-6.65c0-1.61-.2-3-1.79-3a6.9 6.9 0 0 0-3.51 1.13 8.74 8.74 0 0 1 .12 1.58v6.88c0 .46 0 .51.45.57l1.31.2v1.81h-7V21.6l1.51-.19c.42-.06.45-.23.45-.57v-6.51c0-1.64-.09-3.14-1.77-3.14a6 6 0 0 0-3.53 1.44v8.18c0 .46 0 .51.46.57l1.39.2v1.81h-6.94V21.6l1.37-.22c.39-.06.45-.14.45-.57V11.7c0-.31-.09-.51-.37-.6l-1.57-.53.29-1.81h4.21l.23 1.58h.11a7.79 7.79 0 0 1 4.87-1.9 3.59 3.59 0 0 1 3.39 1.7 8.8 8.8 0 0 1 5-1.7c3.16 0 4.18 1.9 4.18 4.84v7.5c0 .46 0 .51.46.57l1.57.2v1.81zm-4.73-16.22a15.29 15.29 0 0 0 .14-2.24 3.45 3.45 0 0 0-.48-1.86 5.78 5.78 0 0 0-.4-.65l2.11-1.33c.17.19.4.48.54.67a2.75 2.75 0 0 1 .6 1.76 15.48 15.48 0 0 1-.94 3.88zM207.22 22.06a1.52 1.52 0 0 1 1.78-1.64 1.49 1.49 0 0 1 1.68 1.64c0 1.1-.57 1.61-1.68 1.61s-1.78-.51-1.78-1.61z"/></svg>