<?xml version="1.0" encoding="UTF-8"?>
<svg id="Layer_2" data-name="Layer 2" xmlns="http://www.w3.org/2000/svg" viewBox="0 0 807.04 872.8">
  <defs>
    <style>
      .cls-1, .cls-2, .cls-3, .cls-4, .cls-5, .cls-6, .cls-7, .cls-8, .cls-9, .cls-10, .cls-11, .cls-12, .cls-13, .cls-14, .cls-15, .cls-16, .cls-17, .cls-18 {
        stroke: #1e223b;
      }

      .cls-1, .cls-2, .cls-3, .cls-4, .cls-5, .cls-6, .cls-9, .cls-10, .cls-11, .cls-12, .cls-15, .cls-18 {
        stroke-linecap: round;
        stroke-linejoin: round;
      }

      .cls-1, .cls-2, .cls-4, .cls-6, .cls-10, .cls-11, .cls-12, .cls-15, .cls-18 {
        fill: none;
      }

      .cls-2 {
        stroke-dasharray: 0 0 6 8;
      }

      .cls-2, .cls-3, .cls-4, .cls-5, .cls-6, .cls-7, .cls-8, .cls-9, .cls-10, .cls-12, .cls-15 {
        stroke-width: 2px;
      }

      .cls-3 {
        opacity: .4;
      }

      .cls-3, .cls-5 {
        fill: #028b9e;
      }

      .cls-3, .cls-6, .cls-19, .cls-20, .cls-21, .cls-7, .cls-22, .cls-23, .cls-24, .cls-25, .cls-12, .cls-15, .cls-16, .cls-26, .cls-17 {
        isolation: isolate;
      }

      .cls-4 {
        stroke-dasharray: 0 0 5.95 7.94;
      }

      .cls-27 {
        opacity: .1;
      }

      .cls-28, .cls-25, .cls-26 {
        fill: #0270bb;
      }

      .cls-29 {
        fill: #f35045;
      }

      .cls-30 {
        fill: #f73e39;
      }

      .cls-31 {
        fill: #f73e59;
      }

      .cls-32, .cls-19, .cls-9, .cls-22, .cls-23, .cls-24 {
        fill: #fff;
      }

      .cls-33 {
        fill: #f2a197;
      }

      .cls-34 {
        fill: #efefef;
      }

      .cls-35 {
        fill: #fdb3a6;
      }

      .cls-36 {
        fill: #dd4814;
      }

      .cls-37 {
        fill: #c6c6c6;
      }

      .cls-38, .cls-20, .cls-7 {
        fill: #1e223b;
      }

      .cls-39 {
        fill: #424960;
      }

      .cls-40 {
        fill: #363d56;
      }

      .cls-41 {
        fill: #263c72;
      }

      .cls-42 {
        fill: #2f4584;
      }

      .cls-43 {
        fill: #383838;
      }

      .cls-44 {
        fill: #777bb4;
      }

      .cls-6, .cls-7 {
        opacity: .15;
      }

      .cls-19, .cls-12, .cls-45 {
        opacity: .32;
      }

      .cls-20 {
        opacity: .2;
      }

      .cls-21 {
        fill: #8289a3;
        opacity: .28;
      }

      .cls-7 {
        stroke-miterlimit: 11;
      }

      .cls-8 {
        fill: #e44d26;
      }

      .cls-8, .cls-13, .cls-14, .cls-16, .cls-17 {
        stroke-miterlimit: 10;
      }

      .cls-22 {
        opacity: .5;
      }

      .cls-23 {
        opacity: .59;
      }

      .cls-11 {
        stroke-width: 2px;
      }

      .cls-24, .cls-46 {
        opacity: .39;
      }

      .cls-25 {
        opacity: .47;
      }

      .cls-13, .cls-16 {
        fill: #ff5855;
      }

      .cls-14 {
        fill: #4ad3a5;
      }

      .cls-15 {
        opacity: .26;
      }

      .cls-16 {
        opacity: .88;
      }

      .cls-47 {
        opacity: .49;
      }

      .cls-26 {
        opacity: .12;
      }

      .cls-17 {
        fill: #161616;
        opacity: .11;
      }

      .cls-18 {
        stroke-width: 3px;
      }
    </style>
  </defs>
  <g id="Layer_1-2" data-name="Layer 1">
    <g>
      <g class="cls-46">
        <circle class="cls-32" cx="47.44" cy="330.3" r="20.4"/>
        <circle class="cls-32" cx="47.44" cy="330.3" r="8.7"/>
        <path class="cls-32" d="M79.24,301.1l-12.6,7.3h0c-.9-.8-1.9-1.5-2.9-2.2h0l3.8-14.1c.6-2.3-.8-4.7-3.1-5.4l-9.8-2.6c-2.3-.6-4.7,.8-5.4,3.1l-3.8,14.1h0c-1.2,.1-2.4,.2-3.6,.5h0l-7.3-12.6c-1.2-2.1-3.9-2.8-6-1.6h0l-8.8,5.1c-2.1,1.2-2.8,3.9-1.6,6h0l7.3,12.6h0c-.8,.9-1.5,1.9-2.2,2.9h0l-14.1-3.8c-2.3-.6-4.7,.8-5.4,3.1l-2.6,9.8c-.6,2.3,.8,4.7,3.1,5.4l14.1,3.8h0c.1,1.2,.2,2.4,.5,3.6h0l-12.6,7.3c-2.1,1.2-2.8,3.9-1.6,6l5.1,8.8c1.2,2.1,3.9,2.8,6,1.6h0l12.6-7.3h0c.9,.8,1.9,1.6,2.9,2.3h-.1l-3.8,14.1c-.6,2.3,.8,4.7,3.1,5.4l9.8,2.6c2.3,.6,4.7-.8,5.4-3.1l3.8-14.1h-.1c1.2-.1,2.5-.2,3.7-.5h-.1l7.3,12.6c1.2,2.1,3.9,2.8,6,1.6h0l8.8-5.1c2.1-1.2,2.8-3.9,1.6-6l-7.3-12.6h-.1c.8-.9,1.6-1.9,2.3-3v.1l14.1,3.8c2.3,.6,4.7-.8,5.4-3.1h0l2.6-9.8c.6-2.3-.8-4.7-3.1-5.4h0l-14.1-3.8v.1c-.1-1.2-.2-2.5-.5-3.7h0l12.6-7.3c2.1-1.2,2.8-3.9,1.6-6l-5.1-8.8c-1.1-2.2-3.7-2.9-5.8-1.7Z"/>
      </g>
      <circle class="cls-24" cx="172.04" cy="92.5" r="51.5"/>
      <polygon class="cls-10" points="171.34 93 199.24 76.8 199.14 107.1 171.34 123.3 171.34 93"/>
      <polygon class="cls-10" points="145.04 77.8 172.84 61.6 199.24 76.8 171.34 93 145.04 77.8"/>
      <polygon class="cls-5" points="145.04 77.8 172.84 61.6 199.24 76.8 171.34 93 145.04 77.8"/>
      <polygon class="cls-3" points="171.34 93 171.34 123.3 144.94 108.1 145.04 77.8 171.34 93"/>
      <polygon class="cls-10" points="171.34 93 171.34 123.3 144.94 108.1 145.04 77.8 171.34 93"/>
      <circle class="cls-10" cx="172.04" cy="92.5" r="51.5"/>
      <path class="cls-17" d="M248.84,493.3h282c9.9,0,18,8.1,18,18v202c0,9.9-8.1,18-18,18H248.84c-9.9,0-18-8.1-18-18v-202c0-9.9,8.1-18,18-18Z"/>
      <path class="cls-17" d="M237.84,479.3h304c3.9,0,7,3.1,7,7h0c0,3.9-3.1,7-7,7H237.84c-3.9,0-7-3.1-7-7h0c0-3.8,3.1-7,7-7Z"/>
      <path class="cls-42" d="M238.84,485.3h282c9.9,0,18,8.1,18,18v202c0,9.9-8.1,18-18,18H238.84c-9.9,0-18-8.1-18-18v-202c0-9.9,8.1-18,18-18Z"/>
      <path class="cls-32" d="M238.84,485.3h282c9.9,0,18,8.1,18,18v196c0,9.9-8.1,18-18,18H238.84c-9.9,0-18-8.1-18-18v-196c0-9.9,8.1-18,18-18Z"/>
      <path class="cls-17" d="M427.34,703.2h-1.5c-3.3,0-6,2.7-6,6v7.2c0,1.7-1.3,3-3,3s-3-1.3-3-3v-7.2c0-3.3-2.7-6-6-6h-1.5c-3.3,0-6,2.7-6,6v7.2c0,1.7-1.3,3-3,3s-3-1.3-3-3v-7.2c0-3.3-2.7-6-6-6h-1.5c-3.3,0-6,2.7-6,6v7.2c0,1.7-1.3,3-3,3s-3-1.3-3-3v-45c0-3.3-2.7-6-6-6h-1.5c-3.3,0-6,2.7-6,6v78.4l-11.5-19.9c-1.7-2.9-5.3-3.9-8.2-2.2h0l-1.3,.8c-2.9,1.7-3.9,5.3-2.2,8.2h0l24,41.6c1.8,4.6,6.2,7.6,11.2,7.6h2v24.7h-4v24.9h-1.9c-3.6,0-6.5,2.9-6.5,6.5h0v30.3h68.8v-30.3c0-3.6-2.9-6.5-6.5-6.5h-1.9v-24.9h-4v-24.7h2c6.6,0,12-5.4,12-12v-64.7c0-3.3-2.7-6-6-6Z"/>
      <path class="cls-17" d="M312.44,699.3c6.2,0,11.4-4.7,11.9-10.9l22.1-38.3c1.7-2.9,.7-6.5-2.2-8.2h0l-1.3-.8c-2.9-1.7-6.5-.7-8.2,2.2h0l-10.4,18v-76.5c0-3.3-2.7-6-6-6h-1.5c-3.3,0-6,2.7-6,6v45c0,1.7-1.3,3-3,3s-3-1.3-3-3v-53.7c0-3.3-2.7-6-6-6h-1.5c-3.3,0-6,2.7-6,6v53.7c0,1.7-1.3,3-3,3s-3-1.3-3-3v-45c0-3.3-2.7-6-6-6h-1.5c-3.3,0-6,2.7-6,6v45c0,1.7-1.3,3-3,3s-3-1.3-3-3v-30.8c0-3.3-2.7-6-6-6h-1.5c-3.3,0-6,2.7-6,6v88.2c0,6.6,5.4,12,12,12h2.6v24.7h-4.5v24.9h-1.9c-3.6,0-6.5,2.9-6.5,6.5v116.8h68.8v-116.8c0-3.6-2.9-6.5-6.5-6.5h-2v-24.9h-3.4v-24.7h1.5v.1Z"/>
      <path class="cls-7" d="M239.34,502.8h281c2.2,0,4,1.8,4,4v113c0,2.2-1.8,4-4,4H239.34c-2.2,0-4-1.8-4-4v-113c0-2.2,1.8-4,4-4Z"/>
      <path class="cls-10" d="M238.84,485.3h282c9.9,0,18,8.1,18,18v196c0,9.9-8.1,18-18,18H238.84c-9.9,0-18-8.1-18-18v-196c0-9.9,8.1-18,18-18Z"/>
      <path class="cls-10" d="M238.84,485.3h282c9.9,0,18,8.1,18,18v202c0,9.9-8.1,18-18,18H238.84c-9.9,0-18-8.1-18-18v-202c0-9.9,8.1-18,18-18Z"/>
      <path class="cls-42" d="M238.84,253.3h282c9.9,0,18,8.1,18,18v196c0,9.9-8.1,18-18,18H238.84c-9.9,0-18-8.1-18-18v-196c0-9.9,8.1-18,18-18Z"/>
      <path class="cls-10" d="M238.84,253.3h282c9.9,0,18,8.1,18,18v196c0,9.9-8.1,18-18,18H238.84c-9.9,0-18-8.1-18-18v-196c0-9.9,8.1-18,18-18Z"/>
      <path class="cls-32" d="M532.84,271.3v196c0,6.6-5.4,12-12,12H238.84c-6.6,0-12-5.4-12-12v-196c0-6.6,5.4-12,12-12h282c6.6,0,12,5.4,12,12Z"/>
      <rect class="cls-13" x="250.84" y="283.3" width="258" height="172"/>
      <path class="cls-10" d="M532.84,271.3v196c0,6.6-5.4,12-12,12H238.84c-6.6,0-12-5.4-12-12v-196c0-6.6,5.4-12,12-12h282c6.6,0,12,5.4,12,12Z"/>
      <rect class="cls-10" x="250.84" y="283.3" width="258" height="172"/>
      <g class="cls-27">
        <path class="cls-38" d="M341.14,633.3h77.5c2.3,0,4.2,1.9,4.2,4.2v51.5c0,2.3-1.9,4.2-4.2,4.2h-77.5c-2.3,0-4.2-1.9-4.2-4.2v-51.4c-.1-2.4,1.8-4.3,4.2-4.3Z"/>
      </g>
      <path class="cls-10" d="M341.14,633.3h77.5c2.3,0,4.2,1.9,4.2,4.2v51.5c0,2.3-1.9,4.2-4.2,4.2h-77.5c-2.3,0-4.2-1.9-4.2-4.2v-51.4c-.1-2.4,1.8-4.3,4.2-4.3Z"/>
      <rect class="cls-41" x="342.34" y="715.3" width="76" height="8"/>
      <rect class="cls-10" x="342.34" y="715.3" width="76" height="8"/>
      <path class="cls-17" d="M292.84,229.3h188c3.3,0,6,2.7,6,6v212c0,3.3-2.7,6-6,6h-188c-3.3,0-6-2.7-6-6V235.3c0-3.3,2.7-6,6-6Z"/>
      <path class="cls-32" d="M287.34,225.3h188c3.3,0,6,2.7,6,6v212c0,3.3-2.7,6-6,6h-188c-3.3,0-6-2.7-6-6V231.3c0-3.3,2.7-6,6-6Z"/>
      <path class="cls-34" d="M281.34,415.3h200v28c0,3.3-2.7,6-6,6h-188c-3.3,0-6-2.7-6-6v-28h0Z"/>
      <path class="cls-10" d="M287.34,225.3h188c3.3,0,6,2.7,6,6v212c0,3.3-2.7,6-6,6h-188c-3.3,0-6-2.7-6-6V231.3c0-3.3,2.7-6,6-6Z"/>
      <path class="cls-40" d="M286.74,225.3h189.1c3,0,5.4,2.4,5.4,5.4h0v12.6h-199.9v-12.6c0-2.9,2.4-5.4,5.4-5.4h0Z"/>
      <path class="cls-10" d="M286.74,225.3h189.1c3,0,5.4,2.4,5.4,5.4h0v12.6h-199.9v-12.6c0-2.9,2.4-5.4,5.4-5.4h0Z"/>
      <rect class="cls-39" x="281.34" y="243.3" width="200" height="8"/>
      <rect class="cls-10" x="281.34" y="243.3" width="200" height="8"/>
      <circle class="cls-30" cx="292.54" cy="234.3" r="3"/>
      <circle class="cls-10" cx="292.54" cy="234.3" r="3"/>
      <circle class="cls-43" cx="304.74" cy="234.3" r="3"/>
      <circle class="cls-10" cx="304.74" cy="234.3" r="3"/>
      <circle class="cls-37" cx="316.04" cy="234.3" r="3"/>
      <circle class="cls-10" cx="316.04" cy="234.3" r="3"/>
      <path class="cls-21" d="M332.84,231.3h62c1.7,0,3,1.3,3,3h0c0,1.7-1.3,3-3,3h-62c-1.7,0-3-1.3-3-3h0c0-1.6,1.3-3,3-3Z"/>
      <circle class="cls-10" cx="47.44" cy="330.3" r="20.4"/>
      <circle class="cls-10" cx="47.44" cy="330.3" r="8.7"/>
      <path class="cls-10" d="M79.24,301.1l-12.6,7.3h0c-.9-.8-1.9-1.5-2.9-2.2h0l3.8-14.1c.6-2.3-.8-4.7-3.1-5.4l-9.8-2.6c-2.3-.6-4.7,.8-5.4,3.1l-3.8,14.1h0c-1.2,.1-2.4,.2-3.6,.5h0l-7.3-12.6c-1.2-2.1-3.9-2.8-6-1.6h0l-8.8,5.1c-2.1,1.2-2.8,3.9-1.6,6h0l7.3,12.6h0c-.8,.9-1.5,1.9-2.2,2.9h0l-14.1-3.8c-2.3-.6-4.7,.8-5.4,3.1l-2.6,9.8c-.6,2.3,.8,4.7,3.1,5.4l14.1,3.8h0c.1,1.2,.2,2.4,.5,3.6h0l-12.6,7.3c-2.1,1.2-2.8,3.9-1.6,6l5.1,8.8c1.2,2.1,3.9,2.8,6,1.6h0l12.6-7.3h0c.9,.8,1.9,1.6,2.9,2.3h-.1l-3.8,14.1c-.6,2.3,.8,4.7,3.1,5.4l9.8,2.6c2.3,.6,4.7-.8,5.4-3.1l3.8-14.1h-.1c1.2-.1,2.5-.2,3.7-.5h-.1l7.3,12.6c1.2,2.1,3.9,2.8,6,1.6h0l8.8-5.1c2.1-1.2,2.8-3.9,1.6-6l-7.3-12.6h-.1c.8-.9,1.6-1.9,2.3-3v.1l14.1,3.8c2.3,.6,4.7-.8,5.4-3.1h0l2.6-9.8c.6-2.3-.8-4.7-3.1-5.4h0l-14.1-3.8v.1c-.1-1.2-.2-2.5-.5-3.7h0l12.6-7.3c2.1-1.2,2.8-3.9,1.6-6l-5.1-8.8c-1.1-2.2-3.7-2.9-5.8-1.7Z"/>
      <g class="cls-45">
        <circle class="cls-1" cx="321.24" cy="284.9" r="7.7"/>
        <circle class="cls-1" cx="321.24" cy="284.9" r="3.3"/>
        <path class="cls-1" d="M337.64,285.6l-5.3-1.4h0c0-.5-.1-.9-.2-1.4h0l4.8-2.8c.8-.5,1.1-1.5,.6-2.3l-1.9-3.3c-.5-.8-1.5-1.1-2.3-.6h0l-4.8,2.8h0c-.3-.3-.7-.6-1.1-.8h0l1.4-5.3c.2-.9-.3-1.8-1.2-2l-3.7-1c-.9-.2-1.8,.3-2,1.2l-1.4,5.3h0c-.5,0-.9,.1-1.4,.2h0l-2.8-4.8c-.5-.8-1.5-1.1-2.3-.6l-3.3,1.9c-.8,.5-1.1,1.5-.6,2.3l2.8,4.8h0c-.3,.3-.6,.7-.8,1.1h0l-5.3-1.4c-.9-.2-1.8,.3-2,1.2h0l-1,3.7c-.2,.9,.3,1.8,1.2,2l5.3,1.4h0c0,.5,.1,.9,.2,1.4h0l-4.8,2.8c-.8,.5-1.1,1.5-.6,2.3h0l1.9,3.3c.5,.8,1.5,1.1,2.3,.6h0l4.8-2.8h0c.4,.3,.7,.6,1.1,.9h0l-1.4,5.3c-.2,.9,.3,1.8,1.2,2h0l3.7,1c.9,.2,1.8-.3,2-1.2l1.4-5.3h0c.5,0,.9-.1,1.4-.2h0l2.8,4.8c.5,.8,1.5,1.1,2.3,.6l3.3-1.9c.8-.5,1.1-1.5,.6-2.3l-2.8-4.8h0c.3-.4,.6-.7,.9-1.1h0l5.3,1.4c.9,.2,1.8-.3,2-1.2l1-3.7c.1-1-.4-1.9-1.3-2.1Z"/>
      </g>
      <g class="cls-47">
        <circle class="cls-32" cx="701.54" cy="121.2" r="19.1"/>
        <circle class="cls-32" cx="701.54" cy="121.2" r="8.2"/>
        <path class="cls-32" d="M731.24,93.8l-11.8,6.8h0c-.9-.8-1.8-1.5-2.7-2.1h0l3.5-13.2c.6-2.2-.7-4.4-2.9-5l-9.2-2.5c-2.2-.6-4.4,.7-5,2.9h0l-3.5,13.2h0c-1.1,.1-2.3,.2-3.4,.4h0l-6.8-11.8c-1.1-2-3.6-2.6-5.6-1.5l-8.3,4.8c-2,1.1-2.6,3.6-1.5,5.6h0l6.8,11.8h0c-.7,.9-1.4,1.8-2.1,2.7h0l-13.2-3.5c-2.2-.6-4.4,.7-5,2.9l-2.5,9.2c-.6,2.2,.7,4.4,2.9,5l13.2,3.5h0c.1,1.1,.2,2.3,.4,3.4h0l-11.8,6.8c-2,1.1-2.6,3.6-1.5,5.6h0l4.8,8.3c1.1,2,3.6,2.6,5.6,1.5l11.8-6.8h0c.9,.8,1.8,1.5,2.8,2.1h-.1l-3.5,13.2c-.6,2.2,.7,4.4,2.9,5h0l9.2,2.5c2.2,.6,4.4-.7,5-2.9h0l3.5-13.2h-.1c1.2-.1,2.3-.2,3.5-.5h-.1l6.8,11.8c1.1,2,3.6,2.6,5.6,1.5h0l8.3-4.8c2-1.1,2.6-3.6,1.5-5.6h0l-6.8-11.8h-.1c.8-.9,1.5-1.8,2.1-2.8v.1l13.2,3.5c2.2,.6,4.4-.7,5-2.9l2.5-9.2c.6-2.2-.7-4.4-2.9-5l-13.2-3.5v.1c-.1-1.2-.2-2.3-.5-3.4h0l11.8-6.8c2-1.1,2.6-3.6,1.5-5.6h0l-4.8-8.3c-.8-1.9-3.3-2.6-5.3-1.5h0Z"/>
      </g>
      <circle class="cls-10" cx="701.54" cy="121.2" r="19.1"/>
      <circle class="cls-10" cx="701.54" cy="121.2" r="8.2"/>
      <path class="cls-10" d="M741.94,122.9l-13.2-3.5h0c-.1-1.1-.2-2.3-.4-3.4h0l11.8-6.8c2-1.1,2.6-3.6,1.5-5.6h0l-4.8-8.3c-1.1-2-3.6-2.6-5.6-1.5l-11.8,6.8h0c-.9-.7-1.8-1.4-2.7-2.1h0l3.5-13.2c.6-2.2-.7-4.4-2.9-5l-9.2-2.5c-2.2-.6-4.4,.7-5,2.9h0l-3.5,13.2h0c-1.1,.1-2.3,.2-3.4,.4h0l-6.8-11.8c-1.1-2-3.6-2.6-5.6-1.5l-8.3,4.8c-2,1.1-2.6,3.6-1.5,5.6h0l6.8,11.8h0c-.8,.9-1.5,1.8-2.1,2.7h0l-13.2-3.5c-2.2-.6-4.4,.7-5,2.9l-2.5,9.2c-.6,2.2,.7,4.4,2.9,5l13.2,3.5v-.1c.1,1.2,.2,2.3,.5,3.4v-.1l-11.8,6.8c-2,1.1-2.6,3.6-1.5,5.6h0l4.8,8.3c1.1,2,3.6,2.6,5.6,1.5l11.8-6.8v-.1c.9,.8,1.8,1.5,2.8,2.1h-.1l-3.5,13.2c-.6,2.2,.7,4.4,2.9,5h0l9.2,2.5c2.2,.6,4.4-.7,5-2.9h0l3.5-13.2h-.1c1.2-.1,2.3-.2,3.5-.5h-.1l6.8,11.8c1.1,2,3.6,2.6,5.6,1.5h0l8.3-4.8c2-1.1,2.6-3.6,1.5-5.6h0l-6.8-11.8h-.1c.8-.9,1.5-1.8,2.1-2.8v.1l13.2,3.5c2.2,.6,4.4-.7,5-2.9l2.5-9.2c.6-1.8-.6-4-2.8-4.6Z"/>
      <path class="cls-32" d="M456.84,122.9h-26.2l-27.3,18.2v-18.2h-19.4c-5,0-9.1-4.1-9.1-9.1h0V63.7c0-5,4.1-9.1,9.1-9.1h72.9c5,0,9.1,4.1,9.1,9.1h0v50.1c0,5-4.1,9.1-9.1,9.1h0Z"/>
      <path class="cls-10" d="M456.84,122.9h-26.2l-27.3,18.2v-18.2h-19.4c-5,0-9.1-4.1-9.1-9.1h0V63.7c0-5,4.1-9.1,9.1-9.1h72.9c5,0,9.1,4.1,9.1,9.1h0v50.1c0,5-4.1,9.1-9.1,9.1h0Z"/>
      <path class="cls-22" d="M457.74,45.3h17l17.7,11.8v-11.8h12.5c3.3,0,5.9-2.6,5.9-5.9h0V6.9c0-3.3-2.6-5.9-5.9-5.9h-47.2c-3.3,0-5.9,2.6-5.9,5.9h0V39.4c0,3.2,2.6,5.9,5.9,5.9h0Z"/>
      <path class="cls-10" d="M457.74,45.3h17l17.7,11.8v-11.8h12.5c3.3,0,5.9-2.6,5.9-5.9h0V6.9c0-3.3-2.6-5.9-5.9-5.9h-47.2c-3.3,0-5.9,2.6-5.9,5.9h0V39.4c0,3.2,2.6,5.9,5.9,5.9h0Z"/>
      <path class="cls-36" d="M519.34,681.6c0,7.3-5.9,13.2-13.2,13.2s-13.2-5.9-13.2-13.2,5.9-13.2,13.2-13.2c7.2-.1,13.2,5.9,13.2,13.2h0Z"/>
      <path class="cls-32" d="M497.04,679.8c-1,0-1.8,.8-1.8,1.8s.8,1.8,1.8,1.8,1.8-.8,1.8-1.8-.8-1.8-1.8-1.8h0Zm12.6,8c-.8,.5-1.1,1.6-.6,2.4s1.6,1.1,2.4,.6,1.1-1.6,.6-2.4h0c-.4-.8-1.5-1.1-2.4-.6h0Zm-8.7-6.2c0-1.7,.8-3.3,2.2-4.2l-1.3-2.2c-1.6,1-2.7,2.6-3.2,4.5,1.1,.9,1.2,2.4,.4,3.5-.1,.1-.2,.3-.4,.4,.5,1.8,1.6,3.4,3.2,4.5l1.3-2.2c-1.4-1.1-2.2-2.7-2.2-4.3h0Zm5.1-5.2c2.7,0,4.9,2,5.1,4.7h2.5c-.1-1.9-.9-3.7-2.3-5-1.3,.5-2.7-.2-3.2-1.4-.1-.2-.1-.3-.1-.5-1.8-.5-3.8-.3-5.5,.5l1.2,2.2c.8-.3,1.6-.5,2.3-.5h0Zm0,10.3c-.8,0-1.5-.2-2.2-.5l-1.2,2.2c1.7,.8,3.6,1,5.5,.5,.2-1.4,1.5-2.3,2.8-2.1,.2,0,.3,.1,.5,.1,1.3-1.3,2.2-3.1,2.3-5h-2.5c-.3,2.8-2.5,4.8-5.2,4.8h0Zm3.6-11.4c.8,.5,1.9,.2,2.4-.6s.2-1.9-.6-2.4-1.9-.2-2.4,.6-.2,1.9,.6,2.4h0Z"/>
      <polygon class="cls-44" points="62.44 562.4 90.54 546.1 90.44 576.6 62.34 592.9 62.44 562.4"/>
      <polygon class="cls-10" points="62.44 562.4 90.54 546.1 90.44 576.6 62.34 592.9 62.44 562.4"/>
      <polygon class="cls-16" points="35.94 547 63.94 530.7 90.54 546.1 62.44 562.4 35.94 547"/>
      <polygon class="cls-28" points="62.44 562.4 62.34 592.9 35.84 577.5 35.94 547 62.44 562.4"/>
      <polygon class="cls-10" points="35.94 547 63.94 530.7 90.54 546.1 62.44 562.4 35.94 547"/>
      <polygon class="cls-10" points="62.44 562.4 62.34 592.9 35.84 577.5 35.94 547 62.44 562.4"/>
      <circle class="cls-23" cx="41.84" cy="513.3" r="6"/>
      <circle class="cls-10" cx="41.84" cy="513.3" r="6"/>
      <circle class="cls-23" cx="62.34" cy="513.3" r="6"/>
      <circle class="cls-10" cx="62.34" cy="513.3" r="6"/>
      <circle class="cls-23" cx="82.84" cy="513.3" r="6"/>
      <circle class="cls-19" cx="766.54" cy="390.6" r="39.5"/>
      <circle class="cls-10" cx="82.84" cy="513.3" r="6"/>
      <polygon class="cls-26" points="767.14 391 745.84 378.6 745.84 401.8 767.24 414.2 767.14 391"/>
      <polygon class="cls-10" points="767.14 391 745.84 378.6 745.84 401.8 767.24 414.2 767.14 391"/>
      <polygon class="cls-25" points="787.34 379.4 765.94 367 745.84 378.6 767.14 391 787.34 379.4"/>
      <polygon class="cls-10" points="787.34 379.4 765.94 367 745.84 378.6 767.14 391 787.34 379.4"/>
      <polygon class="cls-9" points="767.14 391 767.24 414.2 787.34 402.6 787.34 379.4 767.14 391"/>
      <polygon class="cls-10" points="767.14 391 767.24 414.2 787.34 402.6 787.34 379.4 767.14 391"/>
      <circle class="cls-10" cx="766.54" cy="390.6" r="39.5"/>
      <path class="cls-44" d="M579.74,144.1h89.6c6.6,0,11.9,5.3,11.9,11.9v35.6c0,6.6-5.3,11.9-11.9,11.9h-89.6c-6.6,0-11.9-5.3-11.9-11.9v-35.7c0-6.5,5.3-11.8,11.9-11.8Z"/>
      <path class="cls-10" d="M579.74,144.1h89.6c6.6,0,11.9,5.3,11.9,11.9v35.6c0,6.6-5.3,11.9-11.9,11.9h-89.6c-6.6,0-11.9-5.3-11.9-11.9v-35.7c0-6.5,5.3-11.8,11.9-11.8Z"/>
      <path class="cls-28" d="M674.94,415.1h70c5,0,9,4,9,9v27.1c0,5-4,9-9,9h-70c-5,0-9-4-9-9v-27.1c0-5,4.1-9,9-9Z"/>
      <path class="cls-10" d="M674.94,415.1h70c5,0,9,4,9,9v27.1c0,5-4,9-9,9h-70c-5,0-9-4-9-9v-27.1c0-5,4.1-9,9-9Z"/>
      <path class="cls-32" d="M679.54,437.4c0-6.5,4.8-10.8,11-10.8,3.4-.1,6.7,1.7,8.4,4.7l-3.1,1.6c-1.1-1.9-3.1-3-5.3-3-4.1,0-7.2,3.1-7.2,7.6s3.1,7.6,7.2,7.6c2.2,0,4.2-1.2,5.3-3l3.1,1.6c-1.7,3-5,4.8-8.4,4.7-6.2-.2-11-4.5-11-11Z"/>
      <path class="cls-32" d="M702.84,444.9l2.1-2.9c1.7,1.9,4.1,2.9,6.6,2.9,3,0,4.2-1.5,4.2-2.9,0-4.4-12.2-1.7-12.2-9.3,0-3.5,3-6.1,7.6-6.1,2.9-.1,5.7,1,7.8,2.9l-2.1,2.7c-1.6-1.6-3.8-2.5-6.1-2.4-2.1,0-3.5,1.1-3.5,2.6,0,3.9,12.2,1.5,12.2,9.3,0,3.5-2.5,6.5-8.1,6.5-3.2,.2-6.3-1-8.5-3.3Z"/>
      <path class="cls-32" d="M723.84,444.9l2.1-2.9c1.7,1.9,4.1,2.9,6.6,2.9,3,0,4.2-1.5,4.2-2.9,0-4.4-12.2-1.7-12.2-9.3,0-3.5,3-6.1,7.6-6.1,2.9-.1,5.7,1,7.8,2.9l-2.1,2.7c-1.6-1.6-3.8-2.5-6.1-2.4-2.1,0-3.5,1.1-3.5,2.6,0,3.9,12.2,1.5,12.2,9.3,0,3.5-2.5,6.5-8.1,6.5-3.2,.2-6.3-1-8.5-3.3Z"/>
      <path class="cls-32" d="M584.74,187.1v-26.6h11.7c5.6,0,8.7,3.8,8.7,8.4s-3.1,8.3-8.7,8.3h-7.1v10l-4.6-.1Zm15.6-18.3c0-2.6-1.9-4.2-4.5-4.2h-6.4v8.4h6.4c2.6,0,4.5-1.7,4.5-4.2h0Z"/>
      <path class="cls-32" d="M630.54,187.1v-11.7h-13.9v11.7h-4.7v-26.6h4.7v10.9h13.9v-10.9h4.7v26.6h-4.7Z"/>
      <path class="cls-32" d="M643.94,187.1v-26.6h11.7c5.6,0,8.7,3.8,8.7,8.4s-3.1,8.3-8.7,8.3h-7.1v10l-4.6-.1Zm15.6-18.3c0-2.6-1.9-4.2-4.5-4.2h-6.4v8.4h6.4c2.6,0,4.5-1.7,4.5-4.2h0Z"/>
      <path class="cls-29" d="M448.44,424.6c.3,.4,.5,.4,.7,.3s11.5-3.9,11.8-4,.2-.2,.1-.4-3.9-5.3-4-5.6-.3-.2-.6-.1l-11.9,3.1c-.1-.1,3.6,6.3,3.9,6.7h0Z"/>
      <path class="cls-29" d="M461.84,419.4v-6l-3.7,1c1,1.4,2.6,3.5,3.7,5h0Z"/>
      <path class="cls-29" d="M458.14,407.1c-.2,0-4.3,.8-4.5,.8s-.2,.2-.1,.3l3.6,4.9s4.4-1.1,4.6-1.1h.1v-.7c-.8-1-3-3.8-3.2-4-.2-.3-.3-.3-.5-.2h0Z"/>
      <path class="cls-29" d="M432.54,399.4c.9,0,1,.2,1.3,.7l9.7,16.3,12.2-2.9c-.7-1-3.8-5.3-4.1-5.7-.3-.5,0-.7,.6-.8s5.2-.9,5.6-.9,.7-.2,1.4,.6c.3,.4,1.5,1.8,2.5,3.1v-7.6c0-3.7-3-6.7-6.8-6.8h-22.5c-1.8,0-3.5,.7-4.8,2-.7,.7-1.3,1.6-1.6,2.5,2.4-.2,5.9-.5,6.5-.5h0Z"/>
      <path class="cls-29" d="M449.54,426.8c-1,.3-1.5,.5-2.2-.5-.5-.7-3.2-5.6-4.6-8-2.5,.7-7.1,1.9-8.5,2.2-.8,.3-1.7-.1-2.1-.9-.2-.3-4-8.6-6.4-13.8v18.8c0,3.7,3,6.7,6.8,6.8h22.5c3.7,0,6.7-3,6.8-6.8v-2.2c-2.8,1-11.6,4.2-12.3,4.4h0Z"/>
      <path class="cls-29" d="M434.34,418.6c.4-.1,7.2-1.7,7.4-1.8s.2-.1,.1-.4l-9.1-15.8c-.1-.1-.1-.2-.3-.2s-5.3,.5-6.5,.6c0,.2-.1,.5-.1,.8,1.2,2.4,8,16.6,8.1,16.7s0,.2,.4,.1h0Z"/>
      <line class="cls-12" x1="343.84" y1="281.3" x2="437.84" y2="281.3"/>
      <line class="cls-12" x1="343.84" y1="289.3" x2="403.84" y2="289.3"/>
      <line class="cls-6" x1="315.84" y1="328.3" x2="409.84" y2="328.3"/>
      <line class="cls-12" x1="315.84" y1="337" x2="375.84" y2="337"/>
      <line class="cls-12" x1="363.84" y1="345.7" x2="398.84" y2="345.7"/>
      <line class="cls-15" x1="315.84" y1="345.7" x2="357.84" y2="345.7"/>
      <line class="cls-6" x1="315.84" y1="354.3" x2="351.84" y2="354.3"/>
      <path class="cls-14" d="M319.84,370.7c-2.2,0-4,1.8-4,4s1.8,4,4,4h80.7v-8h-80.7Z"/>
      <path class="cls-1" d="M319.84,370.7h126c2.2,0,4,1.8,4,4h0c0,2.2-1.8,4-4,4h-126c-2.2,0-4-1.8-4-4h0c0-2.2,1.8-4,4-4Z"/>
      <path class="cls-41" d="M243.14,475.3h273.5c1.2,0,2.2,1,2.2,2.2v8.5c0,1.2-1,2.2-2.2,2.2H243.14c-1.2,0-2.2-1-2.2-2.2v-8.4c-.1-1.3,.9-2.3,2.2-2.3Z"/>
      <rect class="cls-10" x="240.84" y="475.3" width="278" height="13"/>
      <path class="cls-40" d="M499.84,507.3h16c1.7,0,3,1.3,3,3v6c0,1.7-1.3,3-3,3h-16c-1.7,0-3-1.3-3-3v-6c0-1.6,1.3-3,3-3Z"/>
      <path class="cls-40" d="M467.84,507.3h16c1.7,0,3,1.3,3,3v6c0,1.7-1.3,3-3,3h-16c-1.7,0-3-1.3-3-3v-6c0-1.6,1.3-3,3-3Z"/>
      <path class="cls-40" d="M435.84,507.3h16c1.7,0,3,1.3,3,3v6c0,1.7-1.3,3-3,3h-16c-1.7,0-3-1.3-3-3v-6c0-1.6,1.3-3,3-3Z"/>
      <path class="cls-40" d="M403.84,507.3h16c1.7,0,3,1.3,3,3v6c0,1.7-1.3,3-3,3h-16c-1.7,0-3-1.3-3-3v-6c0-1.6,1.3-3,3-3Z"/>
      <path class="cls-40" d="M371.84,507.3h16c1.7,0,3,1.3,3,3v6c0,1.7-1.3,3-3,3h-16c-1.7,0-3-1.3-3-3v-6c0-1.6,1.3-3,3-3Z"/>
      <path class="cls-40" d="M339.84,507.3h16c1.7,0,3,1.3,3,3v6c0,1.7-1.3,3-3,3h-16c-1.7,0-3-1.3-3-3v-6c0-1.6,1.3-3,3-3Z"/>
      <path class="cls-40" d="M307.84,507.3h16c1.7,0,3,1.3,3,3v6c0,1.7-1.3,3-3,3h-16c-1.7,0-3-1.3-3-3v-6c0-1.6,1.3-3,3-3Z"/>
      <path class="cls-40" d="M275.84,507.3h16c1.7,0,3,1.3,3,3v6c0,1.7-1.3,3-3,3h-16c-1.7,0-3-1.3-3-3v-6c0-1.6,1.3-3,3-3Z"/>
      <path class="cls-40" d="M243.84,507.3h16c1.7,0,3,1.3,3,3v6c0,1.7-1.3,3-3,3h-16c-1.7,0-3-1.3-3-3v-6c0-1.6,1.3-3,3-3Z"/>
      <path class="cls-40" d="M435.84,532.8h16c1.7,0,3,1.3,3,3v16c0,1.7-1.3,3-3,3h-16c-1.7,0-3-1.3-3-3v-16c0-1.6,1.3-3,3-3Z"/>
      <path class="cls-40" d="M403.84,532.8h16c1.7,0,3,1.3,3,3v16c0,1.7-1.3,3-3,3h-16c-1.7,0-3-1.3-3-3v-16c0-1.6,1.3-3,3-3Z"/>
      <path class="cls-40" d="M371.84,532.8h16c1.7,0,3,1.3,3,3v16c0,1.7-1.3,3-3,3h-16c-1.7,0-3-1.3-3-3v-16c0-1.6,1.3-3,3-3Z"/>
      <path class="cls-40" d="M339.84,532.8h16c1.7,0,3,1.3,3,3v16c0,1.7-1.3,3-3,3h-16c-1.7,0-3-1.3-3-3v-16c0-1.6,1.3-3,3-3Z"/>
      <path class="cls-40" d="M307.84,532.8h16c1.7,0,3,1.3,3,3v16c0,1.7-1.3,3-3,3h-16c-1.7,0-3-1.3-3-3v-16c0-1.6,1.3-3,3-3Z"/>
      <path class="cls-40" d="M275.84,532.8h16c1.7,0,3,1.3,3,3v16c0,1.7-1.3,3-3,3h-16c-1.7,0-3-1.3-3-3v-16c0-1.6,1.3-3,3-3Z"/>
      <path class="cls-40" d="M243.84,532.8h16c1.7,0,3,1.3,3,3v16c0,1.7-1.3,3-3,3h-16c-1.7,0-3-1.3-3-3v-16c0-1.6,1.3-3,3-3Z"/>
      <path class="cls-40" d="M499.84,532.8h16c1.7,0,3,1.3,3,3v47.5c0,1.7-1.3,3-3,3h-16c-1.7,0-3-1.3-3-3v-47.5c0-1.6,1.3-3,3-3Z"/>
      <path class="cls-40" d="M483.84,532.8h-16c-1.7,0-3,1.3-3,3v25.5c0,1.7-1.3,3-3,3h-26c-1.7,0-3,1.3-3,3v16c0,1.7,1.3,3,3,3h48c1.7,0,3-1.3,3-3v-47.5c0-1.6-1.3-3-3-3Z"/>
      <path class="cls-40" d="M403.84,564.3h16c1.7,0,3,1.3,3,3v16c0,1.7-1.3,3-3,3h-16c-1.7,0-3-1.3-3-3v-16c0-1.6,1.3-3,3-3Z"/>
      <path class="cls-40" d="M371.84,564.3h16c1.7,0,3,1.3,3,3v16c0,1.7-1.3,3-3,3h-16c-1.7,0-3-1.3-3-3v-16c0-1.6,1.3-3,3-3Z"/>
      <path class="cls-40" d="M339.84,564.3h16c1.7,0,3,1.3,3,3v16c0,1.7-1.3,3-3,3h-16c-1.7,0-3-1.3-3-3v-16c0-1.6,1.3-3,3-3Z"/>
      <path class="cls-40" d="M307.84,564.3h16c1.7,0,3,1.3,3,3v16c0,1.7-1.3,3-3,3h-16c-1.7,0-3-1.3-3-3v-16c0-1.6,1.3-3,3-3Z"/>
      <path class="cls-40" d="M243.84,564.3h48c1.7,0,3,1.3,3,3v16c0,1.7-1.3,3-3,3h-48c-1.7,0-3-1.3-3-3v-16c0-1.6,1.3-3,3-3Z"/>
      <path class="cls-40" d="M499.84,595.8h16c1.7,0,3,1.3,3,3v16c0,1.7-1.3,3-3,3h-16c-1.7,0-3-1.3-3-3v-16c0-1.6,1.3-3,3-3Z"/>
      <path class="cls-40" d="M467.84,595.8h16c1.7,0,3,1.3,3,3v16c0,1.7-1.3,3-3,3h-16c-1.7,0-3-1.3-3-3v-16c0-1.6,1.3-3,3-3Z"/>
      <path class="cls-40" d="M435.84,595.8h16c1.7,0,3,1.3,3,3v16c0,1.7-1.3,3-3,3h-16c-1.7,0-3-1.3-3-3v-16c0-1.6,1.3-3,3-3Z"/>
      <path class="cls-40" d="M339.84,595.8h80c1.7,0,3,1.3,3,3v16c0,1.7-1.3,3-3,3h-80c-1.7,0-3-1.3-3-3v-16c0-1.6,1.3-3,3-3Z"/>
      <path class="cls-40" d="M307.84,595.8h16c1.7,0,3,1.3,3,3v16c0,1.7-1.3,3-3,3h-16c-1.7,0-3-1.3-3-3v-16c0-1.6,1.3-3,3-3Z"/>
      <path class="cls-40" d="M275.84,595.8h16c1.7,0,3,1.3,3,3v16c0,1.7-1.3,3-3,3h-16c-1.7,0-3-1.3-3-3v-16c0-1.6,1.3-3,3-3Z"/>
      <path class="cls-40" d="M243.84,595.8h16c1.7,0,3,1.3,3,3v16c0,1.7-1.3,3-3,3h-16c-1.7,0-3-1.3-3-3v-16c0-1.6,1.3-3,3-3Z"/>
      <path class="cls-10" d="M499.84,507.3h16c1.7,0,3,1.3,3,3v6c0,1.7-1.3,3-3,3h-16c-1.7,0-3-1.3-3-3v-6c0-1.6,1.3-3,3-3Z"/>
      <path class="cls-10" d="M467.84,507.3h16c1.7,0,3,1.3,3,3v6c0,1.7-1.3,3-3,3h-16c-1.7,0-3-1.3-3-3v-6c0-1.6,1.3-3,3-3Z"/>
      <path class="cls-10" d="M435.84,507.3h16c1.7,0,3,1.3,3,3v6c0,1.7-1.3,3-3,3h-16c-1.7,0-3-1.3-3-3v-6c0-1.6,1.3-3,3-3Z"/>
      <path class="cls-10" d="M403.84,507.3h16c1.7,0,3,1.3,3,3v6c0,1.7-1.3,3-3,3h-16c-1.7,0-3-1.3-3-3v-6c0-1.6,1.3-3,3-3Z"/>
      <path class="cls-10" d="M371.84,507.3h16c1.7,0,3,1.3,3,3v6c0,1.7-1.3,3-3,3h-16c-1.7,0-3-1.3-3-3v-6c0-1.6,1.3-3,3-3Z"/>
      <path class="cls-10" d="M339.84,507.3h16c1.7,0,3,1.3,3,3v6c0,1.7-1.3,3-3,3h-16c-1.7,0-3-1.3-3-3v-6c0-1.6,1.3-3,3-3Z"/>
      <path class="cls-10" d="M307.84,507.3h16c1.7,0,3,1.3,3,3v6c0,1.7-1.3,3-3,3h-16c-1.7,0-3-1.3-3-3v-6c0-1.6,1.3-3,3-3Z"/>
      <path class="cls-10" d="M275.84,507.3h16c1.7,0,3,1.3,3,3v6c0,1.7-1.3,3-3,3h-16c-1.7,0-3-1.3-3-3v-6c0-1.6,1.3-3,3-3Z"/>
      <path class="cls-10" d="M243.84,507.3h16c1.7,0,3,1.3,3,3v6c0,1.7-1.3,3-3,3h-16c-1.7,0-3-1.3-3-3v-6c0-1.6,1.3-3,3-3Z"/>
      <path class="cls-10" d="M435.84,532.8h16c1.7,0,3,1.3,3,3v16c0,1.7-1.3,3-3,3h-16c-1.7,0-3-1.3-3-3v-16c0-1.6,1.3-3,3-3Z"/>
      <path class="cls-10" d="M403.84,532.8h16c1.7,0,3,1.3,3,3v16c0,1.7-1.3,3-3,3h-16c-1.7,0-3-1.3-3-3v-16c0-1.6,1.3-3,3-3Z"/>
      <path class="cls-10" d="M371.84,532.8h16c1.7,0,3,1.3,3,3v16c0,1.7-1.3,3-3,3h-16c-1.7,0-3-1.3-3-3v-16c0-1.6,1.3-3,3-3Z"/>
      <path class="cls-10" d="M339.84,532.8h16c1.7,0,3,1.3,3,3v16c0,1.7-1.3,3-3,3h-16c-1.7,0-3-1.3-3-3v-16c0-1.6,1.3-3,3-3Z"/>
      <path class="cls-10" d="M307.84,532.8h16c1.7,0,3,1.3,3,3v16c0,1.7-1.3,3-3,3h-16c-1.7,0-3-1.3-3-3v-16c0-1.6,1.3-3,3-3Z"/>
      <path class="cls-10" d="M275.84,532.8h16c1.7,0,3,1.3,3,3v16c0,1.7-1.3,3-3,3h-16c-1.7,0-3-1.3-3-3v-16c0-1.6,1.3-3,3-3Z"/>
      <path class="cls-10" d="M243.84,532.8h16c1.7,0,3,1.3,3,3v16c0,1.7-1.3,3-3,3h-16c-1.7,0-3-1.3-3-3v-16c0-1.6,1.3-3,3-3Z"/>
      <path class="cls-10" d="M499.84,532.8h16c1.7,0,3,1.3,3,3v47.5c0,1.7-1.3,3-3,3h-16c-1.7,0-3-1.3-3-3v-47.5c0-1.6,1.3-3,3-3Z"/>
      <path class="cls-10" d="M483.84,532.8h-16c-1.7,0-3,1.3-3,3v25.5c0,1.7-1.3,3-3,3h-26c-1.7,0-3,1.3-3,3v16c0,1.7,1.3,3,3,3h48c1.7,0,3-1.3,3-3v-47.5c0-1.6-1.3-3-3-3Z"/>
      <path class="cls-10" d="M403.84,564.3h16c1.7,0,3,1.3,3,3v16c0,1.7-1.3,3-3,3h-16c-1.7,0-3-1.3-3-3v-16c0-1.6,1.3-3,3-3Z"/>
      <path class="cls-10" d="M371.84,564.3h16c1.7,0,3,1.3,3,3v16c0,1.7-1.3,3-3,3h-16c-1.7,0-3-1.3-3-3v-16c0-1.6,1.3-3,3-3Z"/>
      <path class="cls-10" d="M339.84,564.3h16c1.7,0,3,1.3,3,3v16c0,1.7-1.3,3-3,3h-16c-1.7,0-3-1.3-3-3v-16c0-1.6,1.3-3,3-3Z"/>
      <path class="cls-10" d="M307.84,564.3h16c1.7,0,3,1.3,3,3v16c0,1.7-1.3,3-3,3h-16c-1.7,0-3-1.3-3-3v-16c0-1.6,1.3-3,3-3Z"/>
      <path class="cls-10" d="M243.84,564.3h48c1.7,0,3,1.3,3,3v16c0,1.7-1.3,3-3,3h-48c-1.7,0-3-1.3-3-3v-16c0-1.6,1.3-3,3-3Z"/>
      <path class="cls-10" d="M499.84,595.8h16c1.7,0,3,1.3,3,3v16c0,1.7-1.3,3-3,3h-16c-1.7,0-3-1.3-3-3v-16c0-1.6,1.3-3,3-3Z"/>
      <path class="cls-10" d="M467.84,595.8h16c1.7,0,3,1.3,3,3v16c0,1.7-1.3,3-3,3h-16c-1.7,0-3-1.3-3-3v-16c0-1.6,1.3-3,3-3Z"/>
      <path class="cls-10" d="M435.84,595.8h16c1.7,0,3,1.3,3,3v16c0,1.7-1.3,3-3,3h-16c-1.7,0-3-1.3-3-3v-16c0-1.6,1.3-3,3-3Z"/>
      <path class="cls-10" d="M339.84,595.8h80c1.7,0,3,1.3,3,3v16c0,1.7-1.3,3-3,3h-80c-1.7,0-3-1.3-3-3v-16c0-1.6,1.3-3,3-3Z"/>
      <path class="cls-10" d="M307.84,595.8h16c1.7,0,3,1.3,3,3v16c0,1.7-1.3,3-3,3h-16c-1.7,0-3-1.3-3-3v-16c0-1.6,1.3-3,3-3Z"/>
      <path class="cls-10" d="M275.84,595.8h16c1.7,0,3,1.3,3,3v16c0,1.7-1.3,3-3,3h-16c-1.7,0-3-1.3-3-3v-16c0-1.6,1.3-3,3-3Z"/>
      <path class="cls-10" d="M243.84,595.8h16c1.7,0,3,1.3,3,3v16c0,1.7-1.3,3-3,3h-16c-1.7,0-3-1.3-3-3v-16c0-1.6,1.3-3,3-3Z"/>
      <rect class="cls-33" x="261.94" y="689.2" width="44" height="40"/>
      <rect class="cls-10" x="261.94" y="689.2" width="44" height="40"/>
      <rect class="cls-32" x="257.44" y="720.2" width="51.9" height="25.5"/>
      <rect class="cls-10" x="257.44" y="720.2" width="51.9" height="25.5"/>
      <path class="cls-38" d="M255.54,745.1h55.8c3.6,0,6.5,2.9,6.5,6.5v116.8h-68.8v-116.8c0-3.6,2.9-6.5,6.5-6.5Z"/>
      <path class="cls-10" d="M255.54,745.1h55.8c3.6,0,6.5,2.9,6.5,6.5v116.8h-68.8v-116.8c0-3.6,2.9-6.5,6.5-6.5Z"/>
      <circle class="cls-20" cx="300.04" cy="733" r="5"/>
      <circle class="cls-10" cx="300.04" cy="733" r="5"/>
      <path class="cls-33" d="M337.94,637.4l1.3,.8c2.9,1.7,3.9,5.3,2.2,8.2l-25.5,44.2h0l-11.7-6.8h0l25.5-44.2c1.7-2.9,5.4-3.9,8.2-2.2Z"/>
      <path class="cls-10" d="M337.94,637.4l1.3,.8c2.9,1.7,3.9,5.3,2.2,8.2l-25.5,44.2h0l-11.7-6.8h0l25.5-44.2c1.7-2.9,5.4-3.9,8.2-2.2Z"/>
      <path class="cls-35" d="M313.44,575.1h-1.5c-3.3,0-6,2.7-6,6v45c0,1.7-1.3,3-3,3h0c-1.7,0-3-1.3-3-3v-53.7c0-3.3-2.7-6-6-6h-1.5c-3.3,0-6,2.7-6,6v53.7c0,1.7-1.3,3-3,3h0c-1.7,0-3-1.3-3-3v-45c0-3.3-2.7-6-6-6h-1.5c-3.3,0-6,2.7-6,6v45c0,1.7-1.3,3-3,3h0c-1.7,0-3-1.3-3-3v-30.8c0-3.3-2.7-6-6-6h-1.5c-3.3,0-6,2.7-6,6v88.3c0,6.6,5.4,12,12,12h48c6.6,0,12-5.4,12-12v-102.5c0-3.4-2.7-6-6-6h0Z"/>
      <path class="cls-10" d="M313.44,575.1h-1.5c-3.3,0-6,2.7-6,6v45c0,1.7-1.3,3-3,3h0c-1.7,0-3-1.3-3-3v-53.7c0-3.3-2.7-6-6-6h-1.5c-3.3,0-6,2.7-6,6v53.7c0,1.7-1.3,3-3,3h0c-1.7,0-3-1.3-3-3v-45c0-3.3-2.7-6-6-6h-1.5c-3.3,0-6,2.7-6,6v45c0,1.7-1.3,3-3,3h0c-1.7,0-3-1.3-3-3v-30.8c0-3.3-2.7-6-6-6h-1.5c-3.3,0-6,2.7-6,6v88.3c0,6.6,5.4,12,12,12h48c6.6,0,12-5.4,12-12v-102.5c0-3.4-2.7-6-6-6h0Z"/>
      <rect class="cls-33" x="370.34" y="777.5" width="44" height="40"/>
      <rect class="cls-10" x="370.34" y="777.5" width="44" height="40"/>
      <path class="cls-33" d="M370.34,772l-11.7,6.8h0l-25.5-44.2c-1.7-2.9-.7-6.5,2.2-8.2h0l1.3-.8c2.9-1.7,6.5-.7,8.2,2.2h0l25.5,44.2h0Z"/>
      <path class="cls-10" d="M370.34,772l-11.7,6.8h0l-25.5-44.2c-1.7-2.9-.7-6.5,2.2-8.2h0l1.3-.8c2.9-1.7,6.5-.7,8.2,2.2h0l25.5,44.2h0Z"/>
      <path class="cls-35" d="M362.34,663.3h1.5c3.3,0,6,2.7,6,6v45c0,1.7,1.3,3,3,3h0c1.7,0,3-1.3,3-3v-7.2c0-3.3,2.7-6,6-6h1.5c3.3,0,6,2.7,6,6v7.2c0,1.7,1.3,3,3,3h0c1.7,0,3-1.3,3-3v-7.2c0-3.3,2.7-6,6-6h1.5c3.3,0,6,2.7,6,6v7.2c0,1.7,1.3,3,3,3h0c1.7,0,3-1.3,3-3v-7.2c0-3.3,2.7-6,6-6h1.5c3.3,0,6,2.7,6,6v64.7c0,6.6-5.4,12-12,12h-48c-6.6,0-12-5.4-12-12h0v-102.5c0-3.3,2.7-6,6-6h0Z"/>
      <path class="cls-10" d="M362.34,663.3h1.5c3.3,0,6,2.7,6,6v45c0,1.7,1.3,3,3,3h0c1.7,0,3-1.3,3-3v-7.2c0-3.3,2.7-6,6-6h1.5c3.3,0,6,2.7,6,6v7.2c0,1.7,1.3,3,3,3h0c1.7,0,3-1.3,3-3v-7.2c0-3.3,2.7-6,6-6h1.5c3.3,0,6,2.7,6,6v7.2c0,1.7,1.3,3,3,3h0c1.7,0,3-1.3,3-3v-7.2c0-3.3,2.7-6,6-6h1.5c3.3,0,6,2.7,6,6v64.7c0,6.6-5.4,12-12,12h-48c-6.6,0-12-5.4-12-12h0v-102.5c0-3.3,2.7-6,6-6h0Z"/>
      <rect class="cls-32" x="366.44" y="808.5" width="51.9" height="25.5"/>
      <rect class="cls-10" x="366.44" y="808.5" width="51.9" height="25.5"/>
      <path class="cls-38" d="M364.44,833.4h55.8c3.6,0,6.5,2.9,6.5,6.5v30.3h-68.8v-30.3c0-3.6,2.9-6.5,6.5-6.5Z"/>
      <path class="cls-10" d="M364.44,833.4h55.8c3.6,0,6.5,2.9,6.5,6.5v30.3h-68.8v-30.3c0-3.6,2.9-6.5,6.5-6.5Z"/>
      <circle class="cls-11" cx="377.35" cy="821.23" r="5"/>
      <circle class="cls-20" cx="377.35" cy="821.23" r="5"/>
      <line class="cls-18" x1="394.34" y1="74.6" x2="448.34" y2="74.6"/>
      <line class="cls-18" x1="394.34" y1="88.1" x2="436.34" y2="88.1"/>
      <line class="cls-18" x1="394.34" y1="101.6" x2="418.34" y2="101.6"/>
      <line class="cls-18" x1="466.54" y1="18.1" x2="493.54" y2="18.1"/>
      <line class="cls-18" x1="466.54" y1="25.1" x2="483.54" y2="25.1"/>
      <line class="cls-10" x1="465.94" y1="89.2" x2="468.94" y2="89.2"/>
      <path class="cls-4" d="M476.84,89.2h22.2c22,0,39.8,17.8,39.8,39.8h0c0,22-17.8,39.8-39.8,39.8h-65.6c-24.7,0-44.7,20-44.7,44.7h0v4.9"/>
      <line class="cls-10" x1="388.84" y1="222.3" x2="388.84" y2="225.3"/>
      <line class="cls-2" x1="93.74" y1="337.4" x2="219.24" y2="337.4"/>
      <path class="cls-10" d="M90.44,564.3h26.2c24.9,0,45.1-20.2,45.1-45.1h0v-19c0-24.8,20.1-44.9,44.9-44.9h14.1"/>
      <path class="cls-2" d="M223.64,92.5h13.6c19.7,0,35.7,16,35.7,35.7h0c0,19.7,16,35.7,35.7,35.7h19.7c19.7,0,35.7,16,35.7,35.7v25.9"/>
      <path class="cls-10" d="M538.84,330.3h52.5c19.2,0,34.8-15.6,34.8-34.8h0v-92"/>
      <circle class="cls-10" cx="756.54" cy="604.3" r="30.5"/>
      <line class="cls-2" x1="538.84" y1="391" x2="727.14" y2="391"/>
      <circle class="cls-32" cx="728.74" cy="621.7" r="35.4"/>
      <circle class="cls-10" cx="728.74" cy="621.7" r="35.4"/>
      <line class="cls-2" x1="693.34" y1="621.7" x2="538.84" y2="621.7"/>
      <circle class="cls-24" cx="546.34" cy="12.6" r="7.5"/>
      <circle class="cls-10" cx="546.34" cy="12.6" r="7.5"/>
      <polyline class="cls-10" points="713.64 653.7 728.74 621.7 763.74 627.1"/>
      <path class="cls-31" d="M647.44,552.7h70c5,0,9,4,9,9v27.1c0,5-4,9-9,9h-70c-5,0-9-4-9-9v-27.1c-.1-4.9,4-9,9-9Z"/>
      <path class="cls-10" d="M647.44,552.7h70c5,0,9,4,9,9v27.1c0,5-4,9-9,9h-70c-5,0-9-4-9-9v-27.1c-.1-4.9,4-9,9-9Z"/>
      <path class="cls-32" d="M649.84,583.2l2.1-2.9c1.8,1.9,4.2,3,6.8,3,3.1,0,4.3-1.5,4.3-3,0-4.5-12.5-1.7-12.5-9.6,0-3.6,3.1-6.3,7.9-6.3,3-.1,5.9,1,8.1,3l-2.1,2.8c-1.7-1.6-3.9-2.5-6.3-2.5-2.2,0-3.6,1.1-3.6,2.7,0,4,12.5,1.6,12.5,9.6,0,3.6-2.6,6.7-8.3,6.7-3.4,.1-6.6-1.2-8.9-3.5Z"/>
      <path class="cls-32" d="M671.84,575.5c0-6.4,4.6-11.2,11-11.2s11,4.7,11,11.2c.1,2.9-1,5.6-2.9,7.8l1.8,2-2.6,2.2-1.9-2.1c-1.7,.9-3.5,1.3-5.4,1.3-6.4,0-11-4.8-11-11.2Zm14.1,7.1l-2.7-3,2.7-2.2,2.7,3c1-1.5,1.5-3.2,1.5-4.9,0-4.5-2.8-7.8-7.1-7.8s-7.1,3.3-7.1,7.8,2.8,7.8,7.1,7.8c.9,0,2-.2,2.9-.7h0Z"/>
      <path class="cls-32" d="M699.74,586.3v-21.6h3.8v18.2h9.5v3.3l-13.3,.1Z"/>
      <path class="cls-8" d="M33.04,112.5h106.7c6,0,10.8,4.8,10.8,10.8v30.6c0,6-4.8,10.8-10.8,10.8H33.04c-6,0-10.8-4.8-10.8-10.8v-30.6c0-6,4.8-10.8,10.8-10.8Z"/>
      <path class="cls-10" d="M33.04,112.5h106.7c6,0,10.8,4.8,10.8,10.8v30.6c0,6-4.8,10.8-10.8,10.8H33.04c-6,0-10.8-4.8-10.8-10.8v-30.6c0-6,4.8-10.8,10.8-10.8Z"/>
      <path class="cls-32" d="M53.84,150.4v-10.4h-12.3v10.4h-4.2v-23.7h4.1v9.6h12.3v-9.6h4.1v23.7h-4Z"/>
      <path class="cls-32" d="M71.34,150.4v-20h-7.2v-3.7h18.5v3.7h-7.2v20h-4.1Z"/>
      <path class="cls-32" d="M109.24,150.4v-18.3l-7.2,18.3h-1.8l-7.3-18.3v18.3h-4.1v-23.7h5.9l6.5,16.2,6.4-16.2h5.9v23.7h-4.3Z"/>
      <path class="cls-32" d="M120.84,150.4v-23.7h4.1v20h10.4v3.7h-14.5Z"/>
    </g>
  </g>
</svg>