<?xml version="1.0" encoding="UTF-8"?>
<svg id="Layer_2" data-name="Layer 2" xmlns="http://www.w3.org/2000/svg" viewBox="0 0 890.3 600">
  <defs>
    <style>
      .cls-1 {
        fill: #e97e1c;
      }

      .cls-2, .cls-3 {
        fill: #fff;
      }

      .cls-4 {
        fill: #ffc299;
      }

      .cls-5 {
        fill: #ff6550;
      }

      .cls-6 {
        fill: #9dd7ce;
      }

      .cls-7 {
        fill: #bd2b3e;
      }

      .cls-8 {
        fill: #c0bfbf;
      }

      .cls-9 {
        fill: #d44644;
      }

      .cls-10, .cls-11 {
        stroke-width: 6px;
      }

      .cls-10, .cls-11, .cls-12, .cls-13, .cls-14, .cls-15, .cls-16 {
        fill: none;
        stroke-linejoin: round;
      }

      .cls-10, .cls-12, .cls-13, .cls-16 {
        stroke: #170e10;
      }

      .cls-11, .cls-14 {
        stroke: #260005;
      }

      .cls-17 {
        opacity: .34;
      }

      .cls-17, .cls-3, .cls-18, .cls-19, .cls-15 {
        isolation: isolate;
      }

      .cls-17, .cls-18, .cls-19 {
        fill: #333;
      }

      .cls-12, .cls-13 {
        stroke-linecap: round;
      }

      .cls-12, .cls-16 {
        stroke-width: 10px;
      }

      .cls-3 {
        opacity: .55;
      }

      .cls-18 {
        opacity: .53;
      }

      .cls-19 {
        opacity: .69;
      }

      .cls-13 {
        stroke-width: 8px;
      }

      .cls-14, .cls-15 {
        stroke-width: 4px;
      }

      .cls-15 {
        opacity: .36;
        stroke: #f9a;
      }
    </style>
  </defs>
  <g id="Layer_1-2" data-name="Layer 1">
    <g>
      <rect class="cls-4" x="480.1" y="341.6" width="102.9" height="206.4"/>
      <rect class="cls-2" x="480.1" y="341.6" width="102.9" height="206.4"/>
      <rect class="cls-17" x="480.1" y="341.6" width="13.6" height="206.4"/>
      <rect class="cls-12" x="480.1" y="341.6" width="102.9" height="206.4"/>
      <g>
        <line class="cls-11" x1="496.9" y1="503" x2="568.8" y2="503"/>
        <line class="cls-11" x1="496.9" y1="477" x2="568.8" y2="477"/>
        <line class="cls-11" x1="496.9" y1="451" x2="568.8" y2="451"/>
        <line class="cls-11" x1="496.9" y1="425" x2="568.8" y2="425"/>
        <line class="cls-11" x1="496.9" y1="399" x2="568.8" y2="399"/>
        <line class="cls-11" x1="496.9" y1="373" x2="568.8" y2="373"/>
      </g>
      <rect class="cls-6" x="334.3" y="260" width="148" height="288"/>
      <rect class="cls-19" x="334.3" y="260" width="13.4" height="288"/>
      <path class="cls-8" d="M302.3,99.7h-48V63.7c0-6.6,5.4-12,12-12h24c6.6,0,12,5.4,12,12v36Z"/>
      <path class="cls-19" d="M279,51.7h-12.8c-6.6,0-12,5.4-12,12v36h12.8V63.7c0-6.6,5.4-12,12-12Z"/>
      <path class="cls-12" d="M302.3,99.7h-48V63.7c0-6.6,5.4-12,12-12h24c6.6,0,12,5.4,12,12v36Z"/>
      <line class="cls-12" x1="278.7" y1="52" x2="278.7" y2="5"/>
      <line class="cls-12" x1="861.7" y1="548" x2="885.3" y2="548"/>
      <line class="cls-12" x1="642.2" y1="548" x2="844.6" y2="548"/>
      <line class="cls-12" x1="608.7" y1="548" x2="617.7" y2="548"/>
      <line class="cls-12" x1="115.2" y1="548" x2="594.2" y2="548"/>
      <line class="cls-12" x1="91.4" y1="548" x2="99.8" y2="548"/>
      <line class="cls-12" x1="5" y1="548" x2="74.7" y2="548"/>
      <rect class="cls-8" x="222.3" y="167.1" width="112" height="380.9"/>
      <rect class="cls-19" x="222.3" y="167.1" width="11.4" height="380.9"/>
      <rect class="cls-12" x="222.3" y="167.1" width="112" height="380.9"/>
      <g>
        <g>
          <line class="cls-10" x1="241.7" y1="465" x2="314.7" y2="465"/>
          <line class="cls-10" x1="241.7" y1="477" x2="314.7" y2="477"/>
        </g>
        <g>
          <line class="cls-10" x1="241.7" y1="431" x2="314.7" y2="431"/>
          <line class="cls-10" x1="241.7" y1="443" x2="314.7" y2="443"/>
        </g>
        <g>
          <line class="cls-10" x1="241.7" y1="397" x2="314.7" y2="397"/>
          <line class="cls-10" x1="241.7" y1="409" x2="314.7" y2="409"/>
        </g>
        <g>
          <line class="cls-10" x1="241.7" y1="363" x2="314.7" y2="363"/>
          <line class="cls-10" x1="241.7" y1="375" x2="314.7" y2="375"/>
        </g>
        <g>
          <line class="cls-10" x1="241.7" y1="329" x2="314.7" y2="329"/>
          <line class="cls-10" x1="241.7" y1="341" x2="314.7" y2="341"/>
        </g>
        <g>
          <line class="cls-10" x1="241.7" y1="295" x2="314.7" y2="295"/>
          <line class="cls-10" x1="241.7" y1="307" x2="314.7" y2="307"/>
        </g>
        <g>
          <line class="cls-10" x1="241.7" y1="261" x2="314.7" y2="261"/>
          <line class="cls-10" x1="241.7" y1="273" x2="314.7" y2="273"/>
        </g>
        <g>
          <line class="cls-10" x1="241.7" y1="227" x2="314.7" y2="227"/>
          <line class="cls-10" x1="241.7" y1="239" x2="314.7" y2="239"/>
        </g>
        <g>
          <line class="cls-10" x1="241.7" y1="193" x2="314.7" y2="193"/>
          <line class="cls-10" x1="241.7" y1="205" x2="314.7" y2="205"/>
        </g>
      </g>
      <path class="cls-8" d="M315.3,167.1h-74v-43c0-20.4,16.6-37,37-37h0c20.4,0,37,16.6,37,37v43Z"/>
      <path class="cls-19" d="M284.8,87.7c-2.1-.4-4.3-.6-6.5-.6h0c-20.4,0-37,16.6-37,37v43h13v-43c0-18.2,13.1-33.3,30.5-36.4Z"/>
      <path class="cls-12" d="M315.3,167.1h-74v-43c0-20.4,16.6-37,37-37h0c20.4,0,37,16.6,37,37v43Z"/>
      <rect class="cls-12" x="334.3" y="260" width="148" height="288"/>
      <rect class="cls-7" x="334.3" y="240" width="152.7" height="20"/>
      <rect class="cls-12" x="334.3" y="240" width="153.4" height="20"/>
      <rect class="cls-2" x="254.3" y="496.5" width="48" height="51.5"/>
      <rect class="cls-17" x="254.3" y="498.5" width="48" height="10.5"/>
      <rect class="cls-17" x="254.3" y="509" width="11.1" height="39"/>
      <rect class="cls-12" x="254.3" y="496.5" width="48" height="51.5"/>
      <g>
        <g>
          <line class="cls-16" x1="457.7" y1="492" x2="457.7" y2="507"/>
          <line class="cls-16" x1="437.7" y1="492" x2="437.7" y2="507"/>
          <line class="cls-16" x1="417.7" y1="492" x2="417.7" y2="507"/>
          <line class="cls-16" x1="397.7" y1="492" x2="397.7" y2="507"/>
          <line class="cls-16" x1="377.7" y1="492" x2="377.7" y2="507"/>
          <line class="cls-16" x1="357.7" y1="492" x2="357.7" y2="507"/>
        </g>
        <g>
          <line class="cls-16" x1="457.7" y1="452" x2="457.7" y2="467"/>
          <line class="cls-16" x1="437.7" y1="452" x2="437.7" y2="467"/>
          <line class="cls-16" x1="417.7" y1="452" x2="417.7" y2="467"/>
          <line class="cls-16" x1="397.7" y1="452" x2="397.7" y2="467"/>
          <line class="cls-16" x1="377.7" y1="452" x2="377.7" y2="467"/>
          <line class="cls-16" x1="357.7" y1="452" x2="357.7" y2="467"/>
        </g>
        <g>
          <line class="cls-16" x1="457.7" y1="412" x2="457.7" y2="427"/>
          <line class="cls-16" x1="437.7" y1="412" x2="437.7" y2="427"/>
          <line class="cls-16" x1="417.7" y1="412" x2="417.7" y2="427"/>
          <line class="cls-16" x1="397.7" y1="412" x2="397.7" y2="427"/>
          <line class="cls-16" x1="377.7" y1="412" x2="377.7" y2="427"/>
          <line class="cls-16" x1="357.7" y1="412" x2="357.7" y2="427"/>
        </g>
        <g>
          <line class="cls-16" x1="457.7" y1="372" x2="457.7" y2="387"/>
          <line class="cls-16" x1="437.7" y1="372" x2="437.7" y2="387"/>
          <line class="cls-16" x1="417.7" y1="372" x2="417.7" y2="387"/>
          <line class="cls-16" x1="397.7" y1="372" x2="397.7" y2="387"/>
          <line class="cls-16" x1="377.7" y1="372" x2="377.7" y2="387"/>
          <line class="cls-16" x1="357.7" y1="372" x2="357.7" y2="387"/>
        </g>
        <g>
          <line class="cls-16" x1="457.7" y1="332" x2="457.7" y2="347"/>
          <line class="cls-16" x1="437.7" y1="332" x2="437.7" y2="347"/>
          <line class="cls-16" x1="417.7" y1="332" x2="417.7" y2="347"/>
          <line class="cls-16" x1="397.7" y1="332" x2="397.7" y2="347"/>
          <line class="cls-16" x1="377.7" y1="332" x2="377.7" y2="347"/>
          <line class="cls-16" x1="357.7" y1="332" x2="357.7" y2="347"/>
        </g>
        <g>
          <line class="cls-16" x1="457.7" y1="292" x2="457.7" y2="307"/>
          <line class="cls-16" x1="437.7" y1="292" x2="437.7" y2="307"/>
          <line class="cls-16" x1="417.7" y1="292" x2="417.7" y2="307"/>
          <line class="cls-16" x1="397.7" y1="292" x2="397.7" y2="307"/>
          <line class="cls-16" x1="377.7" y1="292" x2="377.7" y2="307"/>
          <line class="cls-16" x1="357.7" y1="292" x2="357.7" y2="307"/>
        </g>
      </g>
      <rect class="cls-4" x="377.2" y="490.3" width="61.5" height="57.7"/>
      <rect class="cls-19" x="377.2" y="490.3" width="61.5" height="13.4"/>
      <rect class="cls-19" x="377.2" y="503.8" width="12" height="44.2"/>
      <rect class="cls-12" x="377.2" y="490.3" width="61.5" height="57.7"/>
      <rect class="cls-7" x="160.6" y="260" width="60.6" height="288"/>
      <rect class="cls-18" x="160.6" y="260" width="10.1" height="288"/>
      <rect class="cls-12" x="160.6" y="260" width="60.6" height="288"/>
      <g>
        <g>
          <g>
            <line class="cls-14" x1="177.7" y1="452" x2="177.7" y2="467"/>
            <line class="cls-15" x1="177.7" y1="472" x2="177.7" y2="478"/>
          </g>
          <g>
            <line class="cls-14" x1="190.7" y1="452" x2="190.7" y2="467"/>
            <line class="cls-15" x1="190.7" y1="472" x2="190.7" y2="478"/>
          </g>
          <g>
            <line class="cls-14" x1="203.7" y1="452" x2="203.7" y2="467"/>
            <line class="cls-15" x1="203.7" y1="472" x2="203.7" y2="478"/>
          </g>
        </g>
        <g>
          <g>
            <line class="cls-14" x1="177.7" y1="408" x2="177.7" y2="423"/>
            <line class="cls-15" x1="177.7" y1="428" x2="177.7" y2="434"/>
          </g>
          <g>
            <line class="cls-14" x1="190.7" y1="408" x2="190.7" y2="423"/>
            <line class="cls-15" x1="190.7" y1="428" x2="190.7" y2="434"/>
          </g>
          <g>
            <line class="cls-14" x1="203.7" y1="408" x2="203.7" y2="423"/>
            <line class="cls-15" x1="203.7" y1="428" x2="203.7" y2="434"/>
          </g>
        </g>
        <g>
          <g>
            <line class="cls-14" x1="177.7" y1="364" x2="177.7" y2="379"/>
            <line class="cls-15" x1="177.7" y1="384" x2="177.7" y2="390"/>
          </g>
          <g>
            <line class="cls-14" x1="190.7" y1="364" x2="190.7" y2="379"/>
            <line class="cls-15" x1="190.7" y1="384" x2="190.7" y2="390"/>
          </g>
          <g>
            <line class="cls-14" x1="203.7" y1="364" x2="203.7" y2="379"/>
            <line class="cls-15" x1="203.7" y1="384" x2="203.7" y2="390"/>
          </g>
        </g>
        <g>
          <g>
            <line class="cls-14" x1="177.7" y1="320" x2="177.7" y2="335"/>
            <line class="cls-15" x1="177.7" y1="340" x2="177.7" y2="346"/>
          </g>
          <g>
            <line class="cls-14" x1="190.7" y1="320" x2="190.7" y2="335"/>
            <line class="cls-15" x1="190.7" y1="340" x2="190.7" y2="346"/>
          </g>
          <g>
            <line class="cls-14" x1="203.7" y1="320" x2="203.7" y2="335"/>
            <line class="cls-15" x1="203.7" y1="340" x2="203.7" y2="346"/>
          </g>
        </g>
        <g>
          <g>
            <line class="cls-14" x1="177.7" y1="276" x2="177.7" y2="291"/>
            <line class="cls-15" x1="177.7" y1="296" x2="177.7" y2="302"/>
          </g>
          <g>
            <line class="cls-14" x1="190.7" y1="276" x2="190.7" y2="291"/>
            <line class="cls-15" x1="190.7" y1="296" x2="190.7" y2="302"/>
          </g>
          <g>
            <line class="cls-14" x1="203.7" y1="276" x2="203.7" y2="291"/>
            <line class="cls-15" x1="203.7" y1="296" x2="203.7" y2="302"/>
          </g>
        </g>
      </g>
      <rect class="cls-2" x="181.7" y="500" width="20" height="48"/>
      <rect class="cls-12" x="181.7" y="500" width="20" height="48"/>
      <line class="cls-13" x1="464.7" y1="193" x2="464.7" y2="237.7"/>
      <line class="cls-13" x1="455" y1="202.3" x2="475" y2="202.3"/>
      <line class="cls-13" x1="448.5" y1="215.3" x2="482.3" y2="215.3"/>
      <line class="cls-12" x1="752.7" y1="548" x2="752.7" y2="371"/>
      <line class="cls-12" x1="714.7" y1="381.2" x2="714.7" y2="371"/>
      <path class="cls-12" d="M714.7,371c0-10.5,8.5-19,19-19s19,8.5,19,19"/>
      <polygon class="cls-12" points="732.2 399.3 697.2 399.3 714.7 379 732.2 399.3"/>
      <line class="cls-12" x1="137.2" y1="548" x2="137.2" y2="373"/>
      <line class="cls-12" x1="99.2" y1="381.9" x2="99.2" y2="373"/>
      <path class="cls-12" d="M99.2,373c0-10.5,8.5-19,19-19s19,8.5,19,19"/>
      <polygon class="cls-2" points="116.7 401.3 81.7 401.3 99.2 381 116.7 401.3"/>
      <polygon class="cls-12" points="116.7 401.3 81.7 401.3 99.2 381 116.7 401.3"/>
      <ellipse class="cls-5" cx="46" cy="455.8" rx="41" ry="56.9"/>
      <path class="cls-18" d="M16.3,455.8c0-28.3,14.9-51.7,34.4-56.1-2.2-.5-4.4-.8-6.6-.8-22.6,0-41,25.5-41,56.9s18.4,56.9,41,56.9c2.3,0,4.5-.3,6.6-.8-19.6-4.4-34.4-27.8-34.4-56.1Z"/>
      <ellipse class="cls-12" cx="46" cy="455.8" rx="41" ry="56.9"/>
      <line class="cls-12" x1="47.5" y1="489.2" x2="59.3" y2="477.5"/>
      <line class="cls-12" x1="46" y1="471.4" x2="33.5" y2="459.6"/>
      <ellipse class="cls-1" cx="499.2" cy="490" rx="25" ry="34.4"/>
      <path class="cls-18" d="M484.2,490c0-16.6,8.6-30.5,20-33.7-1.6-.4-3.3-.7-5-.7-13.8,0-25,15.4-25,34.4s11.2,34.4,25,34.4c1.7,0,3.4-.2,5-.7-11.4-3.2-20-17.1-20-33.7Z"/>
      <ellipse class="cls-12" cx="499.2" cy="490" rx="25" ry="34.4"/>
      <path class="cls-9" d="M702.5,457.2c3.8,35.5-23.1,49.8-37.7,48.9-14.7,.9-41.5-13.4-37.7-48.9,6.8-34.4,21.7-61,37.7-60.9,15.9-.1,30.9,26.5,37.7,60.9Z"/>
      <path class="cls-18" d="M674.4,504.1c-14.7,.9-41.5-13.4-37.7-48.9,5.6-28.6,17-51.9,29.8-58.8-.6-.1-1.1-.1-1.7-.1-16-.2-31,26.4-37.7,60.9-3.8,35.5,23.1,49.8,37.7,48.9,3.5,.2,7.6-.4,11.8-2-.8,.1-1.5,.1-2.2,0Z"/>
      <path class="cls-12" d="M702.5,457.2c3.8,35.5-23.1,49.8-37.7,48.9-14.7,.9-41.5-13.4-37.7-48.9,6.8-34.4,21.7-61,37.7-60.9,15.9-.1,30.9,26.5,37.7,60.9Z"/>
      <line class="cls-12" x1="664.8" y1="482.3" x2="677.4" y2="469.7"/>
      <line class="cls-12" x1="664.8" y1="460.5" x2="651" y2="446.7"/>
      <line class="cls-12" x1="350.2" y1="595" x2="455.7" y2="595"/>
      <line class="cls-12" x1="471.5" y1="595" x2="482.3" y2="595"/>
      <line class="cls-12" x1="495" y1="595" x2="497.1" y2="595"/>
      <line class="cls-12" x1="299.1" y1="595" x2="325.2" y2="595"/>
      <polyline class="cls-12" points="499.2 500.5 499.2 506.2 499.2 510.7 499.2 546.4"/>
      <line class="cls-12" x1="664.8" y1="434.5" x2="664.8" y2="548"/>
      <line class="cls-12" x1="47.5" y1="445" x2="47.5" y2="548"/>
      <ellipse class="cls-1" cx="803.6" cy="452.6" rx="41" ry="56.9"/>
      <path class="cls-18" d="M772.6,452.6c0-29,15.7-53,36-56.4-1.6-.3-3.3-.4-5-.4-22.6,0-41,25.5-41,56.9s18.4,56.9,41,56.9c1.7,0,3.4-.2,5-.4-20.3-3.6-36-27.6-36-56.6Z"/>
      <ellipse class="cls-12" cx="803.6" cy="452.6" rx="41" ry="56.9"/>
      <line class="cls-12" x1="805.2" y1="491" x2="816.9" y2="479.3"/>
      <line class="cls-12" x1="803.6" y1="473.1" x2="791.1" y2="461.4"/>
      <line class="cls-12" x1="805.2" y1="446.7" x2="805.2" y2="547.6"/>
      <line class="cls-10" x1="267" y1="130.7" x2="267" y2="167.1"/>
      <line class="cls-10" x1="288.7" y1="130.7" x2="288.7" y2="167.1"/>
      <circle class="cls-3" cx="45.7" cy="423" r="3.5"/>
      <circle class="cls-3" cx="67.3" cy="461" r="4.5"/>
      <circle class="cls-18" cx="63.8" cy="437.2" r="4.5"/>
      <circle class="cls-18" cx="33.5" cy="443" r="3.3"/>
      <circle class="cls-3" cx="496.1" cy="473.9" r="2.4"/>
      <circle class="cls-18" cx="510.6" cy="483.4" r="3.4"/>
      <circle class="cls-3" cx="663.3" cy="425" r="2.4"/>
      <circle class="cls-3" cx="683" cy="453" r="3.4"/>
      <circle class="cls-18" cx="677.8" cy="434.5" r="3.4"/>
      <circle class="cls-18" cx="651" cy="471.5" r="3.4"/>
      <circle class="cls-3" cx="818.8" cy="436.6" r="4.7"/>
      <circle class="cls-18" cx="816.8" cy="461.3" r="3.4"/>
      <circle class="cls-18" cx="800.6" cy="425.8" r="3.4"/>
      <path class="cls-1" d="M652.5,548c0-11.5,9.3-20.7,20.7-20.7s20.7,9.3,20.7,20.7h-41.4Z"/>
      <path class="cls-18" d="M679.3,528.2c-1.9-.6-4-.9-6.2-.9-11.5,0-20.7,9.3-20.7,20.7h12.3c.1-9.3,6.2-17.2,14.6-19.8Z"/>
      <path class="cls-12" d="M652.5,548c0-11.5,9.3-20.7,20.7-20.7s20.7,9.3,20.7,20.7h-41.4Z"/>
      <path class="cls-9" d="M678.7,548c0-16.5,13.3-29.8,29.8-29.8s29.8,13.3,29.8,29.8h-59.6Z"/>
      <path class="cls-18" d="M714.2,518.8c-1.9-.4-3.8-.6-5.8-.6-16.5,0-29.8,13.3-29.8,29.8h11.5c.1-14.5,10.4-26.6,24.1-29.2Z"/>
      <path class="cls-12" d="M678.7,548c0-16.5,13.3-29.8,29.8-29.8s29.8,13.3,29.8,29.8h-59.6Z"/>
    </g>
  </g>
</svg>