<?xml version="1.0" encoding="UTF-8"?>
<svg id="Layer_2" data-name="Layer 2" xmlns="http://www.w3.org/2000/svg" xmlns:xlink="http://www.w3.org/1999/xlink" viewBox="0 0 534.4 459.1">
  <defs>
    <style>
      .cls-1 {
        fill: #f9d176;
      }

      .cls-2 {
        fill: #f55090;
      }

      .cls-3 {
        fill: #6a6d7a;
      }

      .cls-4 {
        fill: #f27979;
      }

      .cls-5 {
        fill: #f48989;
      }

      .cls-6 {
        fill: #f76e6e;
      }

      .cls-7, .cls-8 {
        fill: #fff;
      }

      .cls-9 {
        fill: #323845;
      }

      .cls-10, .cls-11 {
        fill: #30b2c4;
      }

      .cls-12 {
        fill: #333e49;
      }

      .cls-13 {
        fill: #d35959;
      }

      .cls-14 {
        fill: #dcdbd7;
      }

      .cls-15, .cls-16, .cls-17 {
        fill: #dd5f5f;
      }

      .cls-18 {
        fill: #404751;
      }

      .cls-19 {
        fill: #555a66;
      }

      .cls-20, .cls-21 {
        fill: #2d3039;
      }

      .cls-22 {
        fill: #484e5c;
      }

      .cls-23 {
        fill: #38424f;
      }

      .cls-24 {
        fill: #3b4351;
      }

      .cls-25 {
        fill: #3c4252;
      }

      .cls-26 {
        fill: #454b56;
      }

      .cls-27 {
        fill: #777982;
      }

      .cls-21 {
        opacity: .2;
      }

      .cls-21, .cls-8, .cls-11 {
        isolation: isolate;
      }

      .cls-8 {
        opacity: .22;
      }

      .cls-16, .cls-17 {
        stroke: #dd5f5f;
      }

      .cls-16, .cls-17, .cls-28 {
        stroke-width: 4px;
      }

      .cls-16, .cls-29, .cls-30 {
        stroke-miterlimit: 10;
      }

      .cls-17, .cls-28, .cls-31, .cls-32, .cls-33, .cls-34 {
        stroke-linecap: round;
        stroke-linejoin: round;
      }

      .cls-11 {
        opacity: .81;
      }

      .cls-28, .cls-29, .cls-30, .cls-31, .cls-32, .cls-33, .cls-34 {
        fill: none;
      }

      .cls-28, .cls-29, .cls-31, .cls-33, .cls-34 {
        stroke: #323845;
      }

      .cls-30 {
        stroke: #454b59;
      }

      .cls-31 {
        stroke-width: 8px;
      }

      .cls-35 {
        fill: url(#radial-gradient);
      }

      .cls-32 {
        stroke: #fff;
      }

      .cls-32, .cls-34 {
        stroke-width: 3px;
      }

      .cls-33 {
        stroke-width: 6px;
      }
    </style>
    <radialGradient id="radial-gradient" cx="254.23" cy="1104.67" fx="254.23" fy="1104.67" r="62.4" gradientTransform="translate(0 1440) scale(1 -1)" gradientUnits="userSpaceOnUse">
      <stop offset="0" stop-color="#f9c200"/>
      <stop offset=".45" stop-color="#ff4c50"/>
      <stop offset=".8" stop-color="#b53e93"/>
      <stop offset="1" stop-color="#423e93"/>
    </radialGradient>
  </defs>
  <g id="Layer_1-2" data-name="Layer 1">
    <g>
      <ellipse class="cls-9" cx="267.2" cy="343" rx="267.2" ry="37.1"/>
      <path class="cls-9" d="M416.6,459.1H112.9c-9.8,0-16.3-7.9-14.4-17.4l21.8-112.2H409.1l21.8,112.2c1.9,9.5-4.5,17.4-14.3,17.4Z"/>
      <path class="cls-12" d="M417.8,52.9h-62.8c-9.9,0-17.9-8-17.9-17.9v-14.1c0-9.9,8-17.9,17.9-17.9h62.8c9.9,0,17.9,8,17.9,17.9v14.1c.1,9.9-8,17.9-17.9,17.9Z"/>
      <path class="cls-33" d="M417.8,52.9h-62.8c-9.9,0-17.9-8-17.9-17.9v-14.1c0-9.9,8-17.9,17.9-17.9h62.8c9.9,0,17.9,8,17.9,17.9v14.1c.1,9.9-8,17.9-17.9,17.9Z"/>
      <path class="cls-22" d="M474.1,195.6H54.1V53.6c0-16.5,13.5-30,30-30H444.1c16.5,0,30,13.5,30,30V195.6Z"/>
      <path class="cls-26" d="M444.1,23.6h-2.5V195.6h32.5V53.6c0-16.5-13.5-30-30-30Z"/>
      <path class="cls-19" d="M86.1,23.6h-2c-16.5,0-30,13.5-30,30V195.6h31.9V53.6c0-.7,0-1.4,.1-2.1V23.6Z"/>
      <path class="cls-23" d="M310.8,102.7h-94.6c-13.8,0-24.9-11.2-24.9-24.9v-16.5c0-13.8,11.2-24.9,24.9-24.9h94.6c13.8,0,24.9,11.2,24.9,24.9v16.5c.1,13.7-11.1,24.9-24.9,24.9Z"/>
      <path class="cls-24" d="M311.4,115.8h-94.6c-13.8,0-24.9-11.2-24.9-24.9v-16.5c0-13.8,11.2-24.9,24.9-24.9h94.6c13.8,0,24.9,11.2,24.9,24.9v16.5c0,13.8-11.1,24.9-24.9,24.9Z"/>
      <path class="cls-31" d="M310.8,102.7h-94.6c-13.8,0-24.9-11.2-24.9-24.9v-16.5c0-13.8,11.2-24.9,24.9-24.9h94.6c13.8,0,24.9,11.2,24.9,24.9v16.5c.1,13.7-11.1,24.9-24.9,24.9Z"/>
      <path class="cls-33" d="M474.1,195.6H54.1V53.6c0-16.5,13.5-30,30-30H444.1c16.5,0,30,13.5,30,30V195.6Z"/>
      <path class="cls-6" d="M474.1,231.6H54.1V89.6c0-16.5,13.5-30,30-30H444.1c16.5,0,30,13.5,30,30V231.6Z"/>
      <path class="cls-15" d="M444.1,59.6h-15.8c16.5,0,30,13.5,30,30V231.6h15.8V89.6c0-16.5-13.5-30-30-30Z"/>
      <path class="cls-5" d="M100.1,59.6h-16c-16.5,0-30,13.5-30,30V231.6h16V89.6c0-16.5,13.5-30,30-30Z"/>
      <path class="cls-16" d="M438,216h-67.2c-3.8,0-6.9-3.1-6.9-6.9v-27.2c0-3.8,3.1-6.9,6.9-6.9h67.2c3.8,0,6.9,3.1,6.9,6.9v27.2c0,3.8-3.1,6.9-6.9,6.9Z"/>
      <path class="cls-22" d="M431.5,213.5h-54.1c-3.8,0-6.9-3.1-6.9-6.9v-18.2c0-3.8,3.1-6.9,6.9-6.9h54.1c3.8,0,6.9,3.1,6.9,6.9v18.2c0,3.8-3.1,6.9-6.9,6.9Z"/>
      <path class="cls-18" d="M431.5,181.5h0l-.1,32h.1c3.8,0,6.9-3.1,6.9-6.9v-18.2c0-3.8-3.1-6.9-6.9-6.9Z"/>
      <path class="cls-3" d="M417.1,181.5h-39.7c-3.8,0-6.9,3.1-6.9,6.9v18.2c0,3.8,3.1,6.9,6.9,6.9h39.7v-32Z"/>
      <path class="cls-27" d="M377.4,181.5c-3.8,0-6.9,3.1-6.9,6.9v18.2c0,3.8,3.1,6.9,6.9,6.9h1.9v-32h-1.9Z"/>
      <path class="cls-34" d="M417.1,181.5h-39.7c-3.8,0-6.9,3.1-6.9,6.9v18.2c0,3.8,3.1,6.9,6.9,6.9h39.7v-32Z"/>
      <path class="cls-16" d="M438.9,150.2h-69c-3.3,0-6-2.7-6-6V75.2c0-3.3,2.7-6,6-6h69c3.3,0,6,2.7,6,6v69c0,3.3-2.7,6-6,6Z"/>
      <path class="cls-17" d="M314.7,199.9h-31.2v16h31.2c4.4,0,8-3.6,8-8h0c0-4.4-3.6-8-8-8Z"/>
      <path class="cls-17" d="M246.8,199.9h31.2v16h-31.2c-4.4,0-8-3.6-8-8h0c0-4.4,3.5-8,8-8Z"/>
      <path class="cls-22" d="M312.7,196.9h-31.2v16h31.2c4.4,0,8-3.6,8-8h0c0-4.4-3.6-8-8-8Z"/>
      <path class="cls-22" d="M244.8,196.9h31.2v16h-31.2c-4.4,0-8-3.6-8-8h0c0-4.4,3.5-8,8-8Z"/>
      <path class="cls-16" d="M314.2,190.5H106.2c-6.6,0-12-5.4-12-12V104.5c0-6.6,5.4-12,12-12h208c6.6,0,12,5.4,12,12v74c0,6.6-5.4,12-12,12Z"/>
      <path class="cls-22" d="M314.2,175.5H106.2c-6.6,0-12-5.4-12-12V89.5c0-6.6,5.4-12,12-12h208c6.6,0,12,5.4,12,12v74c0,6.6-5.4,12-12,12Z"/>
      <path class="cls-28" d="M314.2,175.5H106.2c-6.6,0-12-5.4-12-12V89.5c0-6.6,5.4-12,12-12h208c6.6,0,12,5.4,12,12v74c0,6.6-5.4,12-12,12Z"/>
      <path class="cls-3" d="M314.2,181.5H106.2c-6.6,0-12-5.4-12-12V95.5c0-6.6,5.4-12,12-12h208c6.6,0,12,5.4,12,12v74c0,6.6-5.4,12-12,12Z"/>
      <path class="cls-34" d="M314.2,181.5H106.2c-6.6,0-12-5.4-12-12V95.5c0-6.6,5.4-12,12-12h208c6.6,0,12,5.4,12,12v74c0,6.6-5.4,12-12,12Z"/>
      <path class="cls-33" d="M474.1,231.6H54.1V89.6c0-16.5,13.5-30,30-30H444.1c16.5,0,30,13.5,30,30V231.6Z"/>
      <path class="cls-34" d="M314.4,181.5h-86V83.5h86c6.6,0,12,5.4,12,12v74c0,6.6-5.4,12-12,12Z"/>
      <path class="cls-22" d="M310.4,173.6h-66.2c-4.4,0-8-3.6-8-8V99.4c0-4.4,3.6-8,8-8h66.2c4.4,0,8,3.6,8,8v66.2c0,4.4-3.5,8-8,8Z"/>
      <path class="cls-3" d="M277.7,138.9l-41.3,28.1c.7,3.7,3.9,6.5,7.9,6.5h66.2c4,0,7.4-3,7.9-6.9l-40.7-27.7Z"/>
      <path class="cls-21" d="M277.7,126.1l-41.2-28.1c.7-3.7,3.9-6.5,7.9-6.5h66.2c4,0,7.4,3,7.9,6.9l-40.8,27.7Z"/>
      <path class="cls-25" d="M249.4,144.9v-24.9c0-8.6,7-15.6,15.6-15.6h24.9c8.6,0,15.6,7,15.6,15.6v24.9c0,8.6-7,15.6-15.6,15.6h-24.9c-8.7,0-15.6-7-15.6-15.6Z"/>
      <path class="cls-25" d="M285,145.1h-15.3c-2.8,0-5-2.2-5-5v-15.3c0-2.8,2.2-5,5-5h15.3c2.8,0,5,2.2,5,5v15.3c0,2.8-2.2,5-5,5Z"/>
      <path class="cls-25" d="M269.7,151.1c-6.1,0-11-4.9-11-11v-15.3c0-6.1,4.9-11,11-11h15.3c6.1,0,11,4.9,11,11v15.3c0,6.1-4.9,11-11,11h-15.3Z"/>
      <path class="cls-30" d="M269.7,151.1c-6.1,0-11-4.9-11-11v-15.3c0-6.1,4.9-11,11-11h15.3c6.1,0,11,4.9,11,11v15.3c0,6.1-4.9,11-11,11h-15.3Z"/>
      <path class="cls-29" d="M269.7,150.1c-5.5,0-10-4.5-10-10v-15.3c0-5.5,4.5-10,10-10h15.3c5.5,0,10,4.5,10,10v15.3c0,5.5-4.5,10-10,10h-15.3Z"/>
      <path class="cls-30" d="M285,145.1h-15.3c-2.8,0-5-2.2-5-5v-15.3c0-2.8,2.2-5,5-5h15.3c2.8,0,5,2.2,5,5v15.3c0,2.8-2.2,5-5,5Z"/>
      <path class="cls-29" d="M269.7,144.1c-2.2,0-4-1.8-4-4v-15.3c0-2.2,1.8-4,4-4h15.3c2.2,0,4,1.8,4,4v15.3c0,2.2-1.8,4-4,4h-15.3Z"/>
      <path class="cls-9" d="M282.2,141.3h-9.7c-2.2,0-4-1.8-4-4v-9.7c0-2.2,1.8-4,4-4h9.7c2.2,0,4,1.8,4,4v9.7c0,2.2-1.8,4-4,4Z"/>
      <path class="cls-30" d="M282.2,141.3h-9.7c-2.2,0-4-1.8-4-4v-9.7c0-2.2,1.8-4,4-4h9.7c2.2,0,4,1.8,4,4v9.7c0,2.2-1.8,4-4,4Z"/>
      <path class="cls-29" d="M272.5,140.3c-1.7,0-3-1.3-3-3v-9.7c0-1.7,1.3-3,3-3h9.7c1.7,0,3,1.3,3,3v9.7c0,1.7-1.3,3-3,3h-9.7Z"/>
      <path class="cls-22" d="M434.4,145.6h-59.9c-2.2,0-4-1.8-4-4v-59.9c0-2.2,1.8-4,4-4h59.9c2.2,0,4,1.8,4,4v59.9c0,2.2-1.8,4-4,4Z"/>
      <circle class="cls-34" cx="404.4" cy="111.7" r="25.2"/>
      <circle class="cls-3" cx="404.4" cy="111.7" r="18"/>
      <circle class="cls-34" cx="404.4" cy="111.7" r="18"/>
      <circle class="cls-10" cx="404.4" cy="111.7" r="12.7"/>
      <circle class="cls-34" cx="404.4" cy="111.7" r="12.7"/>
      <path class="cls-32" d="M398,111.7c0-3.5,2.9-6.4,6.4-6.4"/>
      <path class="cls-34" d="M431.5,213.5h-54.1c-3.8,0-6.9-3.1-6.9-6.9v-18.2c0-3.8,3.1-6.9,6.9-6.9h54.1c3.8,0,6.9,3.1,6.9,6.9v18.2c0,3.8-3.1,6.9-6.9,6.9Z"/>
      <polygon class="cls-15" points="484.1 252.6 44.1 252.6 54.1 231.6 474.1 231.6 484.1 252.6"/>
      <polygon class="cls-15" points="484.1 252.6 44.1 252.6 54.1 231.6 474.1 231.6 484.1 252.6"/>
      <polygon class="cls-13" points="473.1 231.6 458.5 231.6 468.5 252.6 483.1 252.6 473.1 231.6"/>
      <polygon class="cls-4" points="54.1 231.6 44.1 252.6 60.6 252.6 70.6 231.6 54.1 231.6"/>
      <polygon class="cls-33" points="484.1 252.6 44.1 252.6 54.1 231.6 474.1 231.6 484.1 252.6"/>
      <rect class="cls-6" x="44.1" y="252.6" width="440" height="21"/>
      <rect class="cls-15" x="469.1" y="252.6" width="15" height="21"/>
      <rect class="cls-5" x="44.1" y="252.6" width="17" height="21"/>
      <rect class="cls-33" x="44.1" y="252.6" width="440" height="21"/>
      <path class="cls-22" d="M444.1,359.6H84.1c-16.6,0-31.5-12.9-33.4-29.1l-6.6-56.9H484.1l-6.6,56.9c-1.9,16.2-16.8,29.1-33.4,29.1Z"/>
      <path class="cls-26" d="M469.1,273.6l-6.6,56.9c-1.9,16.2-16.8,29.1-33.4,29.1h15c16.6,0,31.5-12.9,33.4-29.1l6.6-56.9h-15Z"/>
      <path class="cls-19" d="M67.7,330.5l-6.6-56.9h-17l6.6,56.9c1.9,16.2,16.8,29.1,33.4,29.1h17c-16.5,0-31.5-12.9-33.4-29.1Z"/>
      <path class="cls-33" d="M444.1,359.6H84.1c-16.6,0-31.5-12.9-33.4-29.1l-6.6-56.9H484.1l-6.6,56.9c-1.9,16.2-16.8,29.1-33.4,29.1Z"/>
      <path class="cls-20" d="M434.9,333H94.9c-5.5,0-10-4.5-10-10v-29c0-2.2,1.8-4,4-4H440.9c2.2,0,4,1.8,4,4v29c0,5.5-4.5,10-10,10Z"/>
      <path class="cls-33" d="M434.9,333H94.9c-5.5,0-10-4.5-10-10v-29c0-2.2,1.8-4,4-4H440.9c2.2,0,4,1.8,4,4v29c0,5.5-4.5,10-10,10Z"/>
      <g>
        <path class="cls-14" d="M416,432.1H112.3c-9.8,0-16.3-7.9-14.4-17.4l21.8-112.2H408.6l21.8,112.2c1.9,9.5-4.6,17.4-14.4,17.4Z"/>
        <path class="cls-33" d="M416,432.1H112.3c-9.8,0-16.3-7.9-14.4-17.4l21.8-112.2H408.6l21.8,112.2c1.9,9.5-4.6,17.4-14.4,17.4Z"/>
        <path class="cls-1" d="M139.1,384.5l12.3-80.9h225.5l12.3,80.9c.8,5.4-3.1,9.7-8.8,9.7H147.9c-5.6,.1-9.6-4.3-8.8-9.7Z"/>
        <path class="cls-2" d="M263.6,289.9c-19.9,0-36.7,13.7-37.6,31.4-.9,18.5,15.9,34.3,37.5,34.3s38.5-15.7,37.6-34.3c-.9-17.6-17.6-31.4-37.5-31.4h0Zm22.5,16c3.7,3.9,6.2,8.8,6.7,14.3-4.3-.8-8.3-1.2-12-1.2h0c-3,0-5.8,.2-8.5,.6-.7-1.4-1.3-2.7-2-3.9,5.9-2.2,11.4-5.4,15.8-9.8h0Zm-22.5-9.3c6.7,0,12.8,2,17.8,5.3-3.7,3.8-8.6,6.6-14,8.6-3.8-6.3-7.4-10.7-9.8-13.3,1.9-.4,3.9-.6,6-.6h0Zm-12.6,2.5c1.9,2,5.9,6.4,10.1,13.3-8.8,2.3-17.6,2.8-23,2.8h-2.8c2.4-7.2,8.2-13,15.7-16.1h0Zm-16.7,22.3v-.4h3.2c5.9,0,16.2-.5,26.6-3.3,.6,1.1,1.1,2.2,1.7,3.4-7,2-12.5,5.3-16.7,8.6-4,3.2-6.8,6.4-8.4,8.5-4.3-4.7-6.7-10.5-6.4-16.8h0Zm29.2,26.4c-6.8,0-12.9-2-17.9-5.4,1.1-1.6,3.4-4.6,7.1-7.6,3.7-3.1,8.8-6.3,15.4-8.2,2.3,5.6,4.4,12,6.1,19.5-3.3,1.1-6.9,1.7-10.7,1.7h0Zm17.1-4.8c-1.7-6.7-3.7-12.6-5.8-17.8,1.9-.2,3.9-.4,6-.4h.1c3.5,0,7.4,.4,11.6,1.2-1.2,7-5.6,13-11.9,17h0Z"/>
      </g>
      <g>
        <path class="cls-14" d="M416,432.1H112.3c-9.8,0-16.3-7.9-14.4-17.4l21.8-112.2H408.6l21.8,112.2c1.9,9.5-4.6,17.4-14.4,17.4Z"/>
        <path class="cls-33" d="M416,432.1H112.3c-9.8,0-16.3-7.9-14.4-17.4l21.8-112.2H408.6l21.8,112.2c1.9,9.5-4.6,17.4-14.4,17.4Z"/>
        <path class="cls-7" d="M139.1,384.5l12.3-80.9h225.5l12.3,80.9c.8,5.4-3.1,9.7-8.8,9.7H147.9c-5.6,.1-9.6-4.3-8.8-9.7Z"/>
        <g>
          <path d="M282,286.8h-30.6c-10.4,0-19.8,6.8-21,15.6l-4.2,30.2c-1.7,11.9,7.7,22.4,21,22.4h39.2c13.3,0,22.7-10.5,21-22.4l-4.2-30.2c-1.4-8.8-10.8-15.6-21.2-15.6h0Zm18.1,45.9c.9,8-5.4,14.8-14.3,14.8h-38.2c-8.8,0-15.2-6.8-14.3-14.8l3.5-30.2c.7-6.1,7.1-10.8,14.3-10.8h31.2c7.2,0,13.6,4.7,14.3,10.8l3.5,30.2Z"/>
          <path d="M266.7,300.4c-10.2,0-19.1,7.1-19.8,16.3-.7,9.9,8.1,18.5,19.8,18.5s20.5-8.6,19.8-18.5c-.7-9.2-9.6-16.3-19.8-16.3h0Zm0,28.2c-7.4,0-13.3-5.4-13-11.8,.3-6.1,6.1-10.9,13-10.9s12.7,4.8,13,10.9c.3,6.3-5.5,11.8-13,11.8h0Z"/>
          <path class="cls-35" d="M285.7,296.1c-1.2,0-2.4,.4-3.2,1.1-.8,.7-1.3,1.7-1.2,2.7s.6,2,1.5,2.7,2.2,1.2,3.4,1.2c1.3,0,2.4-.4,3.3-1.2,.8-.7,1.2-1.7,1.1-2.7-.1-1-.7-2-1.6-2.7-.8-.7-2.1-1.1-3.3-1.1h0Z"/>
        </g>
      </g>
      <path class="cls-21" d="M444.9,320.2H84.9v-26.2c0-2.2,1.8-4,4-4H440.9c2.2,0,4,1.8,4,4v26.2Z"/>
      <rect class="cls-3" x="84.9" y="290" width="360" height="16"/>
      <path class="cls-33" d="M444.9,306H84.9v-12c0-2.2,1.8-4,4-4H440.9c2.2,0,4,1.8,4,4v12Z"/>
      <path class="cls-11" d="M249.4,144.9v-24.9c0-8.6,7-15.6,15.6-15.6h24.9c8.6,0,15.6,7,15.6,15.6v24.9c0,8.6-7,15.6-15.6,15.6h-24.9c-8.7,0-15.6-7-15.6-15.6Z"/>
      <path class="cls-34" d="M249.4,144.9v-24.9c0-8.6,7-15.6,15.6-15.6h24.9c8.6,0,15.6,7,15.6,15.6v24.9c0,8.6-7,15.6-15.6,15.6h-24.9c-8.7,0-15.6-7-15.6-15.6Z"/>
      <path class="cls-32" d="M256.4,122.1c0-5.8,4.7-10.6,10.6-10.6"/>
      <line class="cls-32" x1="298.4" y1="140.8" x2="298.4" y2="144.9"/>
      <line class="cls-32" x1="298.4" y1="120.1" x2="298.4" y2="134.2"/>
      <path class="cls-34" d="M221.2,150.2l-118.2-.1v-50.7c0-4.4,3.6-8,8-8l110.2,.1v58.7h0Z"/>
      <path class="cls-22" d="M182.2,168H106.7c-2.1,0-3.8-1.7-3.8-3.8h0c0-2.1,1.7-3.8,3.8-3.8h75.5c2.1,0,3.8,1.7,3.8,3.8h0c-.1,2.1-1.8,3.8-3.8,3.8Z"/>
      <path class="cls-22" d="M214.1,169.9h-14c-3.1,0-5.6-2.5-5.6-5.6h0c0-3.1,2.5-5.6,5.6-5.6h14c3.1,0,5.6,2.5,5.6,5.6h0c.1,3.1-2.5,5.6-5.6,5.6Z"/>
      <g>
        <line class="cls-34" x1="215.4" y1="92.2" x2="215.4" y2="150.1"/>
        <line class="cls-34" x1="209.4" y1="92.2" x2="209.4" y2="150.1"/>
        <line class="cls-34" x1="203.4" y1="92.2" x2="203.4" y2="150.1"/>
        <line class="cls-34" x1="197.4" y1="92.2" x2="197.4" y2="150.1"/>
        <line class="cls-34" x1="191.4" y1="92.2" x2="191.4" y2="150.1"/>
        <line class="cls-34" x1="185.4" y1="92.2" x2="185.4" y2="150.1"/>
        <line class="cls-34" x1="179.4" y1="92.2" x2="179.4" y2="150.1"/>
        <line class="cls-34" x1="173.4" y1="92.2" x2="173.4" y2="150.1"/>
        <line class="cls-34" x1="167.4" y1="92.2" x2="167.4" y2="150.1"/>
        <line class="cls-34" x1="161.4" y1="92.2" x2="161.4" y2="150.1"/>
        <line class="cls-34" x1="155.4" y1="92.2" x2="155.4" y2="150.1"/>
        <line class="cls-34" x1="149.4" y1="92.2" x2="149.4" y2="150.1"/>
        <line class="cls-34" x1="143.4" y1="92.2" x2="143.4" y2="150.1"/>
        <line class="cls-34" x1="137.4" y1="92.2" x2="137.4" y2="150.1"/>
        <line class="cls-34" x1="131.4" y1="92.2" x2="131.4" y2="150.1"/>
        <line class="cls-34" x1="125.4" y1="92.2" x2="125.4" y2="150.1"/>
        <line class="cls-34" x1="119.4" y1="92.2" x2="119.4" y2="150.1"/>
        <line class="cls-34" x1="113.4" y1="92.2" x2="113.4" y2="150.1"/>
        <line class="cls-34" x1="107.4" y1="92.2" x2="107.4" y2="150.1"/>
      </g>
      <path class="cls-34" d="M312.7,196.9h-31.2v16h31.2c4.4,0,8-3.6,8-8h0c0-4.4-3.6-8-8-8Z"/>
      <path class="cls-34" d="M244.8,196.9h31.2v16h-31.2c-4.4,0-8-3.6-8-8h0c0-4.4,3.5-8,8-8Z"/>
      <path class="cls-34" d="M312.7,196.9h-31.2v16h31.2c4.4,0,8-3.6,8-8h0c0-4.4-3.6-8-8-8Z"/>
      <path class="cls-34" d="M244.8,196.9h31.2v16h-31.2c-4.4,0-8-3.6-8-8h0c0-4.4,3.5-8,8-8Z"/>
      <path class="cls-34" d="M310.4,173.6h-66.2c-4.4,0-8-3.6-8-8V99.4c0-4.4,3.6-8,8-8h66.2c4.4,0,8,3.6,8,8v66.2c0,4.4-3.5,8-8,8Z"/>
      <path class="cls-8" d="M434.4,77.7h-44.1l48.1,48.1v-44.1c0-2.2-1.8-4-4-4Z"/>
      <path class="cls-8" d="M374.8,77.7h-.3c-2.2,0-4,1.8-4,4v2.5l61.4,61.4h2.5c2.2,0,4-1.8,4-4v-.3l-63.6-63.6Z"/>
      <path class="cls-34" d="M434.4,145.6h-59.9c-2.2,0-4-1.8-4-4v-59.9c0-2.2,1.8-4,4-4h59.9c2.2,0,4,1.8,4,4v59.9c0,2.2-1.8,4-4,4Z"/>
    </g>
  </g>
</svg>