<?xml version="1.0" encoding="UTF-8"?>
<svg id="Layer_2" data-name="Layer 2" xmlns="http://www.w3.org/2000/svg" viewBox="0 0 654 683.8">
  <defs>
    <style>
      .cls-1, .cls-2, .cls-3, .cls-4, .cls-5, .cls-6, .cls-7 {
        stroke-linejoin: round;
      }

      .cls-1, .cls-2, .cls-3, .cls-4, .cls-6, .cls-7 {
        stroke-linecap: round;
      }

      .cls-1, .cls-2, .cls-3, .cls-5, .cls-6, .cls-7 {
        fill: none;
      }

      .cls-1, .cls-4 {
        opacity: .41;
        stroke: #000;
      }

      .cls-1, .cls-4, .cls-5 {
        stroke-width: 10px;
      }

      .cls-1, .cls-4, .cls-8 {
        isolation: isolate;
      }

      .cls-9 {
        fill: #f29940;
      }

      .cls-10 {
        fill: #fef585;
      }

      .cls-11 {
        fill: #e7503b;
      }

      .cls-12 {
        fill: #fec556;
      }

      .cls-13 {
        fill: #663c3b;
      }

      .cls-14 {
        fill: #8bd8f5;
      }

      .cls-15 {
        fill: #95676b;
      }

      .cls-16 {
        fill: #32b94d;
      }

      .cls-17 {
        fill: #835559;
      }

      .cls-2 {
        stroke-width: 2px;
      }

      .cls-2, .cls-3, .cls-5, .cls-6, .cls-7 {
        stroke: #663c3b;
      }

      .cls-3 {
        stroke-width: 8px;
      }

      .cls-8 {
        opacity: .17;
      }

      .cls-6 {
        stroke-width: 6px;
      }

      .cls-7 {
        stroke-width: 3px;
      }
    </style>
  </defs>
  <g id="Layer_1-2" data-name="Layer 1">
    <g>
      <path class="cls-4" d="M517,414.8H137c-72.9,0-132,59.1-132,132s59.1,132,132,132c51.3,0,95.8-29.3,117.6-72h144.8c21.8,42.7,66.3,72,117.6,72,72.9,0,132-59.1,132-132s-59.1-132-132-132Z"/>
      <path class="cls-1" d="M327,382.5v-119.4c0-13.7-11.1-24.8-24.8-24.8H114.7c-13.7,0-24.8-11.1-24.8-24.8h0c0-13.7,11.1-24.8,24.8-24.8h397.5c13.7,0,24.8-11.1,24.8-24.8h0c0-13.7-11.1-24.8-24.8-24.8h-160.5c-13.7,0-24.8-11.1-24.8-24.8V9"/>
      <path class="cls-5" d="M327,369.2v-119.4c0-13.7-11.1-24.8-24.8-24.8H114.7c-13.7,0-24.8-11.1-24.8-24.8h0c0-13.7,11.1-24.8,24.8-24.8h397.5c13.7,0,24.8-11.1,24.8-24.8h0c0-13.7-11.1-24.8-24.8-24.8h-160.5c-13.7,0-24.8-11.1-24.8-24.8V0"/>
      <rect class="cls-13" x="298" y="379" width="58" height="12.5"/>
      <rect class="cls-13" x="306.2" y="372.8" width="41.5" height="9.8"/>
      <rect class="cls-13" x="311.7" y="366.5" width="30.5" height="9.4"/>
      <path class="cls-12" d="M517,391.8H137c-72.9,0-132,59.1-132,132s59.1,132,132,132c51.3,0,95.8-29.3,117.6-72h144.8c21.8,42.7,66.3,72,117.6,72,72.9,0,132-59.1,132-132s-59.1-132-132-132Z"/>
      <path class="cls-9" d="M306.4,443.6h-28c-2.2,0-4-1.8-4-4h0c0-2.2,1.8-4,4-4h28c2.2,0,4,1.8,4,4h0c0,2.2-1.7,4-4,4Z"/>
      <path class="cls-9" d="M385.1,443.9h-56.9c-2.2,0-4-1.8-4-4h0c0-2.2,1.8-4,4-4h56.9c2.2,0,4,1.8,4,4h0c0,2.2-1.7,4-4,4Z"/>
      <path class="cls-9" d="M385.1,460.4h-106.8c-2.2,0-4-1.8-4-4h0c0-2.2,1.8-4,4-4h106.8c2.2,0,4,1.8,4,4h0c0,2.2-1.8,4-4,4Z"/>
      <path class="cls-9" d="M277.1,542.7h0c-3.5-3.5-3.5-9.2,0-12.7l29.7-29.7c3.5-3.5,9.2-3.5,12.7,0h0c3.5,3.5,3.5,9.2,0,12.7l-29.7,29.7c-3.5,3.5-9.2,3.5-12.7,0Z"/>
      <path class="cls-9" d="M344.1,542.7h0c-3.5-3.5-3.5-9.2,0-12.7l29.7-29.7c3.5-3.5,9.2-3.5,12.7,0h0c3.5,3.5,3.5,9.2,0,12.7l-29.7,29.7c-3.5,3.5-9.2,3.5-12.7,0Z"/>
      <path class="cls-9" d="M137,403.3h380c71.3,0,129.4,55.6,131.9,125.1,.1-1.6,.1-3.1,.1-4.7,0-72.9-59.1-132-132-132H137c-72.9,0-132,59.1-132,132,0,1.6,0,3.1,.1,4.7,2.4-69.5,60.5-125.1,131.9-125.1Z"/>
      <path class="cls-9" d="M517,638.8c-51.3,0-92.8-21.3-114.6-64H251.6c-21.8,42.7-63.3,64-114.6,64-70,0-127.3-54.6-131.7-123.5-.2,2.8-.3,5.6-.3,8.5,0,72.9,59.1,132,132,132,51.3,0,95.8-29.3,117.6-72h144.8c21.8,42.7,66.3,72,117.6,72,72.9,0,132-59.1,132-132,0-2.9-.1-5.7-.3-8.5-4.4,68.9-61.7,123.5-131.7,123.5Z"/>
      <circle class="cls-9" cx="137.5" cy="531" r="85"/>
      <circle class="cls-17" cx="137.5" cy="523.8" r="84"/>
      <circle class="cls-15" cx="137.5" cy="523.8" r="71"/>
      <path class="cls-13" d="M187.9,507.8h-34.4v-34.4c0-2.5-2.1-4.6-4.6-4.6h-22.8c-2.5,0-4.6,2.1-4.6,4.6v34.4h-34.4c-2.5,0-4.6,2.1-4.6,4.6v22.8c0,2.5,2.1,4.6,4.6,4.6h34.4v34.4c0,2.5,2.1,4.6,4.6,4.6h22.8c2.5,0,4.6-2.1,4.6-4.6v-34.4h34.4c2.5,0,4.6-2.1,4.6-4.6v-22.8c0-2.6-2.1-4.6-4.6-4.6Z"/>
      <circle class="cls-6" cx="137.5" cy="523.8" r="84"/>
      <circle class="cls-9" cx="517.5" cy="531" r="85"/>
      <circle class="cls-17" cx="517.5" cy="523.8" r="84"/>
      <circle class="cls-15" cx="517.5" cy="523.8" r="71"/>
      <circle class="cls-6" cx="517.5" cy="523.8" r="84"/>
      <path class="cls-12" d="M131,487.2l5.5-9.6c.4-.7,1.4-.7,1.8,0l5.5,9.6c.4,.7-.1,1.6-.9,1.6h-11.1c-.7,0-1.2-.9-.8-1.6Z"/>
      <path class="cls-12" d="M131,560.4l5.5,9.6c.4,.7,1.4,.7,1.8,0l5.5-9.6c.4-.7-.1-1.6-.9-1.6h-11.1c-.7,0-1.2,.9-.8,1.6Z"/>
      <path class="cls-7" d="M187.9,507.8h-34.4v-34.4c0-2.5-2.1-4.6-4.6-4.6h-22.8c-2.5,0-4.6,2.1-4.6,4.6v34.4h-34.4c-2.5,0-4.6,2.1-4.6,4.6v22.8c0,2.5,2.1,4.6,4.6,4.6h34.4v34.4c0,2.5,2.1,4.6,4.6,4.6h22.8c2.5,0,4.6-2.1,4.6-4.6v-34.4h34.4c2.5,0,4.6-2.1,4.6-4.6v-22.8c0-2.6-2.1-4.6-4.6-4.6Z"/>
      <path class="cls-12" d="M172.3,517.3l9.6,5.5c.7,.4,.7,1.4,0,1.8l-9.6,5.5c-.7,.4-1.6-.1-1.6-.9v-11.1c0-.7,.9-1.2,1.6-.8Z"/>
      <path class="cls-12" d="M100.9,517.3l-9.6,5.5c-.7,.4-.7,1.4,0,1.8l9.6,5.5c.7,.4,1.6-.1,1.6-.9v-11.1c0-.7-.9-1.2-1.6-.8Z"/>
      <path class="cls-3" d="M426.7,385.8h90.8c19.5,0,38.1,4.1,55,11.4"/>
      <path class="cls-3" d="M82.5,397.2c16.9-7.4,35.5-11.4,55-11.4h89.2"/>
      <path class="cls-6" d="M517,391.8H137c-72.9,0-132,59.1-132,132s59.1,132,132,132c51.3,0,95.8-29.3,117.6-72h144.8c21.8,42.7,66.3,72,117.6,72,72.9,0,132-59.1,132-132s-59.1-132-132-132Z"/>
      <path class="cls-8" d="M531,511.5l-39.6,39.6c-8.6,8.6-22.5,8.6-31.1,0h0c-8.6-8.6-8.6-22.5,0-31.1l39.6-39.6c8.6-8.6,22.5-8.6,31.1,0h0c8.6,8.5,8.6,22.5,0,31.1Z"/>
      <path class="cls-12" d="M529,507.5l-39.6,39.6c-8.6,8.6-22.5,8.6-31.1,0h0c-8.6-8.6-8.6-22.5,0-31.1l39.6-39.6c8.6-8.6,22.5-8.6,31.1,0h0c8.6,8.5,8.6,22.5,0,31.1Z"/>
      <path class="cls-7" d="M529,507.5l-39.6,39.6c-8.6,8.6-22.5,8.6-31.1,0h0c-8.6-8.6-8.6-22.5,0-31.1l39.6-39.6c8.6-8.6,22.5-8.6,31.1,0h0c8.6,8.5,8.6,22.5,0,31.1Z"/>
      <circle class="cls-16" cx="473.9" cy="531.5" r="14"/>
      <path class="cls-2" d="M464.9,530.7c.4-5,4.8-8.6,9.8-8.2"/>
      <circle class="cls-7" cx="473.9" cy="531.5" r="14"/>
      <circle class="cls-14" cx="513.5" cy="491.9" r="14"/>
      <path class="cls-2" d="M504.5,491.9c0-5,4-9,9-9"/>
      <circle class="cls-7" cx="513.5" cy="491.9" r="14"/>
      <path class="cls-8" d="M577.6,537.7l-39.6,39.6c-8.6,8.6-22.5,8.6-31.1,0h0c-8.6-8.6-8.6-22.5,0-31.1l39.6-39.6c8.6-8.6,22.5-8.6,31.1,0h0c8.6,8.6,8.6,22.5,0,31.1Z"/>
      <path class="cls-12" d="M576.6,532.7l-39.6,39.6c-8.6,8.6-22.5,8.6-31.1,0h0c-8.6-8.6-8.6-22.5,0-31.1l39.6-39.6c8.6-8.6,22.5-8.6,31.1,0h0c8.6,8.6,8.6,22.5,0,31.1Z"/>
      <path class="cls-7" d="M576.6,532.7l-39.6,39.6c-8.6,8.6-22.5,8.6-31.1,0h0c-8.6-8.6-8.6-22.5,0-31.1l39.6-39.6c8.6-8.6,22.5-8.6,31.1,0h0c8.6,8.6,8.6,22.5,0,31.1Z"/>
      <circle class="cls-10" cx="521.5" cy="556.8" r="14"/>
      <path class="cls-2" d="M512.5,556.8c0-5,4-9,9-9"/>
      <circle class="cls-7" cx="521.5" cy="556.8" r="14"/>
      <circle class="cls-11" cx="561.1" cy="517.2" r="14"/>
      <path class="cls-2" d="M552.1,517.2c0-5,4-9,9-9"/>
      <circle class="cls-7" cx="561.1" cy="517.2" r="14"/>
      <path class="cls-13" d="M277.1,538.7h0c-3.5-3.5-3.5-9.2,0-12.7l29.7-29.7c3.5-3.5,9.2-3.5,12.7,0h0c3.5,3.5,3.5,9.2,0,12.7l-29.7,29.7c-3.5,3.5-9.2,3.5-12.7,0Z"/>
      <path class="cls-13" d="M344.1,538.7h0c-3.5-3.5-3.5-9.2,0-12.7l29.7-29.7c3.5-3.5,9.2-3.5,12.7,0h0c3.5,3.5,3.5,9.2,0,12.7l-29.7,29.7c-3.5,3.5-9.2,3.5-12.7,0Z"/>
      <circle class="cls-12" cx="137.5" cy="523.8" r="16"/>
      <path class="cls-9" d="M137.5,536.5c-8.1,0-15.1-6.4-15.9-14.4-.1,.5-.1,1.1-.1,1.6,0,8.7,7.3,16,16,16s16-7.3,16-16c0-.6,0-1.1-.1-1.6-.9,8-7.8,14.4-15.9,14.4Z"/>
      <path class="cls-2" d="M125.5,523.8c0-6.5,5.5-12,12-12"/>
    </g>
  </g>
</svg>