<?xml version="1.0" encoding="UTF-8"?>
<svg id="Layer_2" data-name="Layer 2" xmlns="http://www.w3.org/2000/svg" viewBox="0 0 554.03 480.93">
  <defs>
    <style>
      .cls-1, .cls-2, .cls-3, .cls-4, .cls-5, .cls-6, .cls-7, .cls-8, .cls-9, .cls-10, .cls-11, .cls-12, .cls-13 {
        stroke-linecap: round;
        stroke-linejoin: round;
      }

      .cls-1, .cls-2, .cls-3, .cls-7, .cls-8, .cls-9, .cls-14, .cls-15, .cls-16, .cls-10, .cls-17, .cls-13 {
        fill: #4e4e4e;
      }

      .cls-1, .cls-4 {
        stroke: #000;
      }

      .cls-2, .cls-5, .cls-7, .cls-8, .cls-9, .cls-10, .cls-11, .cls-12, .cls-13 {
        stroke: #46505c;
      }

      .cls-3, .cls-6 {
        stroke: #626c84;
      }

      .cls-4, .cls-5, .cls-6, .cls-11, .cls-12, .cls-18 {
        fill: none;
      }

      .cls-7, .cls-19, .cls-16, .cls-11 {
        stroke-width: 2px;
      }

      .cls-20 {
        opacity: .06;
      }

      .cls-8, .cls-10, .cls-12, .cls-13 {
        stroke-width: 4px;
      }

      .cls-21, .cls-22 {
        opacity: .1;
      }

      .cls-9 {
        stroke-width: 4px;
      }

      .cls-23 {
        fill: #e6f3ff;
      }

      .cls-24, .cls-19, .cls-25, .cls-26, .cls-22 {
        fill: #fff;
      }

      .cls-27 {
        fill: #fd848e;
      }

      .cls-28, .cls-29, .cls-30 {
        fill: #626c84;
      }

      .cls-31 {
        fill: #76d1ff;
      }

      .cls-32, .cls-33 {
        fill: #845b5b;
      }

      .cls-19, .cls-16 {
        stroke: #e6f3ff;
      }

      .cls-19, .cls-16, .cls-18 {
        stroke-miterlimit: 10;
      }

      .cls-33, .cls-15, .cls-29, .cls-10, .cls-25, .cls-30, .cls-17, .cls-13, .cls-26, .cls-22 {
        isolation: isolate;
      }

      .cls-33, .cls-10, .cls-34 {
        opacity: .33;
      }

      .cls-15, .cls-29 {
        opacity: .17;
      }

      .cls-25 {
        opacity: .52;
      }

      .cls-30, .cls-17 {
        opacity: .25;
      }

      .cls-18 {
        stroke: #fff;
      }

      .cls-35 {
        opacity: .47;
      }

      .cls-36 {
        opacity: .72;
      }

      .cls-13 {
        opacity: .18;
      }

      .cls-26 {
        opacity: .12;
      }
    </style>
  </defs>
  <g id="Layer_1-2" data-name="Layer 1">
    <g>
      <g class="cls-35">
        <path class="cls-31" d="M430.87,135.77l103-27.6c12.1-3.2,19.2-15.6,16-27.7h0c-3.2-12.1-15.6-19.2-27.7-16l-162.3,43.5c-12.1,3.2-24.5-3.9-27.7-16h0c-3.2-12.1,3.9-24.5,16-27.7l73.9-19.8c12.1-3.2,19.2-15.6,16-27.7h0c-3.2-12.1-15.6-19.2-27.7-16L34.97,101.17c-12.1,3.2-19.2,15.6-16,27.7h0c3.2,12.1,15.6,19.2,27.7,16h0l58.4-15.7c12.1-3.2,24.5,3.9,27.7,16h0c3.2,12.1-3.9,24.5-16,27.7h0l-100,26.8c-12.1,3.2-19.2,15.6-16,27.7H.77c3.2,12.1,15.6,19.2,27.7,16h0l62.4-16.7c12.1-3.2,24.5,3.9,27.7,16h0c3.2,12.1-3.9,24.5-16,27.7h0l-4.4,1.2c-12.1,3.2-19.2,15.6-16,27.7h0c3.2,12.1,15.6,19.2,27.7,16h0l4.2-1.1c12.1-3.2,24.5,3.9,27.7,16h0c3.2,12.1-3.9,24.5-16,27.7h0l-62.2,16.7c-12.1,3.2-19.2,15.6-16,27.7h0c3.2,12.1,15.6,19.2,27.7,16l113.6-30.4c12.1-3.2,24.5,3.9,27.7,16h0c3.2,12.1-3.9,24.5-16,27.7h0l-18.2,4.9c-12.1,3.2-19.2,15.6-16,27.7h0c3.2,12.1,15.6,19.2,27.7,16h0l289.4-77.5c12.1-3.2,19.2-15.6,16-27.7h0c-3.2-12.1-15.6-19.2-27.7-16h0l-8.5,2.3c-12.1,3.2-24.5-3.9-27.7-16h0c-3.2-12.1,3.9-24.5,16-27.7h0l56-15c12.1-3.2,19.2-15.6,16-27.7h0c-3.2-12.1-15.6-19.2-27.7-16h0l-79.4,21.3c-12.1,3.2-24.5-3.9-27.7-16h0c-3.2-12.1,3.9-24.5,16-27.7l56.2-15.1c12.1-3.2,19.2-15.6,16-27.7h0c-3.2-12.1-15.6-19.2-27.7-16h0l-6.8,1.8c-12.1,3.2-24.5-3.9-27.7-16h0c-3.2-12.1,4-24.5,16.1-27.7h0Z"/>
        <path class="cls-31" d="M519.57,158.87l6-1.6c12.1-3.2,24.5,3.9,27.7,16h0c3.2,12.1-3.9,24.5-16,27.7l-6,1.6c-12.1,3.2-24.5-3.9-27.7-16h0c-3.3-12.1,3.9-24.5,16-27.7Z"/>
      </g>
      <g class="cls-34">
        <path class="cls-1" d="M173.07,197.37h232c7.7,0,14,6.3,14,14v17.5c0,7.7-6.3,14-14,14H173.07c-7.7,0-14-6.3-14-14v-17.5c0-7.7,6.3-14,14-14Z"/>
        <path class="cls-14" d="M173.07,197.37h232c7.7,0,14,6.3,14,14v17.5c0,7.7-6.3,14-14,14H173.07c-7.7,0-14-6.3-14-14v-17.5c0-7.7,6.3-14,14-14Z"/>
        <path class="cls-15" d="M173.07,197.37h232c7.7,0,14,6.3,14,14v20.4c0,4.7-3.8,8.5-8.5,8.5H167.67c-4.7,0-8.5-3.8-8.5-8.5h0v-20.4c0-7.7,6.2-14,13.9-14h0Z"/>
        <path class="cls-8" d="M173.07,197.37h232c7.7,0,14,6.3,14,14v17.5c0,7.7-6.3,14-14,14H173.07c-7.7,0-14-6.3-14-14v-17.5c0-7.7,6.3-14,14-14Z"/>
        <rect class="cls-14" x="177.17" y="202.57" width="224" height="34.9"/>
        <rect class="cls-2" x="177.17" y="202.57" width="224" height="34.9"/>
        <path class="cls-14" d="M173.17,242.87h232c7.7,0,14,6.3,14,14v144c0,7.7-6.3,14-14,14H173.17c-7.7,0-14-6.3-14-14v-144c0-7.7,6.2-14,14-14Z"/>
        <path class="cls-16" d="M415.17,256.87v144c0,5.5-4.5,10-10,10H173.17c-5.5,0-10-4.5-10-10v-144c0-5.5,4.5-10,10-10h232c5.5,0,10,4.5,10,10Z"/>
        <path class="cls-14" d="M273.07,407.07h32.1c2.2,0,4,1.8,4,4v3.8h-40.1v-3.8c0-2.2,1.8-4,4-4Z"/>
        <path class="cls-8" d="M173.17,242.87h232c7.7,0,14,6.3,14,14v144c0,7.7-6.3,14-14,14H173.17c-7.7,0-14-6.3-14-14v-144c0-7.7,6.2-14,14-14Z"/>
        <path class="cls-14" d="M177.07,256.27h224c1.7,0,3,1.3,3,3v86c0,1.7-1.3,3-3,3H177.07c-1.7,0-3-1.3-3-3v-86c0-1.6,1.4-3,3-3Z"/>
        <path class="cls-3" d="M206.17,325.77h12c.6,0,1,.4,1,1v12c0,.6-.4,1-1,1h-12c-.6,0-1-.4-1-1v-12c0-.5,.5-1,1-1Z"/>
        <path class="cls-3" d="M184.57,325.77h12c.6,0,1,.4,1,1v12c0,.6-.4,1-1,1h-12c-.6,0-1-.4-1-1v-12c0-.5,.4-1,1-1Z"/>
        <path class="cls-3" d="M227.87,325.77h98.6c.6,0,1,.4,1,1v12c0,.6-.4,1-1,1h-98.6c-.6,0-1-.4-1-1v-12c0-.5,.4-1,1-1Z"/>
        <path class="cls-3" d="M336.07,325.77h12c.6,0,1,.4,1,1v12c0,.6-.4,1-1,1h-12c-.6,0-1-.4-1-1v-12c0-.5,.4-1,1-1Z"/>
        <path class="cls-3" d="M371.67,333.67h8c.6,0,1,.4,1,1v4.1c0,.6-.4,1-1,1h-8c-.6,0-1-.4-1-1v-4.1c0-.5,.5-1,1-1Z"/>
        <path class="cls-3" d="M371.67,325.77h8c.6,0,1,.4,1,1v4.1c0,.6-.4,1-1,1h-8c-.6,0-1-.4-1-1v-4.1c0-.5,.5-1,1-1Z"/>
        <path class="cls-3" d="M385.67,333.67h8c.6,0,1,.4,1,1v4.1c0,.6-.4,1-1,1h-8c-.6,0-1-.4-1-1v-4.1c0-.5,.5-1,1-1Z"/>
        <path class="cls-3" d="M357.67,333.67h8c.6,0,1,.4,1,1v4.1c0,.6-.4,1-1,1h-8c-.6,0-1-.4-1-1v-4.1c0-.5,.5-1,1-1Z"/>
        <path class="cls-3" d="M184.57,305.87h31.6c.6,0,1,.4,1,1v12c0,.6-.4,1-1,1h-31.6c-.6,0-1-.4-1-1v-12c0-.5,.4-1,1-1Z"/>
        <path class="cls-3" d="M226.07,305.87h12c.6,0,1,.4,1,1v12c0,.6-.4,1-1,1h-12c-.6,0-1-.4-1-1v-12c0-.5,.4-1,1-1Z"/>
        <path class="cls-3" d="M247.67,305.87h12c.6,0,1,.4,1,1v12c0,.6-.4,1-1,1h-12c-.6,0-1-.4-1-1v-12c0-.5,.4-1,1-1Z"/>
        <path class="cls-3" d="M269.27,305.87h12c.6,0,1,.4,1,1v12c0,.6-.4,1-1,1h-12c-.6,0-1-.4-1-1v-12c0-.5,.5-1,1-1Z"/>
        <path class="cls-3" d="M290.97,305.87h12c.6,0,1,.4,1,1v12c0,.6-.4,1-1,1h-12c-.6,0-1-.4-1-1v-12c0-.5,.4-1,1-1Z"/>
        <path class="cls-3" d="M312.57,305.87h12c.6,0,1,.4,1,1v12c0,.6-.4,1-1,1h-12c-.6,0-1-.4-1-1v-12c0-.5,.5-1,1-1Z"/>
        <path class="cls-3" d="M334.17,305.87h12c.6,0,1,.4,1,1v12c0,.6-.4,1-1,1h-12c-.6,0-1-.4-1-1v-12c0-.5,.5-1,1-1Z"/>
        <path class="cls-3" d="M357.67,305.87h36c.6,0,1,.4,1,1v12c0,.6-.4,1-1,1h-36c-.6,0-1-.4-1-1v-12c0-.5,.5-1,1-1Z"/>
        <path class="cls-3" d="M218.17,285.37h12c.6,0,1,.4,1,1v12c0,.6-.4,1-1,1h-12c-.6,0-1-.4-1-1v-12c0-.5,.5-1,1-1Z"/>
        <path class="cls-3" d="M184.57,285.37h24c.6,0,1,.4,1,1v12c0,.6-.4,1-1,1h-24c-.6,0-1-.4-1-1v-12c0-.5,.4-1,1-1Z"/>
        <path class="cls-3" d="M239.87,285.37h12c.6,0,1,.4,1,1v12c0,.6-.4,1-1,1h-12c-.6,0-1-.4-1-1v-12c0-.5,.4-1,1-1Z"/>
        <path class="cls-3" d="M261.47,285.37h12c.6,0,1,.4,1,1v12c0,.6-.4,1-1,1h-12c-.6,0-1-.4-1-1v-12c0-.5,.5-1,1-1Z"/>
        <path class="cls-3" d="M283.17,285.37h12c.6,0,1,.4,1,1v12c0,.6-.4,1-1,1h-12c-.6,0-1-.4-1-1v-12c0-.5,.4-1,1-1Z"/>
        <path class="cls-3" d="M304.77,285.37h12c.6,0,1,.4,1,1v12c0,.6-.4,1-1,1h-12c-.6,0-1-.4-1-1v-12c0-.5,.4-1,1-1Z"/>
        <path class="cls-3" d="M326.37,285.37h12c.6,0,1,.4,1,1v12c0,.6-.4,1-1,1h-12c-.6,0-1-.4-1-1v-12c0-.5,.5-1,1-1Z"/>
        <path class="cls-3" d="M348.07,285.37h12c.6,0,1,.4,1,1v12c0,.6-.4,1-1,1h-12c-.6,0-1-.4-1-1v-12c0-.5,.4-1,1-1Z"/>
        <path class="cls-3" d="M369.67,285.37h24c.6,0,1,.4,1,1v12c0,.6-.4,1-1,1h-24c-.6,0-1-.4-1-1v-12c0-.5,.5-1,1-1Z"/>
        <path class="cls-3" d="M206.47,265.77h12c.6,0,1,.4,1,1v12c0,.6-.4,1-1,1h-12c-.6,0-1-.4-1-1v-12c0-.5,.4-1,1-1Z"/>
        <path class="cls-3" d="M184.57,265.77h12c.6,0,1,.4,1,1v12c0,.6-.4,1-1,1h-12c-.6,0-1-.4-1-1v-12c0-.5,.4-1,1-1Z"/>
        <path class="cls-3" d="M228.37,265.77h12c.6,0,1,.4,1,1v12c0,.6-.4,1-1,1h-12c-.6,0-1-.4-1-1v-12c0-.5,.4-1,1-1Z"/>
        <path class="cls-3" d="M250.27,265.77h12c.6,0,1,.4,1,1v12c0,.6-.4,1-1,1h-12c-.6,0-1-.4-1-1v-12c0-.5,.4-1,1-1Z"/>
        <path class="cls-3" d="M272.17,265.77h12c.6,0,1,.4,1,1v12c0,.6-.4,1-1,1h-12c-.6,0-1-.4-1-1v-12c0-.5,.4-1,1-1Z"/>
        <path class="cls-3" d="M294.07,265.77h12c.6,0,1,.4,1,1v12c0,.6-.4,1-1,1h-12c-.6,0-1-.4-1-1v-12c0-.5,.4-1,1-1Z"/>
        <path class="cls-3" d="M315.97,265.77h12c.6,0,1,.4,1,1v12c0,.6-.4,1-1,1h-12c-.6,0-1-.4-1-1v-12c0-.5,.4-1,1-1Z"/>
        <path class="cls-3" d="M337.87,265.77h12c.6,0,1,.4,1,1v12c0,.6-.4,1-1,1h-12c-.6,0-1-.4-1-1v-12c0-.5,.5-1,1-1Z"/>
        <path class="cls-3" d="M359.77,265.77h12c.6,0,1,.4,1,1v12c0,.6-.4,1-1,1h-12c-.6,0-1-.4-1-1v-12c0-.5,.5-1,1-1Z"/>
        <path class="cls-3" d="M381.67,265.77h12c.6,0,1,.4,1,1v12c0,.6-.4,1-1,1h-12c-.6,0-1-.4-1-1v-12c0-.5,.5-1,1-1Z"/>
        <path class="cls-14" d="M206.17,325.77h12c.6,0,1,.4,1,1v12c0,.6-.4,1-1,1h-12c-.6,0-1-.4-1-1v-12c0-.5,.5-1,1-1Z"/>
        <path class="cls-14" d="M184.57,325.77h12c.6,0,1,.4,1,1v12c0,.6-.4,1-1,1h-12c-.6,0-1-.4-1-1v-12c0-.5,.4-1,1-1Z"/>
        <path class="cls-14" d="M227.87,325.77h98.6c.6,0,1,.4,1,1v12c0,.6-.4,1-1,1h-98.6c-.6,0-1-.4-1-1v-12c0-.5,.4-1,1-1Z"/>
        <path class="cls-14" d="M336.07,325.77h12c.6,0,1,.4,1,1v12c0,.6-.4,1-1,1h-12c-.6,0-1-.4-1-1v-12c0-.5,.4-1,1-1Z"/>
        <path class="cls-14" d="M371.67,333.67h8c.6,0,1,.4,1,1v4.1c0,.6-.4,1-1,1h-8c-.6,0-1-.4-1-1v-4.1c0-.5,.5-1,1-1Z"/>
        <path class="cls-14" d="M371.67,325.77h8c.6,0,1,.4,1,1v4.1c0,.6-.4,1-1,1h-8c-.6,0-1-.4-1-1v-4.1c0-.5,.5-1,1-1Z"/>
        <path class="cls-14" d="M385.67,333.67h8c.6,0,1,.4,1,1v4.1c0,.6-.4,1-1,1h-8c-.6,0-1-.4-1-1v-4.1c0-.5,.5-1,1-1Z"/>
        <path class="cls-14" d="M357.67,333.67h8c.6,0,1,.4,1,1v4.1c0,.6-.4,1-1,1h-8c-.6,0-1-.4-1-1v-4.1c0-.5,.5-1,1-1Z"/>
        <path class="cls-14" d="M184.57,305.87h31.6c.6,0,1,.4,1,1v12c0,.6-.4,1-1,1h-31.6c-.6,0-1-.4-1-1v-12c0-.5,.4-1,1-1Z"/>
        <path class="cls-14" d="M226.07,305.87h12c.6,0,1,.4,1,1v12c0,.6-.4,1-1,1h-12c-.6,0-1-.4-1-1v-12c0-.5,.4-1,1-1Z"/>
        <path class="cls-14" d="M247.67,305.87h12c.6,0,1,.4,1,1v12c0,.6-.4,1-1,1h-12c-.6,0-1-.4-1-1v-12c0-.5,.4-1,1-1Z"/>
        <path class="cls-14" d="M269.27,305.87h12c.6,0,1,.4,1,1v12c0,.6-.4,1-1,1h-12c-.6,0-1-.4-1-1v-12c0-.5,.5-1,1-1Z"/>
        <path class="cls-14" d="M290.97,305.87h12c.6,0,1,.4,1,1v12c0,.6-.4,1-1,1h-12c-.6,0-1-.4-1-1v-12c0-.5,.4-1,1-1Z"/>
        <path class="cls-14" d="M312.57,305.87h12c.6,0,1,.4,1,1v12c0,.6-.4,1-1,1h-12c-.6,0-1-.4-1-1v-12c0-.5,.5-1,1-1Z"/>
        <path class="cls-14" d="M334.17,305.87h12c.6,0,1,.4,1,1v12c0,.6-.4,1-1,1h-12c-.6,0-1-.4-1-1v-12c0-.5,.5-1,1-1Z"/>
        <path class="cls-14" d="M357.67,305.87h36c.6,0,1,.4,1,1v12c0,.6-.4,1-1,1h-36c-.6,0-1-.4-1-1v-12c0-.5,.5-1,1-1Z"/>
        <path class="cls-14" d="M218.17,285.37h12c.6,0,1,.4,1,1v12c0,.6-.4,1-1,1h-12c-.6,0-1-.4-1-1v-12c0-.5,.5-1,1-1Z"/>
        <path class="cls-14" d="M184.57,285.37h24c.6,0,1,.4,1,1v12c0,.6-.4,1-1,1h-24c-.6,0-1-.4-1-1v-12c0-.5,.4-1,1-1Z"/>
        <path class="cls-14" d="M239.87,285.37h12c.6,0,1,.4,1,1v12c0,.6-.4,1-1,1h-12c-.6,0-1-.4-1-1v-12c0-.5,.4-1,1-1Z"/>
        <path class="cls-14" d="M261.47,285.37h12c.6,0,1,.4,1,1v12c0,.6-.4,1-1,1h-12c-.6,0-1-.4-1-1v-12c0-.5,.5-1,1-1Z"/>
        <path class="cls-14" d="M283.17,285.37h12c.6,0,1,.4,1,1v12c0,.6-.4,1-1,1h-12c-.6,0-1-.4-1-1v-12c0-.5,.4-1,1-1Z"/>
        <path class="cls-14" d="M304.77,285.37h12c.6,0,1,.4,1,1v12c0,.6-.4,1-1,1h-12c-.6,0-1-.4-1-1v-12c0-.5,.4-1,1-1Z"/>
        <path class="cls-14" d="M326.37,285.37h12c.6,0,1,.4,1,1v12c0,.6-.4,1-1,1h-12c-.6,0-1-.4-1-1v-12c0-.5,.5-1,1-1Z"/>
        <path class="cls-14" d="M348.07,285.37h12c.6,0,1,.4,1,1v12c0,.6-.4,1-1,1h-12c-.6,0-1-.4-1-1v-12c0-.5,.4-1,1-1Z"/>
        <path class="cls-14" d="M369.67,285.37h24c.6,0,1,.4,1,1v12c0,.6-.4,1-1,1h-24c-.6,0-1-.4-1-1v-12c0-.5,.5-1,1-1Z"/>
        <path class="cls-14" d="M206.47,265.77h12c.6,0,1,.4,1,1v12c0,.6-.4,1-1,1h-12c-.6,0-1-.4-1-1v-12c0-.5,.4-1,1-1Z"/>
        <path class="cls-14" d="M184.57,265.77h12c.6,0,1,.4,1,1v12c0,.6-.4,1-1,1h-12c-.6,0-1-.4-1-1v-12c0-.5,.4-1,1-1Z"/>
        <path class="cls-14" d="M228.37,265.77h12c.6,0,1,.4,1,1v12c0,.6-.4,1-1,1h-12c-.6,0-1-.4-1-1v-12c0-.5,.4-1,1-1Z"/>
        <path class="cls-14" d="M250.27,265.77h12c.6,0,1,.4,1,1v12c0,.6-.4,1-1,1h-12c-.6,0-1-.4-1-1v-12c0-.5,.4-1,1-1Z"/>
        <path class="cls-14" d="M272.17,265.77h12c.6,0,1,.4,1,1v12c0,.6-.4,1-1,1h-12c-.6,0-1-.4-1-1v-12c0-.5,.4-1,1-1Z"/>
        <path class="cls-14" d="M294.07,265.77h12c.6,0,1,.4,1,1v12c0,.6-.4,1-1,1h-12c-.6,0-1-.4-1-1v-12c0-.5,.4-1,1-1Z"/>
        <path class="cls-14" d="M315.97,265.77h12c.6,0,1,.4,1,1v12c0,.6-.4,1-1,1h-12c-.6,0-1-.4-1-1v-12c0-.5,.4-1,1-1Z"/>
        <path class="cls-14" d="M337.87,265.77h12c.6,0,1,.4,1,1v12c0,.6-.4,1-1,1h-12c-.6,0-1-.4-1-1v-12c0-.5,.5-1,1-1Z"/>
        <path class="cls-14" d="M359.77,265.77h12c.6,0,1,.4,1,1v12c0,.6-.4,1-1,1h-12c-.6,0-1-.4-1-1v-12c0-.5,.5-1,1-1Z"/>
        <path class="cls-14" d="M381.67,265.77h12c.6,0,1,.4,1,1v12c0,.6-.4,1-1,1h-12c-.6,0-1-.4-1-1v-12c0-.5,.5-1,1-1Z"/>
        <path class="cls-14" d="M204.07,233.87h170v13.4c0,2.2-1.8,4-4,4H208.17c-2.2,0-4-1.8-4-4l-.1-13.4h0Z"/>
        <path class="cls-17" d="M370.17,247.37H208.17c-2.2,0-4-1.8-4-4v4c0,2.2,1.8,4,4,4h162c2.2,0,4-1.8,4-4v-4c0,2.2-1.8,4-4,4Z"/>
        <path class="cls-7" d="M204.07,233.87h170v13.4c0,2.2-1.8,4-4,4H208.17c-2.2,0-4-1.8-4-4l-.1-13.4h0Z"/>
        <path class="cls-14" d="M254.17,353.27h70c1.1,0,2,.9,2,2v47c0,1.1-.9,2-2,2h-70c-1.1,0-2-.9-2-2v-47c0-1.1,.8-2,2-2Z"/>
        <path class="cls-3" d="M254.17,353.27h70c1.1,0,2,.9,2,2v47c0,1.1-.9,2-2,2h-70c-1.1,0-2-.9-2-2v-47c0-1.1,.8-2,2-2Z"/>
      </g>
      <g class="cls-34">
        <path class="cls-9" d="M68.67,342.87l7.7-11c.2-.3,.7-.4,1-.2l7.9,5.5c.3,.2,.4,.7,.2,1l-7.7,11c-1.6,2.3-4.7,2.8-7,1.2l-.8-.6c-2.4-1.5-2.9-4.6-1.3-6.9Z"/>
        <path class="cls-9" d="M68.67,342.87l7.7-11c.2-.3,.7-.4,1-.2l7.9,5.5c.3,.2,.4,.7,.2,1l-7.7,11c-1.6,2.3-4.7,2.8-7,1.2l-.8-.6c-2.4-1.5-2.9-4.6-1.3-6.9Z"/>
        <circle class="cls-8" cx="98.27" cy="310.47" r="32.6"/>
        <circle class="cls-8" cx="98.27" cy="310.47" r="32.6"/>
        <circle class="cls-8" cx="98.27" cy="310.47" r="25.4"/>
        <circle class="cls-8" cx="98.27" cy="310.47" r="25.4"/>
        <path class="cls-10" d="M81.67,305.27c.3-.8,.7-1.5,1.1-2.2,1.7-3.3,3.7-6.8,7-8.8,2.8-1.7,6.6-2.4,9.6-.9,2.6,1.3,4.2,4.1,6.5,5.8,1.6,1,3.2,1.8,5,2.6,1.7,.8,3.1,2.2,3.8,3.9,.8,2.4-.5,5.1-.5,7.6,0,1.4,.4,2.8,1.1,4,.5,.6,.8,1.3,.9,2-.1,1-.8,1.7-1.7,2.1-2.6,1.2-5.7,.8-8.6,.5s-6.1-.4-8.4,1.4c-.9,.9-1.8,1.8-2.6,2.8-1.2,1.9-3.8,2.4-5.6,1.1-.2-.1-.4-.3-.6-.5-2.1-1.7-3.9-3.8-5.3-6-1.5-1.9-2.6-4.2-3.2-6.6-.6-3.1,.3-6,1.5-8.8Z"/>
        <circle class="cls-10" cx="103.37" cy="328.07" r="1.6"/>
        <circle class="cls-10" cx="99.27" cy="328.67" r="1.1"/>
        <circle class="cls-10" cx="107.07" cy="326.67" r="1"/>
        <circle class="cls-10" cx="95.87" cy="329.07" r=".7"/>
        <circle class="cls-10" cx="110.27" cy="325.57" r=".4"/>
        <circle class="cls-10" cx="78.57" cy="304.47" r="1"/>
        <circle class="cls-10" cx="106.17" cy="292.67" r="1"/>
        <circle class="cls-10" cx="112.37" cy="297.37" r=".9"/>
        <circle class="cls-10" cx="113.07" cy="299.87" r=".4"/>
      </g>
      <path class="cls-19" d="M61.57,334.87l7.7-11c.2-.3,.7-.4,1-.2l7.9,5.5c.3,.2,.4,.7,.2,1l-7.7,11c-1.6,2.3-4.7,2.8-7,1.2l-.8-.6c-2.4-1.5-2.9-4.7-1.3-6.9h0Z"/>
      <path class="cls-13" d="M70.27,323.67c-.3-.2-.7-.1-1,.2l-3.5,5c1.3,1.3,2.8,2.4,4.3,3.5s3.1,2,4.7,2.8l3.5-5c.2-.3,.1-.7-.2-1h0l-7.8-5.5Z"/>
      <path class="cls-12" d="M61.57,334.87l7.7-11c.2-.3,.7-.4,1-.2l7.9,5.5c.3,.2,.4,.7,.2,1l-7.7,11c-1.6,2.3-4.7,2.8-7,1.2l-.8-.6c-2.4-1.5-2.9-4.7-1.3-6.9h0Z"/>
      <circle class="cls-19" cx="91.07" cy="302.27" r="32.6"/>
      <circle class="cls-12" cx="91.07" cy="302.27" r="32.6"/>
      <circle class="cls-32" cx="91.07" cy="302.27" r="25.4"/>
      <circle class="cls-11" cx="91.07" cy="302.27" r="25.4"/>
      <path class="cls-33" d="M74.47,297.07c.3-.8,.7-1.5,1.1-2.2,1.7-3.3,3.7-6.8,7-8.8,2.8-1.7,6.6-2.4,9.6-.9,2.6,1.3,4.2,4.1,6.5,5.8,1.6,1,3.2,1.8,5,2.6,1.7,.8,3.1,2.2,3.8,3.9,.8,2.4-.5,5.1-.5,7.6,0,1.4,.4,2.8,1.1,4,.5,.6,.8,1.3,.9,2-.1,1-.8,1.7-1.7,2.1-2.6,1.2-5.7,.8-8.6,.5s-6.1-.4-8.4,1.4c-.9,.9-1.8,1.8-2.6,2.8-1.2,1.9-3.8,2.4-5.6,1.1-.2-.1-.4-.3-.6-.5-2.1-1.7-3.9-3.8-5.3-6-1.5-1.9-2.6-4.2-3.2-6.6-.6-3,.2-6,1.5-8.8Z"/>
      <circle class="cls-33" cx="96.17" cy="319.97" r="1.6"/>
      <circle class="cls-33" cx="92.07" cy="320.47" r="1.1"/>
      <circle class="cls-33" cx="99.87" cy="318.47" r="1"/>
      <circle class="cls-33" cx="88.57" cy="320.97" r=".7"/>
      <circle class="cls-33" cx="102.97" cy="317.47" r=".4"/>
      <circle class="cls-33" cx="71.37" cy="296.37" r="1"/>
      <circle class="cls-33" cx="98.97" cy="284.57" r="1"/>
      <circle class="cls-33" cx="105.17" cy="289.27" r=".9"/>
      <circle class="cls-33" cx="105.87" cy="291.67" r=".4"/>
      <circle class="cls-32" cx="93.27" cy="304.37" r="2"/>
      <circle class="cls-32" cx="86.77" cy="296.77" r="3.5"/>
      <path class="cls-4" d="M165.17,69.47h232c7.7,0,14,6.3,14,14V219.47c0,7.7-6.3,14-14,14H165.17c-7.7,0-14-6.3-14-14V83.47c0-7.7,6.3-14,14-14Z"/>
      <path class="cls-28" d="M165.17,69.47h232c7.7,0,14,6.3,14,14V219.47c0,7.7-6.3,14-14,14H165.17c-7.7,0-14-6.3-14-14V83.47c0-7.7,6.3-14,14-14Z"/>
      <path class="cls-28" d="M165.17,69.47h232c7.7,0,14,6.3,14,14V219.47c0,7.7-6.3,14-14,14H165.17c-7.7,0-14-6.3-14-14V83.47c0-7.7,6.3-14,14-14Z"/>
      <path class="cls-29" d="M165.17,69.47h232c7.7,0,14,6.3,14,14v127c0,7.7-6.3,14-14,14H165.17c-7.7,0-14-6.3-14-14V83.47c0-7.7,6.3-14,14-14Z"/>
      <path class="cls-22" d="M165.17,73.47h232c7.7,0,14,6.3,14,14V219.47h0V83.47c0-7.7-6.3-14-14-14H165.17c-7.7,0-14,6.3-14,14v4c0-7.7,6.3-14,14-14Z"/>
      <g class="cls-21">
        <polygon class="cls-24" points="230.37 233.47 246.47 233.47 365.57 69.47 349.57 69.47 230.37 233.47"/>
        <polygon class="cls-24" points="255.77 233.47 260.67 233.47 379.87 69.47 374.87 69.47 255.77 233.47"/>
      </g>
      <path class="cls-12" d="M165.17,69.47h232c7.7,0,14,6.3,14,14V219.47c0,7.7-6.3,14-14,14H165.17c-7.7,0-14-6.3-14-14V83.47c0-7.7,6.3-14,14-14Z"/>
      <rect class="cls-27" x="169.17" y="87.97" width="224" height="126"/>
      <g class="cls-20">
        <polygon class="cls-24" points="245.57 213.97 261.67 213.97 353.17 87.97 337.17 87.97 245.57 213.97"/>
        <polygon class="cls-24" points="270.87 213.97 275.87 213.97 367.37 87.97 362.47 87.97 270.87 213.97"/>
      </g>
      <rect class="cls-5" x="169.17" y="87.97" width="224" height="126"/>
      <path class="cls-23" d="M165.17,233.47h232c7.7,0,14,6.3,14,14v144c0,7.7-6.3,14-14,14H165.17c-7.7,0-14-6.3-14-14V247.47c0-7.7,6.3-14,14-14Z"/>
      <path class="cls-19" d="M407.17,247.47v144c0,5.5-4.5,10-10,10H165.17c-5.5,0-10-4.5-10-10V247.47c0-5.5,4.5-10,10-10h232c5.5,0,10,4.5,10,10Z"/>
      <path class="cls-23" d="M265.07,397.67h32.1c2.2,0,4,1.8,4,4v3.8h-40.1v-3.8c0-2.2,1.8-4,4-4Z"/>
      <path class="cls-12" d="M165.17,233.47h232c7.7,0,14,6.3,14,14v144c0,7.7-6.3,14-14,14H165.17c-7.7,0-14-6.3-14-14V247.47c0-7.7,6.3-14,14-14Z"/>
      <path class="cls-23" d="M169.17,246.87h224c1.7,0,3,1.3,3,3v86c0,1.7-1.3,3-3,3H169.17c-1.7,0-3-1.3-3-3v-86c0-1.6,1.3-3,3-3Z"/>
      <path class="cls-6" d="M198.27,316.37h12c.6,0,1,.4,1,1v12c0,.6-.4,1-1,1h-12c-.6,0-1-.4-1-1v-12c0-.5,.4-1,1-1Z"/>
      <path class="cls-6" d="M176.57,316.37h12c.6,0,1,.4,1,1v12c0,.6-.4,1-1,1h-12c-.6,0-1-.4-1-1v-12c0-.5,.5-1,1-1Z"/>
      <path class="cls-6" d="M219.87,316.37h98.6c.6,0,1,.4,1,1v12c0,.6-.4,1-1,1h-98.6c-.6,0-1-.4-1-1v-12c0-.5,.5-1,1-1Z"/>
      <path class="cls-6" d="M328.07,316.37h12c.6,0,1,.4,1,1v12c0,.6-.4,1-1,1h-12c-.6,0-1-.4-1-1v-12c0-.5,.5-1,1-1Z"/>
      <path class="cls-6" d="M363.77,324.27h8c.6,0,1,.4,1,1v4.1c0,.6-.4,1-1,1h-8c-.6,0-1-.4-1-1v-4.1c0-.6,.4-1,1-1Z"/>
      <path class="cls-6" d="M363.77,316.37h8c.6,0,1,.4,1,1v4.1c0,.6-.4,1-1,1h-8c-.6,0-1-.4-1-1v-4.1c0-.5,.4-1,1-1Z"/>
      <path class="cls-6" d="M377.77,324.27h8c.6,0,1,.4,1,1v4.1c0,.6-.4,1-1,1h-8c-.6,0-1-.4-1-1v-4.1c0-.6,.4-1,1-1Z"/>
      <path class="cls-6" d="M349.77,324.27h8c.6,0,1,.4,1,1v4.1c0,.6-.4,1-1,1h-8c-.6,0-1-.4-1-1v-4.1c0-.6,.4-1,1-1Z"/>
      <path class="cls-6" d="M176.57,296.47h31.6c.6,0,1,.4,1,1v12c0,.6-.4,1-1,1h-31.6c-.6,0-1-.4-1-1v-12c0-.5,.5-1,1-1Z"/>
      <path class="cls-6" d="M218.07,296.47h12c.6,0,1,.4,1,1v12c0,.6-.4,1-1,1h-12c-.6,0-1-.4-1-1v-12c0-.5,.5-1,1-1Z"/>
      <path class="cls-6" d="M239.67,296.47h12c.6,0,1,.4,1,1v12c0,.6-.4,1-1,1h-12c-.6,0-1-.4-1-1v-12c0-.5,.5-1,1-1Z"/>
      <path class="cls-6" d="M261.37,296.47h12c.6,0,1,.4,1,1v12c0,.6-.4,1-1,1h-12c-.6,0-1-.4-1-1v-12c0-.5,.4-1,1-1Z"/>
      <path class="cls-6" d="M282.97,296.47h12c.6,0,1,.4,1,1v12c0,.6-.4,1-1,1h-12c-.6,0-1-.4-1-1v-12c0-.5,.5-1,1-1Z"/>
      <path class="cls-6" d="M304.67,296.47h12c.6,0,1,.4,1,1v12c0,.6-.4,1-1,1h-12c-.6,0-1-.4-1-1v-12c0-.5,.4-1,1-1Z"/>
      <path class="cls-6" d="M326.27,296.47h12c.6,0,1,.4,1,1v12c0,.6-.4,1-1,1h-12c-.6,0-1-.4-1-1v-12c0-.5,.4-1,1-1Z"/>
      <path class="cls-6" d="M349.77,296.47h36c.6,0,1,.4,1,1v12c0,.6-.4,1-1,1h-36c-.6,0-1-.4-1-1v-12c0-.5,.4-1,1-1Z"/>
      <path class="cls-6" d="M210.27,275.97h12c.6,0,1,.4,1,1v12c0,.6-.4,1-1,1h-12c-.6,0-1-.4-1-1v-12c0-.5,.4-1,1-1Z"/>
      <path class="cls-6" d="M176.57,275.97h24c.6,0,1,.4,1,1v12c0,.6-.4,1-1,1h-24c-.6,0-1-.4-1-1v-12c0-.5,.5-1,1-1Z"/>
      <path class="cls-6" d="M231.87,275.97h12c.6,0,1,.4,1,1v12c0,.6-.4,1-1,1h-12c-.6,0-1-.4-1-1v-12c0-.5,.5-1,1-1Z"/>
      <path class="cls-6" d="M253.57,275.97h12c.6,0,1,.4,1,1v12c0,.6-.4,1-1,1h-12c-.6,0-1-.4-1-1v-12c0-.5,.4-1,1-1Z"/>
      <path class="cls-6" d="M275.17,275.97h12c.6,0,1,.4,1,1v12c0,.6-.4,1-1,1h-12c-.6,0-1-.4-1-1v-12c0-.5,.4-1,1-1Z"/>
      <path class="cls-6" d="M296.77,275.97h12c.6,0,1,.4,1,1v12c0,.6-.4,1-1,1h-12c-.6,0-1-.4-1-1v-12c0-.5,.5-1,1-1Z"/>
      <path class="cls-6" d="M318.47,275.97h12c.6,0,1,.4,1,1v12c0,.6-.4,1-1,1h-12c-.6,0-1-.4-1-1v-12c0-.5,.4-1,1-1Z"/>
      <path class="cls-6" d="M340.07,275.97h12c.6,0,1,.4,1,1v12c0,.6-.4,1-1,1h-12c-.6,0-1-.4-1-1v-12c0-.5,.5-1,1-1Z"/>
      <path class="cls-6" d="M361.77,275.97h24c.6,0,1,.4,1,1v12c0,.6-.4,1-1,1h-24c-.6,0-1-.4-1-1v-12c0-.5,.4-1,1-1Z"/>
      <path class="cls-6" d="M198.47,256.37h12c.6,0,1,.4,1,1v12c0,.6-.4,1-1,1h-12c-.6,0-1-.4-1-1v-12c0-.5,.5-1,1-1Z"/>
      <path class="cls-6" d="M176.57,256.37h12c.6,0,1,.4,1,1v12c0,.6-.4,1-1,1h-12c-.6,0-1-.4-1-1v-12c0-.5,.5-1,1-1Z"/>
      <path class="cls-6" d="M220.37,256.37h12c.6,0,1,.4,1,1v12c0,.6-.4,1-1,1h-12c-.6,0-1-.4-1-1v-12c0-.5,.5-1,1-1Z"/>
      <path class="cls-6" d="M242.27,256.37h12c.6,0,1,.4,1,1v12c0,.6-.4,1-1,1h-12c-.6,0-1-.4-1-1v-12c0-.5,.5-1,1-1Z"/>
      <path class="cls-6" d="M264.17,256.37h12c.6,0,1,.4,1,1v12c0,.6-.4,1-1,1h-12c-.6,0-1-.4-1-1v-12c0-.5,.5-1,1-1Z"/>
      <path class="cls-6" d="M286.17,256.37h12c.6,0,1,.4,1,1v12c0,.6-.4,1-1,1h-12c-.6,0-1-.4-1-1v-12c0-.5,.4-1,1-1Z"/>
      <path class="cls-6" d="M308.07,256.37h12c.6,0,1,.4,1,1v12c0,.6-.4,1-1,1h-12c-.6,0-1-.4-1-1v-12c0-.5,.4-1,1-1Z"/>
      <path class="cls-6" d="M329.97,256.37h12c.6,0,1,.4,1,1v12c0,.6-.4,1-1,1h-12c-.6,0-1-.4-1-1v-12c0-.5,.4-1,1-1Z"/>
      <path class="cls-6" d="M351.87,256.37h12c.6,0,1,.4,1,1v12c0,.6-.4,1-1,1h-12c-.6,0-1-.4-1-1v-12c0-.5,.4-1,1-1Z"/>
      <path class="cls-6" d="M373.77,256.37h12c.6,0,1,.4,1,1v12c0,.6-.4,1-1,1h-12c-.6,0-1-.4-1-1v-12c0-.5,.4-1,1-1Z"/>
      <path class="cls-28" d="M198.27,316.37h12c.6,0,1,.4,1,1v12c0,.6-.4,1-1,1h-12c-.6,0-1-.4-1-1v-12c0-.5,.4-1,1-1Z"/>
      <path class="cls-28" d="M176.57,316.37h12c.6,0,1,.4,1,1v12c0,.6-.4,1-1,1h-12c-.6,0-1-.4-1-1v-12c0-.5,.5-1,1-1Z"/>
      <path class="cls-28" d="M219.87,316.37h98.6c.6,0,1,.4,1,1v12c0,.6-.4,1-1,1h-98.6c-.6,0-1-.4-1-1v-12c0-.5,.5-1,1-1Z"/>
      <path class="cls-28" d="M328.07,316.37h12c.6,0,1,.4,1,1v12c0,.6-.4,1-1,1h-12c-.6,0-1-.4-1-1v-12c0-.5,.5-1,1-1Z"/>
      <path class="cls-28" d="M363.77,324.27h8c.6,0,1,.4,1,1v4.1c0,.6-.4,1-1,1h-8c-.6,0-1-.4-1-1v-4.1c0-.6,.4-1,1-1Z"/>
      <path class="cls-28" d="M363.77,316.37h8c.6,0,1,.4,1,1v4.1c0,.6-.4,1-1,1h-8c-.6,0-1-.4-1-1v-4.1c0-.5,.4-1,1-1Z"/>
      <path class="cls-28" d="M377.77,324.27h8c.6,0,1,.4,1,1v4.1c0,.6-.4,1-1,1h-8c-.6,0-1-.4-1-1v-4.1c0-.6,.4-1,1-1Z"/>
      <path class="cls-28" d="M349.77,324.27h8c.6,0,1,.4,1,1v4.1c0,.6-.4,1-1,1h-8c-.6,0-1-.4-1-1v-4.1c0-.6,.4-1,1-1Z"/>
      <path class="cls-28" d="M176.57,296.47h31.6c.6,0,1,.4,1,1v12c0,.6-.4,1-1,1h-31.6c-.6,0-1-.4-1-1v-12c0-.5,.5-1,1-1Z"/>
      <path class="cls-28" d="M218.07,296.47h12c.6,0,1,.4,1,1v12c0,.6-.4,1-1,1h-12c-.6,0-1-.4-1-1v-12c0-.5,.5-1,1-1Z"/>
      <path class="cls-28" d="M239.67,296.47h12c.6,0,1,.4,1,1v12c0,.6-.4,1-1,1h-12c-.6,0-1-.4-1-1v-12c0-.5,.5-1,1-1Z"/>
      <path class="cls-28" d="M261.37,296.47h12c.6,0,1,.4,1,1v12c0,.6-.4,1-1,1h-12c-.6,0-1-.4-1-1v-12c0-.5,.4-1,1-1Z"/>
      <path class="cls-28" d="M282.97,296.47h12c.6,0,1,.4,1,1v12c0,.6-.4,1-1,1h-12c-.6,0-1-.4-1-1v-12c0-.5,.5-1,1-1Z"/>
      <path class="cls-28" d="M304.67,296.47h12c.6,0,1,.4,1,1v12c0,.6-.4,1-1,1h-12c-.6,0-1-.4-1-1v-12c0-.5,.4-1,1-1Z"/>
      <path class="cls-28" d="M326.27,296.47h12c.6,0,1,.4,1,1v12c0,.6-.4,1-1,1h-12c-.6,0-1-.4-1-1v-12c0-.5,.4-1,1-1Z"/>
      <path class="cls-28" d="M349.77,296.47h36c.6,0,1,.4,1,1v12c0,.6-.4,1-1,1h-36c-.6,0-1-.4-1-1v-12c0-.5,.4-1,1-1Z"/>
      <path class="cls-28" d="M210.27,275.97h12c.6,0,1,.4,1,1v12c0,.6-.4,1-1,1h-12c-.6,0-1-.4-1-1v-12c0-.5,.4-1,1-1Z"/>
      <path class="cls-28" d="M176.57,275.97h24c.6,0,1,.4,1,1v12c0,.6-.4,1-1,1h-24c-.6,0-1-.4-1-1v-12c0-.5,.5-1,1-1Z"/>
      <path class="cls-28" d="M231.87,275.97h12c.6,0,1,.4,1,1v12c0,.6-.4,1-1,1h-12c-.6,0-1-.4-1-1v-12c0-.5,.5-1,1-1Z"/>
      <path class="cls-28" d="M253.57,275.97h12c.6,0,1,.4,1,1v12c0,.6-.4,1-1,1h-12c-.6,0-1-.4-1-1v-12c0-.5,.4-1,1-1Z"/>
      <path class="cls-28" d="M275.17,275.97h12c.6,0,1,.4,1,1v12c0,.6-.4,1-1,1h-12c-.6,0-1-.4-1-1v-12c0-.5,.4-1,1-1Z"/>
      <path class="cls-28" d="M296.77,275.97h12c.6,0,1,.4,1,1v12c0,.6-.4,1-1,1h-12c-.6,0-1-.4-1-1v-12c0-.5,.5-1,1-1Z"/>
      <path class="cls-28" d="M318.47,275.97h12c.6,0,1,.4,1,1v12c0,.6-.4,1-1,1h-12c-.6,0-1-.4-1-1v-12c0-.5,.4-1,1-1Z"/>
      <path class="cls-28" d="M340.07,275.97h12c.6,0,1,.4,1,1v12c0,.6-.4,1-1,1h-12c-.6,0-1-.4-1-1v-12c0-.5,.5-1,1-1Z"/>
      <path class="cls-28" d="M361.77,275.97h24c.6,0,1,.4,1,1v12c0,.6-.4,1-1,1h-24c-.6,0-1-.4-1-1v-12c0-.5,.4-1,1-1Z"/>
      <path class="cls-28" d="M198.47,256.37h12c.6,0,1,.4,1,1v12c0,.6-.4,1-1,1h-12c-.6,0-1-.4-1-1v-12c0-.5,.5-1,1-1Z"/>
      <path class="cls-28" d="M176.57,256.37h12c.6,0,1,.4,1,1v12c0,.6-.4,1-1,1h-12c-.6,0-1-.4-1-1v-12c0-.5,.5-1,1-1Z"/>
      <path class="cls-28" d="M220.37,256.37h12c.6,0,1,.4,1,1v12c0,.6-.4,1-1,1h-12c-.6,0-1-.4-1-1v-12c0-.5,.5-1,1-1Z"/>
      <path class="cls-28" d="M242.27,256.37h12c.6,0,1,.4,1,1v12c0,.6-.4,1-1,1h-12c-.6,0-1-.4-1-1v-12c0-.5,.5-1,1-1Z"/>
      <path class="cls-28" d="M264.17,256.37h12c.6,0,1,.4,1,1v12c0,.6-.4,1-1,1h-12c-.6,0-1-.4-1-1v-12c0-.5,.5-1,1-1Z"/>
      <path class="cls-28" d="M286.17,256.37h12c.6,0,1,.4,1,1v12c0,.6-.4,1-1,1h-12c-.6,0-1-.4-1-1v-12c0-.5,.4-1,1-1Z"/>
      <path class="cls-28" d="M308.07,256.37h12c.6,0,1,.4,1,1v12c0,.6-.4,1-1,1h-12c-.6,0-1-.4-1-1v-12c0-.5,.4-1,1-1Z"/>
      <path class="cls-28" d="M329.97,256.37h12c.6,0,1,.4,1,1v12c0,.6-.4,1-1,1h-12c-.6,0-1-.4-1-1v-12c0-.5,.4-1,1-1Z"/>
      <path class="cls-28" d="M351.87,256.37h12c.6,0,1,.4,1,1v12c0,.6-.4,1-1,1h-12c-.6,0-1-.4-1-1v-12c0-.5,.4-1,1-1Z"/>
      <path class="cls-28" d="M373.77,256.37h12c.6,0,1,.4,1,1v12c0,.6-.4,1-1,1h-12c-.6,0-1-.4-1-1v-12c0-.5,.4-1,1-1Z"/>
      <path class="cls-28" d="M196.17,224.47h170v13.4c0,2.2-1.8,4-4,4H200.17c-2.2,0-4-1.8-4-4v-13.4h0Z"/>
      <rect class="cls-26" x="196.17" y="224.47" width="170" height="2"/>
      <path class="cls-30" d="M362.17,237.97H200.17c-2.2,0-4-1.8-4-4v4c0,2.2,1.8,4,4,4h162c2.2,0,4-1.8,4-4v-4c0,2.2-1.8,4-4,4Z"/>
      <path class="cls-11" d="M196.17,224.47h170v13.4c0,2.2-1.8,4-4,4H200.17c-2.2,0-4-1.8-4-4v-13.4h0Z"/>
      <path class="cls-23" d="M246.17,343.87h70c1.1,0,2,.9,2,2v47c0,1.1-.9,2-2,2h-70c-1.1,0-2-.9-2-2v-47c0-1.1,.9-2,2-2Z"/>
      <path class="cls-6" d="M246.17,343.87h70c1.1,0,2,.9,2,2v47c0,1.1-.9,2-2,2h-70c-1.1,0-2-.9-2-2v-47c0-1.1,.9-2,2-2Z"/>
      <circle class="cls-25" cx="281.17" cy="79.67" r="3"/>
      <circle class="cls-5" cx="281.17" cy="79.67" r="3"/>
      <path class="cls-24" d="M331.57,100.67h12c.6,0,1,.4,1,1h0c0,.6-.4,1-1,1h-12c-.6,0-1-.4-1-1h0c0-.5,.4-1,1-1Z"/>
      <path class="cls-24" d="M357.47,100.67h12c.6,0,1,.4,1,1h0c0,.6-.4,1-1,1h-12c-.6,0-1-.4-1-1h0c0-.5,.5-1,1-1Z"/>
      <path class="cls-24" d="M305.57,100.67h12c.6,0,1,.4,1,1h0c0,.6-.4,1-1,1h-12c-.6,0-1-.4-1-1h0c0-.5,.4-1,1-1Z"/>
      <circle class="cls-24" cx="188.37" cy="102.17" r="4.8"/>
      <g class="cls-36">
        <rect class="cls-24" x="230.47" y="155.17" width="101.2" height="3.6"/>
        <rect class="cls-24" x="243.27" y="143.07" width="75.6" height="3.7"/>
      </g>
      <path class="cls-18" d="M269.77,183.47h28.8c3,0,5.5,2.5,5.5,5.5h0c0,3-2.5,5.5-5.5,5.5h-28.8c-3,0-5.5-2.5-5.5-5.5h0c0-3,2.5-5.5,5.5-5.5Z"/>
    </g>
  </g>
</svg>