<?xml version="1.0" encoding="UTF-8"?>
<svg id="Layer_2" data-name="Layer 2" xmlns="http://www.w3.org/2000/svg" viewBox="0 0 742.9 592.2">
  <defs>
    <style>
      .cls-1 {
        stroke-width: 3px;
      }

      .cls-1, .cls-2, .cls-3, .cls-4, .cls-5, .cls-6 {
        fill: none;
      }

      .cls-1, .cls-2, .cls-3, .cls-4, .cls-5, .cls-6, .cls-7 {
        stroke-linecap: round;
        stroke-linejoin: round;
      }

      .cls-1, .cls-2, .cls-4, .cls-6 {
        stroke: #2d255e;
      }

      .cls-2, .cls-3, .cls-5, .cls-7 {
        stroke-width: 6px;
      }

      .cls-3 {
        stroke: #39d188;
      }

      .cls-8 {
        fill: #f5969c;
      }

      .cls-9 {
        fill: #66cdfd;
      }

      .cls-10 {
        fill: #69351f;
      }

      .cls-11 {
        fill: #ecf9ff;
      }

      .cls-12, .cls-13 {
        fill: #fff;
      }

      .cls-14 {
        fill: #e8e8e8;
      }

      .cls-15 {
        fill: #f5a623;
      }

      .cls-16 {
        fill: #ce5569;
      }

      .cls-17 {
        fill: #df747c;
      }

      .cls-18 {
        fill: #d6d6d6;
      }

      .cls-19 {
        fill: #d3d3d3;
      }

      .cls-20 {
        fill: #db6b7b;
      }

      .cls-21 {
        fill: #d49d7f;
      }

      .cls-22 {
        fill: #d68821;
      }

      .cls-23 {
        fill: #14a56a;
      }

      .cls-24 {
        fill: #12b075;
      }

      .cls-25 {
        fill: #562314;
      }

      .cls-26 {
        fill: #2d255e;
      }

      .cls-27 {
        fill: #3297d9;
      }

      .cls-28 {
        fill: #632d1b;
      }

      .cls-13 {
        opacity: .3;
      }

      .cls-13, .cls-5, .cls-7 {
        isolation: isolate;
      }

      .cls-4 {
        stroke-width: 2px;
      }

      .cls-5 {
        opacity: .38;
        stroke: #006837;
      }

      .cls-6 {
        stroke-width: 8px;
      }

      .cls-7 {
        fill: #282828;
        opacity: .18;
        stroke: #282828;
      }
    </style>
  </defs>
  <g id="Layer_1-2" data-name="Layer 1">
    <g>
      <path class="cls-11" d="M126.1,197.1c-2.9,0-5.6,.7-7.9,2-5-8.2-14-13.7-24.3-13.7-5,0-9.8,1.3-13.9,3.6-7.9-11.5-21.1-19.1-36.2-19.1-24.2,0-43.8,19.6-43.8,43.8H142.8c0-9.2-7.5-16.6-16.7-16.6Z"/>
      <polygon class="cls-12" points="659.2 255.8 601.2 255.8 584.1 159.8 637.2 159.8 659.2 255.8"/>
      <polygon class="cls-15" points="601.2 255.8 543.2 255.8 531 159.8 584.1 159.8 601.2 255.8"/>
      <polygon class="cls-12" points="543.2 255.8 485.2 255.8 477.9 159.8 531 159.8 543.2 255.8"/>
      <polygon class="cls-15" points="485.2 255.8 427.2 255.8 424.8 159.8 477.9 159.8 485.2 255.8"/>
      <polygon class="cls-12" points="427.2 255.8 369.2 255.8 371.7 159.8 424.8 159.8 427.2 255.8"/>
      <polygon class="cls-15" points="369.2 255.8 311.2 255.8 318.6 159.8 371.7 159.8 369.2 255.8"/>
      <polygon class="cls-12" points="311.2 255.8 253.2 255.8 265.4 159.8 318.6 159.8 311.2 255.8"/>
      <polygon class="cls-15" points="253.2 255.8 195.2 255.8 212.3 159.8 265.4 159.8 253.2 255.8"/>
      <polygon class="cls-12" points="195.2 255.8 137.2 255.8 159.2 159.8 212.3 159.8 195.2 255.8"/>
      <rect class="cls-8" x="159.2" y="292.2" width="169" height="236"/>
      <rect class="cls-7" x="185.7" y="480.2" width="116" height="6.1"/>
      <rect class="cls-17" x="294.8" y="351.3" width="25.3" height="11.7"/>
      <rect class="cls-17" x="159.2" y="330.9" width="16.9" height="11.7"/>
      <rect class="cls-17" x="312.1" y="366" width="18" height="11.7"/>
      <rect class="cls-17" x="313.8" y="490.3" width="12.7" height="11.7"/>
      <rect class="cls-17" x="203.8" y="490.3" width="25.3" height="11.7"/>
      <rect class="cls-17" x="189.8" y="505" width="25.3" height="11.7"/>
      <rect class="cls-2" x="159.2" y="292.2" width="170" height="236"/>
      <rect class="cls-9" x="191.7" y="300.2" width="104" height="172"/>
      <path class="cls-27" d="M258.7,462.4h-38.3c-1.5,0-2.7-1.2-2.7-2.7v-1.2c0-1.5,1.2-2.7,2.7-2.7h38.3c1.5,0,2.7,1.2,2.7,2.7v1.2c.1,1.5-1.2,2.7-2.7,2.7Z"/>
      <rect class="cls-27" x="231.5" y="461.2" width="16.3" height="11.8"/>
      <path class="cls-27" d="M276.7,473.3h-8v-37.8c0-2.2,1.8-4,4-4h0c2.2,0,4,1.8,4,4v37.8Z"/>
      <path class="cls-27" d="M211.6,473.3h-8v-37.8c0-2.2,1.8-4,4-4h0c2.2,0,4,1.8,4,4v37.8Z"/>
      <polygon class="cls-13" points="291.9 472.2 295.7 466.8 295.7 394.3 241.2 472.2 291.9 472.2"/>
      <polygon class="cls-13" points="234.3 472.2 295.7 384.6 295.7 368.2 222.9 472.2 234.3 472.2"/>
      <polygon class="cls-13" points="213.9 472.2 295.7 355.4 295.7 347.2 208.2 472.2 213.9 472.2"/>
      <rect class="cls-2" x="191.7" y="300.2" width="104" height="172"/>
      <rect class="cls-21" x="185.7" y="472.2" width="116" height="12"/>
      <rect class="cls-2" x="185.7" y="472.2" width="116" height="12"/>
      <rect class="cls-21" x="329.2" y="295.6" width="138" height="292.6"/>
      <rect class="cls-2" x="329.2" y="295.6" width="138" height="292.6"/>
      <rect class="cls-9" x="344.2" y="312" width="108" height="202.7"/>
      <polygon class="cls-13" points="453.2 515.7 453.2 419.3 397.6 515.7 453.2 515.7"/>
      <polygon class="cls-13" points="391 514.7 452.2 408.7 452.2 375.5 371.9 514.7 391 514.7"/>
      <polygon class="cls-13" points="363 514.7 452.2 360.1 452.2 349.3 356.8 514.7 363 514.7"/>
      <rect class="cls-2" x="344.2" y="312" width="108" height="202.7"/>
      <rect class="cls-20" x="140.2" y="528.2" width="196.8" height="60"/>
      <rect class="cls-16" x="140.2" y="528.2" width="8.4" height="60"/>
      <rect class="cls-16" x="330.3" y="528.2" width="4.9" height="60"/>
      <rect class="cls-2" x="140.2" y="528.2" width="196.8" height="60"/>
      <rect class="cls-8" x="467.7" y="292.3" width="169" height="236"/>
      <rect class="cls-17" x="597.5" y="505" width="25.3" height="11.7"/>
      <rect class="cls-17" x="467.6" y="505" width="25.3" height="11.7"/>
      <rect class="cls-17" x="582.3" y="490.3" width="25.3" height="11.7"/>
      <rect class="cls-17" x="485.2" y="325.8" width="15.5" height="11.7"/>
      <rect class="cls-17" x="466.6" y="439.2" width="15.5" height="11.7"/>
      <rect class="cls-2" x="466.7" y="292.3" width="170" height="236"/>
      <rect class="cls-9" x="500.1" y="300.2" width="104" height="172"/>
      <path class="cls-27" d="M537.1,462.4h38.3c1.5,0,2.7-1.2,2.7-2.7v-1.2c0-1.5-1.2-2.7-2.7-2.7h-38.3c-1.5,0-2.7,1.2-2.7,2.7v1.2c0,1.5,1.2,2.7,2.7,2.7Z"/>
      <rect class="cls-27" x="548.1" y="461.2" width="16.3" height="11.8"/>
      <path class="cls-27" d="M519.2,473.3h8v-37.8c0-2.2-1.8-4-4-4h0c-2.2,0-4,1.8-4,4v37.8Z"/>
      <path class="cls-27" d="M584.2,473.3h8v-37.8c0-2.2-1.8-4-4-4h0c-2.2,0-4,1.8-4,4v37.8Z"/>
      <polygon class="cls-13" points="600.4 472.2 604.1 466.8 604.1 394.3 549.6 472.2 600.4 472.2"/>
      <polygon class="cls-13" points="542.8 472.2 604.1 384.6 604.1 368.2 531.3 472.2 542.8 472.2"/>
      <polygon class="cls-13" points="522.3 472.2 604.1 355.4 604.1 347.2 516.6 472.2 522.3 472.2"/>
      <rect class="cls-2" x="500.1" y="300.2" width="104" height="172"/>
      <rect class="cls-7" x="494.1" y="480.2" width="116" height="6.1"/>
      <rect class="cls-21" x="494.2" y="472.2" width="116" height="12"/>
      <rect class="cls-2" x="494.2" y="472.2" width="116" height="12"/>
      <rect class="cls-20" x="460.4" y="528.3" width="195.2" height="60"/>
      <rect class="cls-16" x="460.5" y="528.2" width="7.2" height="60"/>
      <rect class="cls-2" x="460.4" y="528.3" width="195.2" height="60"/>
      <path class="cls-26" d="M363.6,454h0c-2.5,0-4.5-2-4.5-4.5v-48.3c0-2.5,2-4.5,4.5-4.5h0c2.5,0,4.5,2,4.5,4.5v48.3c0,2.5-2,4.5-4.5,4.5Z"/>
      <path class="cls-7" d="M601.2,261.8H159.2v61.1c2.2,.6,4.6,.9,7,.9h0c16,0,29-13,29-29,0,16,13,29,29,29h0c16,0,29-13,29-29,0,16,13,29,29,29h0c16,0,29-13,29-29,0,16,13,29,29,29h0c16,0,29-13,29-29,0,16,13,29,29,29h0c16,0,29-13,29-29,0,16,13,29,29,29h0c16,0,29-13,29-29,0,16,13,29,29,29h0c16,0,29-13,29-29,0,16,13,29,29,29h0c16,0,29-13,29-29,0,16,13,29,29,29h0c2.2,0,4.4-.3,6.4-.7v-61.3h-35.4Z"/>
      <path class="cls-22" d="M572.2,317.8h0c-16,0-29-13-29-29v-33h58v33c0,16-13,29-29,29Z"/>
      <path class="cls-18" d="M514.2,317.8h0c-16,0-29-13-29-29v-33h58v33c0,16-13,29-29,29Z"/>
      <path class="cls-22" d="M456.2,317.8h0c-16,0-29-13-29-29v-33h58v33c0,16-13,29-29,29Z"/>
      <path class="cls-18" d="M398.2,317.8h0c-16,0-29-13-29-29v-33h58v33c0,16-13,29-29,29Z"/>
      <path class="cls-22" d="M340.2,317.8h0c-16,0-29-13-29-29v-33h58v33c0,16-13,29-29,29Z"/>
      <path class="cls-18" d="M282.2,317.8h0c-16,0-29-13-29-29v-33h58v33c0,16-13,29-29,29Z"/>
      <path class="cls-22" d="M224.2,317.8h0c-16,0-29-13-29-29v-33h58v33c0,16-13,29-29,29Z"/>
      <path class="cls-18" d="M166.2,317.8h0c-16,0-29-13-29-29v-33h58v33c0,16-13,29-29,29Z"/>
      <path class="cls-2" d="M572.2,317.8h0c-16,0-29-13-29-29v-33h58v33c0,16-13,29-29,29Z"/>
      <path class="cls-2" d="M514.2,317.8h0c-16,0-29-13-29-29v-33h58v33c0,16-13,29-29,29Z"/>
      <path class="cls-2" d="M456.2,317.8h0c-16,0-29-13-29-29v-33h58v33c0,16-13,29-29,29Z"/>
      <path class="cls-2" d="M398.2,317.8h0c-16,0-29-13-29-29v-33h58v33c0,16-13,29-29,29Z"/>
      <path class="cls-2" d="M340.2,317.8h0c-16,0-29-13-29-29v-33h58v33c0,16-13,29-29,29Z"/>
      <path class="cls-2" d="M282.2,317.8h0c-16,0-29-13-29-29v-33h58v33c0,16-13,29-29,29Z"/>
      <path class="cls-2" d="M224.2,317.8h0c-16,0-29-13-29-29v-33h58v33c0,16-13,29-29,29Z"/>
      <path class="cls-2" d="M166.2,317.8h0c-16,0-29-13-29-29v-33h58v33c0,16-13,29-29,29Z"/>
      <polygon class="cls-2" points="659.2 255.8 601.2 255.8 584.1 159.8 637.2 159.8 659.2 255.8"/>
      <polygon class="cls-2" points="601.2 255.8 543.2 255.8 531 159.8 584.1 159.8 601.2 255.8"/>
      <polygon class="cls-2" points="543.2 255.8 485.2 255.8 477.9 159.8 531 159.8 543.2 255.8"/>
      <polygon class="cls-2" points="485.2 255.8 427.2 255.8 424.8 159.8 477.9 159.8 485.2 255.8"/>
      <polygon class="cls-2" points="427.2 255.8 369.2 255.8 371.7 159.8 424.8 159.8 427.2 255.8"/>
      <polygon class="cls-2" points="369.2 255.8 311.2 255.8 318.6 159.8 371.7 159.8 369.2 255.8"/>
      <polygon class="cls-2" points="311.2 255.8 253.2 255.8 265.4 159.8 318.6 159.8 311.2 255.8"/>
      <polygon class="cls-2" points="253.2 255.8 195.2 255.8 212.3 159.8 265.4 159.8 253.2 255.8"/>
      <polygon class="cls-2" points="195.2 255.8 137.2 255.8 159.2 159.8 212.3 159.8 195.2 255.8"/>
      <rect class="cls-20" x="159.2" y="141.8" width="478" height="18"/>
      <rect class="cls-8" x="159.2" y="141.8" width="478" height="6.2"/>
      <rect class="cls-2" x="159.2" y="141.8" width="478" height="18"/>
      <line class="cls-2" x1="88.7" y1="473" x2="88.7" y2="530"/>
      <path class="cls-23" d="M107.5,474.8h-6c-11.8,0-21.4-9.6-21.4-21.4v-49.2c0-11.8,9.6-21.4,21.4-21.4h6c11.8,0,21.4,9.6,21.4,21.4v49.2c.1,11.8-9.5,21.4-21.4,21.4Z"/>
      <path class="cls-2" d="M107.5,474.8h-6c-11.8,0-21.4-9.6-21.4-21.4v-49.2c0-11.8,9.6-21.4,21.4-21.4h6c11.8,0,21.4,9.6,21.4,21.4v49.2c.1,11.8-9.5,21.4-21.4,21.4Z"/>
      <polyline class="cls-2" points="72.5 492.9 75.5 508.1 88.7 513.1"/>
      <path class="cls-24" d="M66.2,495.4h0c-9.7,0-17.6-7.9-17.6-17.6v-26.1c0-9.7,7.9-17.6,17.6-17.6h0c9.7,0,17.6,7.9,17.6,17.6v26.1c0,9.7-7.9,17.6-17.6,17.6Z"/>
      <path class="cls-2" d="M66.2,495.4h0c-9.7,0-17.6-7.9-17.6-17.6v-26.1c0-9.7,7.9-17.6,17.6-17.6h0c9.7,0,17.6,7.9,17.6,17.6v26.1c0,9.7-7.9,17.6-17.6,17.6Z"/>
      <polygon class="cls-10" points="111.5 586.6 66 586.6 59.9 527.1 117.6 527.1 111.5 586.6"/>
      <polygon class="cls-28" points="100.3 527.1 94.1 586.6 111.5 586.6 117.6 527.1 100.3 527.1"/>
      <rect class="cls-25" x="93.9" y="539.5" width="21.6" height="8.3"/>
      <rect class="cls-25" x="62.2" y="554.1" width="18.4" height="8.3"/>
      <rect class="cls-25" x="87.7" y="567.1" width="25.3" height="8.3"/>
      <polygon class="cls-2" points="111.5 586.6 66 586.6 59.9 527.1 117.6 527.1 111.5 586.6"/>
      <polyline class="cls-2" points="89.8 507.8 104 500 104 428.8"/>
      <line class="cls-2" x1="104.7" y1="450.7" x2="115.5" y2="442"/>
      <rect class="cls-14" x="377.68" y="381.97" width="54" height="25.3" transform="translate(-73.2 92.76) rotate(-12)"/>
      <rect class="cls-1" x="377.68" y="381.97" width="54" height="25.3" transform="translate(-73.2 92.76) rotate(-12)"/>
      <path class="cls-19" d="M387.5,393.5l32.5-6.9c1.3-.3,2.5,.5,2.8,1.8l1,4.5c.3,1.3-.5,2.5-1.8,2.8l-32.5,6.9c-1.3,.3-2.5-.5-2.8-1.8l-1-4.5c-.3-1.3,.5-2.5,1.8-2.8Z"/>
      <polyline class="cls-4" points="392.1 383.3 400.4 359 410.5 378.7"/>
      <circle class="cls-26" cx="400.4" cy="360.3" r="3"/>
      <rect class="cls-17" x="218.1" y="505" width="25.3" height="11.7"/>
      <line class="cls-5" x1="92" y1="420.2" x2="96.9" y2="428.8"/>
      <line class="cls-5" x1="96.1" y1="401.3" x2="101" y2="409.8"/>
      <line class="cls-3" x1="107.6" y1="399.7" x2="112.5" y2="408.2"/>
      <line class="cls-5" x1="62.9" y1="468.3" x2="65.9" y2="473.4"/>
      <line class="cls-3" x1="64.6" y1="454.2" x2="67.7" y2="459.4"/>
      <path class="cls-18" d="M630.2,317.8h0c-16,0-29-13-29-29v-33h58v33c0,16-13,29-29,29Z"/>
      <path class="cls-2" d="M630.2,317.8h0c-16,0-29-13-29-29v-33h58v33c0,16-13,29-29,29Z"/>
      <rect class="cls-18" x="630.1" y="433.3" width="38" height="155"/>
      <rect class="cls-12" x="638.5" y="433.3" width="19.3" height="155"/>
      <rect class="cls-2" x="630.1" y="433.3" width="38" height="155"/>
      <path class="cls-26" d="M651.2,454.2h-5.1c-2.7,0-4.8-2.1-4.8-4.8v-13.9h14.7v13.9c0,2.6-2.2,4.8-4.8,4.8Z"/>
      <line class="cls-6" x1="16.1" y1="588.2" x2="714.3" y2="588.2"/>
      <path class="cls-11" d="M723.6,99.3c-4.7,0-9,1.7-12.3,4.4-5.8-13.9-19.5-23.7-35.6-23.7-21.3,0-38.5,17.3-38.5,38.5h105.7c0-10.6-8.6-19.2-19.3-19.2Z"/>
      <path class="cls-11" d="M446.1,80c-.2-14.7-12.2-26.5-26.9-26.5-4.8,0-9.3,1.3-13.2,3.4-4.2-7.1-11.7-12.1-20.3-13-2.9-11.8-13.5-20.5-26.2-20.5-3.5,0-6.7,.7-9.8,1.8-9.4-15.1-26.2-25.2-45.4-25.2-25.3,0-46.5,17.6-52.1,41.1-4-1.8-8.4-2.7-13-2.7-17.9,0-32.3,14.5-32.3,32.3,0,3.2,.5,6.4,1.4,9.3h237.8Z"/>
    </g>
  </g>
</svg>