<?xml version="1.0" encoding="UTF-8"?>
<svg id="Layer_2" data-name="Layer 2" xmlns="http://www.w3.org/2000/svg" viewBox="0 0 623.44 215.54">
  <defs>
    <style>
      .cls-1 {
        fill: #1073bc;
      }
    </style>
  </defs>
  <g id="Layer_1-2" data-name="Layer 1">
    <g>
      <path class="cls-1" d="M41.71,88.63c0,27.11,0,54.21,0,81.32,0,7.82-.84,15.75,.15,23.44,2.18,16.91-4.25,22.67-21.4,21.95-14.42-.61-20.96-3.39-20.42-19.8,1.24-37.39,.89-74.86,.18-112.28-.28-14.61,5.85-20.57,19.6-20.53,.56,0,1.13,.07,1.67-.02,36.45-5.69,62.01,5.28,75.84,42.6,8.6,23.2,23.45,44.08,37.24,69.17,5.07-7.69,8.82-12.75,11.92-18.18,13.81-24.26,28.06-48.29,40.87-73.07,7.7-14.89,18.82-20.75,34.93-20.66,53.73,.3,45.19-2.72,45.56,44.11,.24,30.17-.64,60.37,.49,90.5,.68,18.17-10.04,17.36-22.56,17.94-13.78,.64-18.55-4.19-18.11-18.24,.94-30.14,.26-60.33,.25-90.5,0-5.94,0-11.88-3.91-19.12-2.26,3.15-4.91,6.09-6.74,9.48-18.53,34.4-37.47,68.6-55.07,103.48-6.53,12.94-15.86,14.98-28.54,14.89-12.56-.09-22.05-1.69-28.46-14.91-16.54-34.14-34.56-67.57-52.05-101.25-2-3.84-4.44-7.45-6.68-11.16-1.58,.28-3.16,.55-4.75,.83Z"/>
      <path class="cls-1" d="M425.1,102.6c-17.75,31.09-34.89,57.8-48.59,86.18-10.12,20.96-24.35,27.1-46.44,26.62-46.11-1-37.53-.61-37.99-37.99-.39-31.27,.86-62.59-.47-93.81-.72-16.87,6.05-20.83,21.22-21.07,16.41-.27,21.12,6.44,20.64,22-.97,31.24-.45,62.54-.41,93.81,0,4.1,.75,8.19,4.39,13.07,14.71-27.2,29.45-54.38,44.11-81.61,5.55-10.31,11.83-20.36,16.17-31.18,5.71-14.22,16.44-16.11,29.68-16,12.74,.11,21.82,2.95,28.04,15.9,16.16,33.69,33.78,66.67,50.91,99.89,2.2,4.27,4.96,8.25,11.15,11.92,.52-5.63,1.47-11.26,1.49-16.9,.13-31.27,.81-62.58-.29-93.81-.57-16.18,8.6-16.87,20.03-16.79,11.13,.08,20.82-.02,20.42,16.42-.95,39.07-.74,78.19-.11,117.27,.23,14.1-5.62,18.37-18.89,18.67-52.56,1.21-52.58,1.51-77.61-44.03-11.79-21.44-23.46-42.95-37.45-68.58Z"/>
      <path class="cls-1" d="M621.62,138.98c0,20.12-.47,40.26,.15,60.36,.48,15.52-9.69,14.89-20.13,15.17-10.96,.29-17.95-2.09-17.74-15.69,.62-40.23,.56-80.48,.01-120.71-.19-13.81,7.73-15.4,18.24-15.51,11.12-.11,20.09,1.41,19.71,16.03-.52,20.11-.13,40.24-.13,60.36h-.12Z"/>
      <path class="cls-1" d="M602.64,37.67c-13.88,1.54-20.94-4.3-21.01-18.76C581.56,3.64,591.33,.04,603.56,0c11.92-.04,20.09,4.09,19.87,18.6-.22,14.63-6.92,20.3-20.8,19.07Z"/>
    </g>
  </g>
</svg>